<svg width="230" height="230" viewBox="0 0 230 230" fill="none" xmlns="http://www.w3.org/2000/svg">
<path d="M213.49 114.998C213.49 117.757 212.312 120.251 210.404 122.059C208.496 123.866 205.866 124.986 202.947 124.986H187.85C185.636 139.762 178.571 153.06 168.235 163.386H174.402C177.81 163.386 180.569 166 180.569 169.228C180.569 170.837 179.882 172.295 178.764 173.353C177.647 174.407 176.108 175.066 174.402 175.066H153.003C141.735 181.587 128.489 185.35 114.315 185.35C108.38 185.35 102.612 184.691 97.0807 183.444H65.6811C64.8002 183.444 64.005 183.106 63.4334 182.563C62.8533 182.015 62.5008 181.262 62.5008 180.434C62.5008 178.767 63.9233 177.421 65.6811 177.421H80.0268C73.7949 174.345 68.0832 170.455 63.0465 165.906H49.172C47.7621 165.906 46.4902 165.366 45.5662 164.489C44.6421 163.617 44.0749 162.41 44.0749 161.072C44.0749 158.408 46.3571 156.247 49.172 156.247H54.1371C53.5181 155.44 52.9164 154.621 52.3362 153.789H31.4404C27.3145 153.789 23.5882 152.2 20.8852 149.643C18.1778 147.087 16.51 143.55 16.51 139.647C16.51 131.837 23.1932 125.505 31.4407 125.505H40.8615C40.3156 122.08 40.0364 118.572 40.0364 114.999C40.0364 108.329 41.0162 101.878 42.8513 95.7637H34.4149C31.604 95.7637 29.064 94.685 27.2288 92.9436C25.3851 91.2022 24.2463 88.7935 24.2463 86.1382C24.2463 80.8148 28.7977 76.5043 34.4149 76.5043H52.1347C57.3091 69.0236 63.9449 62.531 71.6637 57.4011H64.4992C62.8144 57.4011 61.2887 56.7505 60.1887 55.7049C59.0798 54.6592 58.4007 53.214 58.4007 51.6206C58.4007 48.4259 61.13 45.8445 64.4992 45.8445H100.635C105.066 45.0582 109.639 44.6505 114.315 44.6505C129.117 44.6505 142.904 48.7511 154.482 55.8158H175.734C181.051 55.8158 185.357 59.8957 185.357 64.931C185.357 67.4466 184.283 69.7234 182.537 71.3742C180.797 73.021 178.394 74.0422 175.734 74.0422H174.715C181.515 83.0174 186.135 93.5775 187.85 105.015H202.948C208.771 105.014 213.49 109.485 213.49 114.998Z" fill="#EBF1FF"/>
<path d="M131.959 61.3839L131.902 61.3548C125.955 58.3188 126.754 52.4389 126.763 52.3799L126.779 52.273H126.887C130.668 52.273 131.856 51.0546 131.867 51.0422L131.959 50.9445L132.051 51.0428C132.062 51.0546 133.251 52.273 137.031 52.273H137.139L137.155 52.3799C137.164 52.4389 137.962 58.3188 132.016 61.3548L131.959 61.3839ZM126.999 52.5231C126.923 53.3195 126.673 58.3668 131.959 61.1024C137.245 58.3668 136.994 53.3195 136.919 52.5231C133.637 52.5027 132.301 51.5882 131.959 51.2981C131.618 51.5885 130.281 52.5027 126.999 52.5231Z" fill="#79A1FF"/>
<path d="M118.602 85.4827H118.352V71.513H131.833V59.7646H132.084V71.7635H118.602V85.4827Z" fill="#79A1FF"/>
<path d="M140.248 64.4857H138.098V64.235H139.997V62.3381H140.248V64.4857Z" fill="#79A1FF"/>
<path d="M125.795 64.4857H123.645V62.3381H123.896V64.235H125.795V64.4857Z" fill="#79A1FF"/>
<path d="M123.897 50.0339H123.647V47.8846H125.794V48.135H123.897V50.0339Z" fill="#79A1FF"/>
<path d="M140.248 50.0331H139.997V48.1359H138.098V47.8854H140.248V50.0331Z" fill="#79A1FF"/>
<path d="M140.248 53.2424H139.997V59.1287H140.248V53.2424Z" fill="#79A1FF"/>
<path d="M123.896 53.2424H123.645V59.1287H123.896V53.2424Z" fill="#79A1FF"/>
<path d="M131.959 59.8897C131.452 59.8897 131.039 59.4769 131.039 58.9697C131.039 58.4626 131.452 58.05 131.959 58.05C132.466 58.05 132.879 58.4626 132.879 58.9697C132.879 59.4772 132.466 59.8897 131.959 59.8897ZM131.959 58.3004C131.59 58.3004 131.289 58.6009 131.289 58.9697C131.289 59.3389 131.59 59.6393 131.959 59.6393C132.328 59.6393 132.628 59.3392 132.628 58.9697C132.628 58.6009 132.328 58.3004 131.959 58.3004Z" fill="#79A1FF"/>
<path d="M165.623 68.8022H153.53V60.1692H165.623V68.8022ZM153.865 68.4667H165.287V60.505H153.865V68.4667Z" fill="#5F8EFF"/>
<path d="M159.576 65.3979L153.591 60.4664L153.804 60.2074L159.576 64.9632L165.349 60.2074L165.562 60.4664L159.576 65.3979Z" fill="#5F8EFF"/>
<path d="M161.232 63.9379L160.988 64.1689L165.329 68.7447L165.573 68.5138L161.232 63.9379Z" fill="#5F8EFF"/>
<path d="M157.919 63.9497L153.582 68.5287L153.825 68.7594L158.163 64.1804L157.919 63.9497Z" fill="#5F8EFF"/>
<path d="M67.5631 81.4327H50.8059L50.8352 81.2835C51.1043 79.9032 52.3224 78.9012 53.7312 78.9012C53.9345 78.9012 54.1371 78.9225 54.3352 78.9642C55.2084 77.305 56.9043 76.2787 58.7852 76.2787C60.388 76.2787 61.8988 77.0477 62.8461 78.3409C63.1911 78.236 63.5502 78.1828 63.9142 78.1828C65.7375 78.1828 67.263 79.4889 67.541 81.2883L67.5631 81.4327ZM51.1146 81.1823H67.2676C66.9525 79.605 65.5362 78.4335 63.9142 78.4335C63.5459 78.4335 63.1833 78.4918 62.8369 78.6068L62.7483 78.6362L62.6949 78.5603C61.7987 77.2886 60.3374 76.5294 58.7849 76.5294C56.9667 76.5294 55.33 77.5391 54.5138 79.1643L54.4689 79.2534L54.372 79.2296C54.1633 79.1781 53.9477 79.1519 53.7312 79.1519C52.4929 79.1519 51.4162 79.9969 51.1146 81.1823Z" fill="#79A1FF"/>
<path d="M70.9079 93.8314H60.3144V80.2841H60.5645V93.5813H70.9079V93.8314Z" fill="#79A1FF"/>
<path d="M60.4397 80.4092C59.932 80.4092 59.5197 79.9966 59.5197 79.4892C59.5197 78.982 59.9323 78.5692 60.4397 78.5692C60.9469 78.5692 61.3594 78.9817 61.3594 79.4892C61.3594 79.9966 60.9469 80.4092 60.4397 80.4092ZM60.4397 78.8199C60.0703 78.8199 59.7701 79.1203 59.7701 79.4892C59.7701 79.8583 60.0706 80.1585 60.4397 80.1585C60.8089 80.1585 61.109 79.858 61.109 79.4892C61.1087 79.1203 60.8089 78.8199 60.4397 78.8199Z" fill="#79A1FF"/>
<path d="M102.04 55.6241H92.6805V46.2648H102.04V55.6241ZM93.0517 55.2529H101.668V46.6362H93.0517V55.2529Z" fill="#5F8EFF"/>
<path d="M97.5456 48.8158H97.1744V53.1783H97.5456V48.8158Z" fill="#5F8EFF"/>
<path d="M99.5408 50.8113H95.1789V51.1825H99.5408V50.8113Z" fill="#5F8EFF"/>
<path d="M80.707 68.0472L80.5644 67.6746C80.4368 67.658 80.3114 67.6292 80.1895 67.5887L79.8988 67.8615L79.055 67.2609L79.2178 66.8967C79.1393 66.7949 79.0711 66.6856 79.0133 66.5706L78.6143 66.558L78.4427 65.5365L78.8153 65.3939C78.8317 65.266 78.8607 65.1406 78.9012 65.019L78.6284 64.7283L79.229 63.8842L79.5929 64.047C79.695 63.9688 79.804 63.9003 79.9193 63.8428L79.9316 63.4441L80.9531 63.2722L81.096 63.6445C81.2234 63.6611 81.3493 63.6899 81.4709 63.7304L81.7621 63.4576L82.6059 64.0582L82.4432 64.4224C82.5214 64.5242 82.5896 64.6335 82.6473 64.7488L83.0464 64.7611L83.218 65.7826L82.846 65.9252C82.8288 66.0529 82.8 66.1785 82.7595 66.3004L83.0329 66.5911L82.4317 67.4352L82.0677 67.2724C81.9663 67.3506 81.857 67.4191 81.742 67.4766L81.7291 67.8753L80.707 68.0472ZM80.1231 67.2604L80.2065 67.2923C80.3574 67.3503 80.5164 67.3866 80.6791 67.4004L80.768 67.4078L80.8901 67.7273L81.4513 67.633L81.4623 67.2911L81.5439 67.2546C81.6926 67.1882 81.8303 67.1019 81.9542 66.9976L82.0226 66.9401L82.3348 67.0795L82.6646 66.6158L82.4306 66.3665L82.4625 66.2831C82.5208 66.1325 82.5568 65.9735 82.5712 65.8108L82.5789 65.7219L82.8978 65.6L82.8035 65.0388L82.4616 65.0279L82.4251 64.9463C82.359 64.7979 82.2724 64.6596 82.1681 64.5357L82.1106 64.4673L82.25 64.1556L81.7869 63.8256L81.5373 64.0593L81.4539 64.0274C81.3024 63.9693 81.1437 63.9331 80.9819 63.9193L80.893 63.9116L80.7705 63.5924L80.2096 63.6867L80.1987 64.0286L80.1171 64.0651C79.9684 64.1315 79.8301 64.2177 79.7059 64.3221L79.6381 64.3793L79.3259 64.2402L78.9958 64.7039L79.2298 64.9532L79.1976 65.0365C79.1401 65.1872 79.1033 65.3462 79.0895 65.5089L79.0818 65.5977L78.7626 65.7199L78.8575 66.2811L79.1994 66.2923L79.2356 66.3737C79.3017 66.5223 79.3885 66.6606 79.4929 66.7845L79.5501 66.853L79.4113 67.1649L79.8744 67.4947L80.1231 67.2604ZM80.8278 66.7863C80.5958 66.7863 80.3701 66.7147 80.1774 66.5775C79.6714 66.2176 79.5527 65.5126 79.9126 65.0069C80.2726 64.5009 80.9776 64.3822 81.4833 64.7421C81.7285 64.9167 81.8912 65.176 81.941 65.4727C81.9907 65.7694 81.9223 66.0678 81.7478 66.3128C81.5732 66.558 81.3142 66.7204 81.0172 66.7705C80.9543 66.7808 80.8907 66.7863 80.8278 66.7863ZM80.8315 64.8186C80.5684 64.8186 80.3088 64.9417 80.145 65.172C80.0147 65.3548 79.9635 65.5779 80.0009 65.7996C80.0383 66.0209 80.1596 66.215 80.3427 66.345C80.5256 66.4755 80.7484 66.5264 80.9704 66.4893C81.1914 66.4519 81.3858 66.3306 81.5157 66.1474C81.6463 65.9646 81.6974 65.7418 81.6601 65.5201C81.6227 65.2987 81.5014 65.1047 81.3182 64.9744C81.1702 64.8692 81 64.8186 80.8315 64.8186Z" fill="#5F8EFF"/>
<path d="M72.7933 69.2389L72.4747 68.4075C72.1335 68.3692 71.7982 68.2925 71.476 68.1789L70.8274 68.7878L69.0653 67.5341L69.4281 66.7216C69.2151 66.4539 69.0325 66.1627 68.8847 65.8528L67.9949 65.8249L67.6355 63.6922L68.467 63.3742C68.5052 63.033 68.5823 62.6977 68.6958 62.3752L68.0869 61.7266L69.3404 59.9648L70.1532 60.3276C70.4205 60.1143 70.7121 59.932 71.022 59.7839L71.0499 58.8941L73.1823 58.5347L73.5008 59.3662C73.8418 59.4047 74.1764 59.4815 74.4996 59.5953L75.1482 58.9864L76.91 60.2402L76.5472 61.0524C76.7605 61.32 76.9428 61.6113 77.0911 61.9215L77.9806 61.9494L78.3403 64.082L77.5089 64.4C77.4703 64.7416 77.3936 65.0765 77.2797 65.3991L77.8889 66.0477L76.6349 67.8098L75.823 67.4469C75.5556 67.6603 75.2641 67.8425 74.9541 67.9906L74.9262 68.8804L72.7933 69.2389ZM71.388 67.7396L71.4992 67.7822C71.8603 67.9205 72.2396 68.0073 72.6265 68.0406L72.7453 68.051L73.0368 68.8126L74.5554 68.5567L74.581 67.7416L74.6896 67.693C75.0447 67.5349 75.3747 67.3285 75.6703 67.0795L75.7614 67.003L76.5058 67.3351L77.3985 66.0805L76.841 65.4862L76.8835 65.3749C77.0218 65.0141 77.1089 64.6346 77.142 64.2476L77.1521 64.1289L77.9139 63.8374L77.6578 62.3188L76.8427 62.2932L76.7944 62.1843C76.636 61.8292 76.4293 61.4994 76.1809 61.2042L76.1041 61.113L76.4362 60.3693L75.1818 59.4763L74.5876 60.0338L74.4766 59.9912C74.1155 59.8532 73.7363 59.7661 73.3493 59.733L73.2303 59.723L72.939 58.9614L71.4205 59.2173L71.3943 60.0323L71.2856 60.0809C70.9311 60.239 70.6008 60.4455 70.305 60.6944L70.2138 60.7709L69.4698 60.4388L68.5771 61.6932L69.1346 62.2875L69.0917 62.3987C68.9534 62.7593 68.8666 63.1388 68.8333 63.5257L68.8232 63.6445L68.0619 63.936L68.3178 65.4546L69.1328 65.4802L69.1811 65.5888C69.3395 65.9436 69.546 66.2737 69.7949 66.5695L69.8711 66.6606L69.5391 67.4044L70.7937 68.2974L71.388 67.7396ZM72.9845 66.3452C72.4911 66.3452 71.9935 66.1975 71.5616 65.8907C70.4568 65.1041 70.1977 63.5657 70.984 62.4605C71.7704 61.3557 73.3088 61.0966 74.4139 61.883C75.5191 62.6693 75.7784 64.208 74.9921 65.3128C74.5125 65.9859 73.7538 66.3452 72.9845 66.3452ZM72.9905 61.8079C72.3399 61.8079 71.6985 62.1118 71.2937 62.6808C70.9714 63.1336 70.8449 63.6844 70.9372 64.2321C71.0298 64.7795 71.3296 65.2588 71.7819 65.5808C72.7159 66.2458 74.0169 66.0264 74.6819 65.0923C75.0039 64.6401 75.1304 64.0889 75.0384 63.5413C74.9458 62.9936 74.6459 62.5146 74.1934 62.1926C73.8283 61.9327 73.4077 61.8079 72.9905 61.8079Z" fill="#5F8EFF"/>
<path d="M37.9471 82.2C34.9445 82.2 32.5013 79.7568 32.5013 76.7542H32.7931C32.7931 79.5961 35.1052 81.9082 37.9471 81.9082C40.7891 81.9082 43.1012 79.5964 43.1012 76.7542C43.1012 73.9125 40.7891 71.6004 37.9471 71.6004V71.3086C40.9498 71.3086 43.393 73.7515 43.393 76.7542C43.393 79.7568 40.9498 82.2 37.9471 82.2ZM37.9471 81.4427C35.3617 81.4427 33.2589 79.3394 33.2589 76.7539C33.2589 74.1687 35.3619 72.0653 37.9471 72.0653C40.5323 72.0653 42.6357 74.1687 42.6357 76.7539H42.3436C42.3436 74.3297 40.3713 72.3571 37.9469 72.3571C35.5224 72.3571 33.5501 74.3294 33.5501 76.7539C33.5501 79.1784 35.5221 81.1506 37.9469 81.1506V81.4427H37.9471Z" fill="#79A1FF"/>
<path d="M37.2798 78.5582L35.3156 76.594L35.5224 76.3876L37.2798 78.1454L40.3722 75.0533L40.5786 75.2595L37.2798 78.5582Z" fill="#79A1FF"/>
<path d="M110.9 66.6644L109.66 65.425H103.734V60.1594H110.899V66.6644H110.9ZM103.997 65.1625H109.769L110.637 66.0304V60.4219H103.997V65.1625Z" fill="#5F8EFF"/>
<path d="M175.236 102.449H165.541V102.276H175.063V96.6463H175.236V102.449Z" fill="#79A1FF"/>
<path d="M173.572 90.5826H168.936V85.9467H173.572V90.5826ZM169.091 90.428H173.417V86.1014H169.091V90.428Z" fill="#79A1FF"/>
<path d="M185.11 87.6464H174.5V86.5131H185.11V87.6464ZM174.654 87.492H184.955V86.6677H174.654V87.492Z" fill="#79A1FF"/>
<path d="M185.11 92.9163H168.936V91.7832H185.11V92.9163ZM169.091 92.7619H184.955V91.9376H169.091V92.7619Z" fill="#79A1FF"/>
<path d="M179.238 95.0926H168.936V93.9593H179.238V95.0926ZM169.091 94.9383H179.083V94.114H169.091V94.9383Z" fill="#79A1FF"/>
<path d="M181.685 89.8081H174.5V88.6748H181.685V89.8081ZM174.654 89.6537H181.53V88.8294H174.654V89.6537Z" fill="#79A1FF"/>
<path d="M186.951 97.5571H167.095V83.4822H186.951V97.5571ZM167.25 97.4024H186.797V83.6366H167.25V97.4024Z" fill="#79A1FF"/>
<path d="M175.15 96.7627C174.799 96.7627 174.514 96.4775 174.514 96.1268C174.514 95.7763 174.799 95.4908 175.15 95.4908C175.5 95.4908 175.786 95.776 175.786 96.1268C175.786 96.4775 175.5 96.7627 175.15 96.7627ZM175.15 95.6642C174.895 95.6642 174.687 95.8718 174.687 96.1268C174.687 96.3818 174.895 96.5894 175.15 96.5894C175.405 96.5894 175.612 96.3818 175.612 96.1268C175.612 95.8718 175.405 95.6642 175.15 95.6642Z" fill="#79A1FF"/>
<path d="M159.259 89.855C159.253 89.2667 158.84 88.7849 158.296 88.6549C158.195 88.6302 158.09 88.617 157.985 88.6193L154.735 88.661C154.281 86.5872 153.43 84.6567 152.274 82.9527L154.551 80.6159C155.036 80.1228 155.025 79.321 154.528 78.8394L151.544 75.927C151.051 75.4455 150.253 75.4601 149.766 75.9552L147.496 78.292C145.761 77.1745 143.815 76.3784 141.726 75.9808L141.684 72.7269C141.674 72.0337 141.103 71.4768 140.41 71.4855L136.243 71.5386C135.55 71.549 134.997 72.1202 135.006 72.8131L135.047 76.063C132.97 76.5196 131.039 77.364 129.335 78.5217L127.004 76.2493C126.509 75.7678 125.707 75.7787 125.226 76.2717L122.319 79.2557C121.834 79.7528 121.849 80.5506 122.342 81.0322L124.678 83.3043C123.565 85.0368 122.767 86.9889 122.365 89.0779L119.115 89.1195C118.422 89.1299 117.863 89.7012 117.872 90.394L117.927 94.5605C117.935 95.2537 118.508 95.8065 119.201 95.7982L122.455 95.7565C122.91 97.8282 123.756 99.7608 124.914 101.465L123.41 103.006L122.636 103.796C122.154 104.294 122.165 105.092 122.66 105.578L125.646 108.484C126.141 108.97 126.939 108.955 127.421 108.456L129.697 106.125C131.429 107.237 133.378 108.033 135.466 108.435L135.508 111.685C135.517 112.378 136.09 112.935 136.782 112.926L140.949 112.873C141.64 112.864 142.195 112.291 142.185 111.598L142.143 108.344C144.221 107.894 146.147 107.047 147.851 105.889L150.182 108.162C150.681 108.649 151.479 108.638 151.964 108.139L154.871 105.157C155.358 104.662 155.344 103.865 154.845 103.379L152.508 101.103C153.621 99.3686 154.416 97.422 154.817 95.3373L158.073 95.2956C158.764 95.287 159.323 94.714 159.315 94.0211L159.259 89.855ZM138.706 100.77C133.976 100.831 130.094 97.0471 130.033 92.3174C129.972 87.5895 133.755 83.7056 138.485 83.6447C143.213 83.5837 147.097 87.3672 147.158 92.0969C147.219 96.8263 143.435 100.709 138.706 100.77Z" fill="#A3BEFF"/>
<path d="M161.039 89.8481C161.032 89.2599 160.619 88.778 160.075 88.6481C159.974 88.6233 159.869 88.6101 159.764 88.6124L156.514 88.6541C156.06 86.5804 155.209 84.6498 154.053 82.9458L156.33 80.609C156.815 80.1159 156.804 79.3141 156.307 78.8325L153.323 75.9201C152.83 75.4386 152.032 75.4532 151.545 75.9483L149.274 78.2851C147.54 77.1676 145.593 76.3715 143.505 75.9739L143.463 72.72C143.453 72.0268 142.881 71.4699 142.189 71.4786L138.022 71.5317C137.329 71.5421 136.776 72.1134 136.784 72.8062L136.826 76.0561C134.749 76.5127 132.818 77.3571 131.114 78.5148L128.783 76.2424C128.288 75.7609 127.486 75.7718 127.005 76.2649L124.098 79.2488C123.613 79.7459 123.627 80.5437 124.12 81.0253L126.457 83.2974C125.344 85.0299 124.546 86.982 124.144 89.071L120.894 89.1127C120.201 89.123 119.642 89.6943 119.651 90.3871L119.706 94.5536C119.714 95.2467 120.287 95.7996 120.98 95.7913L124.234 95.7496C124.688 97.8213 125.535 99.7539 126.693 101.458L125.188 102.999L124.415 103.789C123.933 104.287 123.944 105.086 124.439 105.571L127.425 108.478C127.92 108.963 128.718 108.948 129.199 108.449L131.475 106.118C133.208 107.23 135.156 108.026 137.245 108.428L137.287 111.678C137.295 112.371 137.868 112.928 138.561 112.919L142.728 112.866C143.419 112.857 143.974 112.284 143.963 111.591L143.922 108.337C145.999 107.887 147.926 107.041 149.63 105.883L151.961 108.155C152.46 108.642 153.258 108.631 153.743 108.133L156.65 105.151C157.137 104.655 157.122 103.858 156.623 103.372L154.287 101.096C155.4 99.3617 156.194 97.4151 156.596 95.3304L159.852 95.2887C160.543 95.2801 161.102 94.7071 161.093 94.0142L161.039 89.8481ZM140.485 100.763C135.755 100.824 131.873 97.0402 131.812 92.3105C131.751 87.5826 135.534 83.6987 140.264 83.6378C144.992 83.5768 148.876 87.3603 148.937 92.09C148.998 96.8194 145.214 100.702 140.485 100.763Z" fill="#79A1FF"/>
<path d="M134.687 79.5213V143.749C134.687 145.589 133.194 147.085 131.351 147.085H92.2156H61.2956C59.4547 147.085 57.9614 145.592 57.9614 143.749V79.5213C57.9614 77.6779 59.457 76.1849 61.2982 76.1849H131.351C133.194 76.1849 134.687 77.6779 134.687 79.5213Z" fill="#79A1FF"/>
<path d="M134.687 79.5214V91.3367H57.9617V79.5188C57.9617 77.6779 59.455 76.1846 61.2958 76.1846H131.351C133.194 76.1849 134.687 77.6779 134.687 79.5214Z" fill="#2D9ED5"/>
<path d="M66.6543 87.0711C68.2669 87.0711 69.5741 85.7639 69.5741 84.1513C69.5741 82.5387 68.2669 81.2314 66.6543 81.2314C65.0417 81.2314 63.7344 82.5387 63.7344 84.1513C63.7344 85.7639 65.0417 87.0711 66.6543 87.0711Z" fill="#667DA6"/>
<path d="M75.1039 87.0711C76.7165 87.0711 78.0238 85.7639 78.0238 84.1513C78.0238 82.5387 76.7165 81.2314 75.1039 81.2314C73.4913 81.2314 72.1841 82.5387 72.1841 84.1513C72.1841 85.7639 73.4913 87.0711 75.1039 87.0711Z" fill="#667DA6"/>
<path d="M83.5535 87.0711C85.1661 87.0711 86.4734 85.7639 86.4734 84.1513C86.4734 82.5387 85.1661 81.2314 83.5535 81.2314C81.9409 81.2314 80.6337 82.5387 80.6337 84.1513C80.6337 85.7639 81.9409 87.0711 83.5535 87.0711Z" fill="#667DA6"/>
<path d="M66.2636 86.6804C67.8762 86.6804 69.1834 85.3731 69.1834 83.7606C69.1834 82.148 67.8762 80.8407 66.2636 80.8407C64.651 80.8407 63.3437 82.148 63.3437 83.7606C63.3437 85.3731 64.651 86.6804 66.2636 86.6804Z" fill="white"/>
<path d="M74.7132 86.6804C76.3258 86.6804 77.6331 85.3731 77.6331 83.7606C77.6331 82.148 76.3258 80.8407 74.7132 80.8407C73.1006 80.8407 71.7934 82.148 71.7934 83.7606C71.7934 85.3731 73.1006 86.6804 74.7132 86.6804Z" fill="white"/>
<path d="M83.1628 86.6804C84.7754 86.6804 86.0827 85.3731 86.0827 83.7606C86.0827 82.148 84.7754 80.8407 83.1628 80.8407C81.5502 80.8407 80.243 82.148 80.243 83.7606C80.243 85.3731 81.5502 86.6804 83.1628 86.6804Z" fill="white"/>
<path d="M64.0415 98.0013C64.9647 98.0013 65.713 97.2529 65.713 96.3298C65.713 95.4066 64.9647 94.6582 64.0415 94.6582C63.1183 94.6582 62.37 95.4066 62.37 96.3298C62.37 97.2529 63.1183 98.0013 64.0415 98.0013Z" fill="#A3BEFF"/>
<path d="M104.857 96.3295C104.857 97.2529 104.109 98.001 103.185 98.001H72.1088C71.1853 98.001 70.4372 97.2526 70.4372 96.3295C70.4372 95.4063 71.1856 94.658 72.1088 94.658H103.185C104.109 94.6577 104.857 95.406 104.857 96.3295Z" fill="#A3BEFF"/>
<path d="M64.0415 104.786C64.9647 104.786 65.713 104.038 65.713 103.114C65.713 102.191 64.9647 101.443 64.0415 101.443C63.1183 101.443 62.37 102.191 62.37 103.114C62.37 104.038 63.1183 104.786 64.0415 104.786Z" fill="#A3BEFF"/>
<path d="M104.857 103.114C104.857 104.038 104.109 104.786 103.185 104.786H72.1088C71.1853 104.786 70.4372 104.037 70.4372 103.114C70.4372 102.191 71.1856 101.442 72.1088 101.442H103.185C104.109 101.442 104.857 102.191 104.857 103.114Z" fill="#A3BEFF"/>
<path d="M64.0415 111.571C64.9647 111.571 65.713 110.822 65.713 109.899C65.713 108.976 64.9647 108.228 64.0415 108.228C63.1183 108.228 62.37 108.976 62.37 109.899C62.37 110.822 63.1183 111.571 64.0415 111.571Z" fill="#A3BEFF"/>
<path d="M104.857 109.899C104.857 110.822 104.109 111.57 103.185 111.57H72.1088C71.1853 111.57 70.4372 110.822 70.4372 109.899C70.4372 108.975 71.1856 108.227 72.1088 108.227H103.185C104.109 108.227 104.857 108.975 104.857 109.899Z" fill="#A3BEFF"/>
<path d="M64.0415 118.355C64.9647 118.355 65.713 117.607 65.713 116.684C65.713 115.761 64.9647 115.012 64.0415 115.012C63.1183 115.012 62.37 115.761 62.37 116.684C62.37 117.607 63.1183 118.355 64.0415 118.355Z" fill="#A3BEFF"/>
<path d="M104.857 116.684C104.857 117.607 104.109 118.355 103.185 118.355H72.1088C71.1853 118.355 70.4372 117.607 70.4372 116.684C70.4372 115.76 71.1856 115.012 72.1088 115.012H103.185C104.109 115.012 104.857 115.76 104.857 116.684Z" fill="#A3BEFF"/>
<path d="M153.424 98.258V162.485C153.424 164.326 151.931 165.822 150.087 165.822H110.952H80.0322C78.1914 165.822 76.6981 164.328 76.6981 162.485V98.258C76.6981 96.4146 78.1937 94.9216 80.0348 94.9216H150.087C151.931 94.9213 153.424 96.4146 153.424 98.258Z" fill="white"/>
<path d="M153.424 98.258V110.073H76.6981V98.2554C76.6981 96.4146 78.1914 94.9213 80.0322 94.9213H150.087C151.931 94.9213 153.424 96.4146 153.424 98.258Z" fill="#B1B5C4"/>
<path d="M85.3907 105.808C87.0032 105.808 88.3105 104.501 88.3105 102.888C88.3105 101.275 87.0032 99.9681 85.3907 99.9681C83.7781 99.9681 82.4708 101.275 82.4708 102.888C82.4708 104.501 83.7781 105.808 85.3907 105.808Z" fill="#777E91"/>
<path d="M93.8403 105.808C95.4529 105.808 96.7601 104.501 96.7601 102.888C96.7601 101.275 95.4529 99.9681 93.8403 99.9681C92.2277 99.9681 90.9204 101.275 90.9204 102.888C90.9204 104.501 92.2277 105.808 93.8403 105.808Z" fill="#777E91"/>
<path d="M102.29 105.808C103.902 105.808 105.21 104.501 105.21 102.888C105.21 101.275 103.902 99.9681 102.29 99.9681C100.677 99.9681 99.3701 101.275 99.3701 102.888C99.3701 104.501 100.677 105.808 102.29 105.808Z" fill="#777E91"/>
<path d="M84.9999 105.417C86.6125 105.417 87.9198 104.11 87.9198 102.497C87.9198 100.885 86.6125 99.5774 84.9999 99.5774C83.3874 99.5774 82.0801 100.885 82.0801 102.497C82.0801 104.11 83.3874 105.417 84.9999 105.417Z" fill="white"/>
<path d="M93.4496 105.417C95.0621 105.417 96.3694 104.11 96.3694 102.497C96.3694 100.885 95.0621 99.5774 93.4496 99.5774C91.837 99.5774 90.5297 100.885 90.5297 102.497C90.5297 104.11 91.837 105.417 93.4496 105.417Z" fill="white"/>
<path d="M101.899 105.417C103.512 105.417 104.819 104.11 104.819 102.497C104.819 100.885 103.512 99.5774 101.899 99.5774C100.287 99.5774 98.9793 100.885 98.9793 102.497C98.9793 104.11 100.287 105.417 101.899 105.417Z" fill="white"/>
<path d="M149.295 116.685H80.8275V147.778H149.295V116.685Z" fill="#E7E8E8"/>
<path d="M149.295 117.305L116.427 132.232L149.295 147.159V147.778H147.927L115.062 132.851L82.1948 147.778H80.8275V147.159L113.695 132.232L80.8275 117.305V116.685H82.1948L115.062 131.612L147.927 116.685H149.295V117.305Z" fill="#D2D5D8"/>
<path d="M108.934 179.982C108.934 179.723 109.145 179.512 109.405 179.512C109.512 179.512 109.61 179.547 109.689 179.606C109.631 179.529 109.595 179.431 109.595 179.325C109.595 179.063 109.805 178.854 110.066 178.854C110.326 178.854 110.537 179.063 110.537 179.325C110.537 179.585 110.326 179.794 110.066 179.794C109.96 179.794 109.862 179.76 109.783 179.7C109.841 179.779 109.875 179.877 109.875 179.982C109.875 180.242 109.666 180.453 109.404 180.453C109.145 180.453 108.934 180.242 108.934 179.982ZM107.618 179.982C107.618 179.723 107.827 179.512 108.086 179.512C108.348 179.512 108.557 179.723 108.557 179.982C108.557 180.242 108.348 180.453 108.086 180.453C107.827 180.453 107.618 180.242 107.618 179.982ZM106.297 179.982C106.297 179.723 106.508 179.512 106.77 179.512C107.028 179.512 107.239 179.723 107.239 179.982C107.239 180.242 107.028 180.453 106.77 180.453C106.508 180.453 106.297 180.242 106.297 179.982ZM104.979 179.982C104.979 179.723 105.19 179.512 105.452 179.512C105.709 179.512 105.92 179.723 105.92 179.982C105.92 180.242 105.709 180.453 105.452 180.453C105.19 180.453 104.979 180.242 104.979 179.982ZM103.661 179.982C103.661 179.723 103.872 179.512 104.132 179.512C104.392 179.512 104.604 179.723 104.604 179.982C104.604 180.242 104.392 180.453 104.132 180.453C103.871 180.453 103.661 180.242 103.661 179.982ZM102.342 179.982C102.342 179.723 102.553 179.512 102.813 179.512C103.073 179.512 103.286 179.723 103.286 179.982C103.286 180.242 103.073 180.453 102.813 180.453C102.553 180.453 102.342 180.242 102.342 179.982ZM101.024 179.982C101.024 179.723 101.235 179.512 101.495 179.512C101.755 179.512 101.966 179.723 101.966 179.982C101.966 180.242 101.755 180.453 101.495 180.453C101.235 180.453 101.024 180.242 101.024 179.982ZM99.7076 179.982C99.7076 179.723 99.9166 179.512 100.176 179.512C100.438 179.512 100.647 179.723 100.647 179.982C100.647 180.242 100.438 180.453 100.176 180.453C99.9166 180.453 99.7076 180.242 99.7076 179.982ZM98.3894 179.982C98.3894 179.723 98.5984 179.512 98.8583 179.512C99.1182 179.512 99.3292 179.723 99.3292 179.982C99.3292 180.242 99.1182 180.453 98.8583 180.453C98.5984 180.453 98.3894 180.242 98.3894 179.982ZM97.0692 179.982C97.0692 179.723 97.2802 179.512 97.5418 179.512C97.7997 179.512 98.0108 179.723 98.0108 179.982C98.0108 180.242 97.7997 180.453 97.5418 180.453C97.2799 180.453 97.0692 180.242 97.0692 179.982ZM95.7507 179.982C95.7507 179.723 95.9617 179.512 96.2216 179.512C96.4815 179.512 96.6926 179.723 96.6926 179.982C96.6926 180.242 96.4815 180.453 96.2216 180.453C95.9617 180.453 95.7507 180.242 95.7507 179.982ZM94.4325 179.982C94.4325 179.723 94.6435 179.512 94.9035 179.512C95.1633 179.512 95.3761 179.723 95.3761 179.982C95.3761 180.242 95.1633 180.453 94.9035 180.453C94.6435 180.453 94.4325 180.242 94.4325 179.982ZM93.114 179.982C93.114 179.723 93.3251 179.512 93.585 179.512C93.8449 179.512 94.0559 179.723 94.0559 179.982C94.0559 180.242 93.8449 180.453 93.585 180.453C93.3251 180.453 93.114 180.242 93.114 179.982ZM91.7959 179.982C91.7959 179.723 92.0069 179.512 92.2668 179.512C92.5267 179.512 92.7377 179.723 92.7377 179.982C92.7377 180.242 92.5267 180.453 92.2668 180.453C92.0069 180.453 91.7959 180.242 91.7959 179.982ZM90.4794 179.982C90.4794 179.723 90.6884 179.512 90.9483 179.512C91.2102 179.512 91.4192 179.723 91.4192 179.982C91.4192 180.242 91.2102 180.453 90.9483 180.453C90.6884 180.453 90.4794 180.242 90.4794 179.982ZM89.1592 179.982C89.1592 179.723 89.3702 179.512 89.6301 179.512C89.89 179.512 90.101 179.723 90.101 179.982C90.101 180.242 89.89 180.453 89.6301 180.453C89.3702 180.453 89.1592 180.242 89.1592 179.982ZM87.841 179.982C87.841 179.723 88.052 179.512 88.3137 179.512C88.5716 179.512 88.7826 179.723 88.7826 179.982C88.7826 180.242 88.5716 180.453 88.3137 180.453C88.0518 180.453 87.841 180.242 87.841 179.982ZM86.5225 179.982C86.5225 179.723 86.7336 179.512 86.9935 179.512C87.2534 179.512 87.4661 179.723 87.4661 179.982C87.4661 180.242 87.2534 180.453 86.9935 180.453C86.7336 180.453 86.5225 180.242 86.5225 179.982ZM85.2044 179.982C85.2044 179.723 85.4154 179.512 85.6753 179.512C85.9352 179.512 86.1479 179.723 86.1479 179.982C86.1479 180.242 85.9352 180.453 85.6753 180.453C85.4154 180.453 85.2044 180.242 85.2044 179.982ZM83.8859 179.982C83.8859 179.723 84.0969 179.512 84.3568 179.512C84.6167 179.512 84.8277 179.723 84.8277 179.982C84.8277 180.242 84.6167 180.453 84.3568 180.453C84.0969 180.453 83.8859 180.242 83.8859 179.982ZM82.5697 179.982C82.5697 179.723 82.7787 179.512 83.0386 179.512C83.3005 179.512 83.5095 179.723 83.5095 179.982C83.5095 180.242 83.3005 180.453 83.0386 180.453C82.7787 180.453 82.5697 180.242 82.5697 179.982ZM81.2512 179.982C81.2512 179.723 81.4602 179.512 81.7201 179.512C81.982 179.512 82.1911 179.723 82.1911 179.982C82.1911 180.242 81.982 180.453 81.7201 180.453C81.4602 180.453 81.2512 180.242 81.2512 179.982ZM79.931 179.982C79.931 179.723 80.1421 179.512 80.4037 179.512C80.6616 179.512 80.8726 179.723 80.8726 179.982C80.8726 180.242 80.6616 180.453 80.4037 180.453C80.1421 180.453 79.931 180.242 79.931 179.982ZM78.6128 179.982C78.6128 179.723 78.8239 179.512 79.0855 179.512C79.3434 179.512 79.5544 179.723 79.5544 179.982C79.5544 180.242 79.3434 180.453 79.0855 180.453C78.8239 180.453 78.6128 180.242 78.6128 179.982ZM77.2944 179.982C77.2944 179.723 77.5054 179.512 77.7653 179.512C78.0252 179.512 78.2379 179.723 78.2379 179.982C78.2379 180.242 78.0252 180.453 77.7653 180.453C77.5054 180.453 77.2944 180.242 77.2944 179.982ZM75.9762 179.982C75.9762 179.723 76.1872 179.512 76.4471 179.512C76.707 179.512 76.918 179.723 76.918 179.982C76.918 180.242 76.707 180.453 76.4471 180.453C76.1872 180.453 75.9762 180.242 75.9762 179.982ZM74.658 179.982C74.658 179.723 74.869 179.512 75.1289 179.512C75.3888 179.512 75.5998 179.723 75.5998 179.982C75.5998 180.242 75.3888 180.453 75.1289 180.453C74.8687 180.453 74.658 180.242 74.658 179.982ZM73.3415 179.982C73.3415 179.723 73.5505 179.512 73.8104 179.512C74.0723 179.512 74.2814 179.723 74.2814 179.982C74.2814 180.242 74.0723 180.453 73.8104 180.453C73.5505 180.453 73.3415 180.242 73.3415 179.982ZM72.0213 179.982C72.0213 179.723 72.2324 179.512 72.4923 179.512C72.7522 179.512 72.9632 179.723 72.9632 179.982C72.9632 180.242 72.7522 180.453 72.4923 180.453C72.2324 180.453 72.0213 180.242 72.0213 179.982ZM70.7029 179.982C70.7029 179.723 70.9139 179.512 71.1755 179.512C71.4334 179.512 71.6444 179.723 71.6444 179.982C71.6444 180.242 71.4334 180.453 71.1755 180.453C70.9139 180.453 70.7029 180.242 70.7029 179.982ZM69.3847 179.982C69.3847 179.723 69.5957 179.512 69.8556 179.512C70.1155 179.512 70.3282 179.723 70.3282 179.982C70.3282 180.242 70.1155 180.453 69.8556 180.453C69.5957 180.453 69.3847 180.242 69.3847 179.982ZM68.0665 179.982C68.0665 179.723 68.2775 179.512 68.5374 179.512C68.7973 179.512 69.0101 179.723 69.0101 179.982C69.0101 180.242 68.7973 180.453 68.5374 180.453C68.2772 180.453 68.0665 180.242 68.0665 179.982ZM66.748 179.982C66.748 179.723 66.959 179.512 67.2189 179.512C67.4788 179.512 67.6898 179.723 67.6898 179.982C67.6898 180.242 67.4788 180.453 67.2189 180.453C66.959 180.453 66.748 180.242 66.748 179.982ZM65.4298 179.982C65.4298 179.723 65.6408 179.512 65.9007 179.512C66.1627 179.512 66.3717 179.723 66.3717 179.982C66.3717 180.242 66.1627 180.453 65.9007 180.453C65.6406 180.453 65.4298 180.242 65.4298 179.982ZM65.2432 178.852C65.2432 178.592 65.4522 178.381 65.7142 178.381C65.9741 178.381 66.1831 178.592 66.1831 178.852C66.1831 179.112 65.9741 179.323 65.7142 179.323C65.4522 179.323 65.2432 179.112 65.2432 178.852ZM109.595 178.007C109.595 177.745 109.806 177.536 110.066 177.536C110.326 177.536 110.537 177.745 110.537 178.007C110.537 178.267 110.326 178.478 110.066 178.478C109.806 178.478 109.595 178.267 109.595 178.007ZM65.2432 177.534C65.2432 177.274 65.4522 177.063 65.7142 177.063C65.9741 177.063 66.1831 177.274 66.1831 177.534C66.1831 177.794 65.9741 178.005 65.7142 178.005C65.4522 178.005 65.2432 177.794 65.2432 177.534ZM109.595 176.689C109.595 176.427 109.806 176.216 110.066 176.216C110.326 176.216 110.537 176.427 110.537 176.689C110.537 176.948 110.326 177.16 110.066 177.16C109.806 177.159 109.595 176.948 109.595 176.689ZM65.2432 176.216C65.2432 175.956 65.4522 175.745 65.7142 175.745C65.9741 175.745 66.1831 175.956 66.1831 176.216C66.1831 176.476 65.9741 176.687 65.7142 176.687C65.4522 176.687 65.2432 176.476 65.2432 176.216ZM109.595 175.37C109.595 175.11 109.806 174.897 110.066 174.897C110.326 174.897 110.537 175.11 110.537 175.37C110.537 175.63 110.326 175.841 110.066 175.841C109.806 175.841 109.595 175.63 109.595 175.37ZM65.2432 174.897C65.2432 174.638 65.4522 174.427 65.7142 174.427C65.9741 174.427 66.1831 174.638 66.1831 174.897C66.1831 175.157 65.9741 175.368 65.7142 175.368C65.4522 175.368 65.2432 175.157 65.2432 174.897ZM109.595 174.05C109.595 173.79 109.806 173.581 110.066 173.581C110.326 173.581 110.537 173.79 110.537 174.05C110.537 174.312 110.326 174.523 110.066 174.523C109.806 174.523 109.595 174.312 109.595 174.05ZM65.2432 173.579C65.2432 173.319 65.4522 173.108 65.7142 173.108C65.9741 173.108 66.1831 173.319 66.1831 173.579C66.1831 173.839 65.9741 174.05 65.7142 174.05C65.4522 174.05 65.2432 173.839 65.2432 173.579ZM109.595 172.734C109.595 172.472 109.806 172.263 110.066 172.263C110.326 172.263 110.537 172.472 110.537 172.734C110.537 172.994 110.326 173.205 110.066 173.205C109.806 173.204 109.595 172.993 109.595 172.734ZM65.2432 172.261C65.2432 172.001 65.4522 171.79 65.7142 171.79C65.9741 171.79 66.1831 172.001 66.1831 172.261C66.1831 172.521 65.9741 172.732 65.7142 172.732C65.4522 172.732 65.2432 172.521 65.2432 172.261ZM109.595 171.415C109.595 171.153 109.806 170.944 110.066 170.944C110.326 170.944 110.537 171.153 110.537 171.415C110.537 171.675 110.326 171.884 110.066 171.884C109.806 171.884 109.595 171.675 109.595 171.415ZM65.2432 170.943C65.2432 170.683 65.4522 170.472 65.7142 170.472C65.9741 170.472 66.1831 170.683 66.1831 170.943C66.1831 171.203 65.9741 171.414 65.7142 171.414C65.4522 171.414 65.2432 171.203 65.2432 170.943ZM109.595 170.097C109.595 169.835 109.806 169.626 110.066 169.626C110.326 169.626 110.537 169.835 110.537 170.097C110.537 170.357 110.326 170.568 110.066 170.568C109.806 170.568 109.595 170.357 109.595 170.097ZM65.2432 169.624C65.2432 169.365 65.4522 169.154 65.7142 169.154C65.9741 169.154 66.1831 169.365 66.1831 169.624C66.1831 169.884 65.9741 170.095 65.7142 170.095C65.4522 170.095 65.2432 169.884 65.2432 169.624ZM65.2432 168.306C65.2432 168.046 65.4522 167.835 65.7142 167.835C65.9741 167.835 66.1831 168.046 66.1831 168.306C66.1831 168.566 65.9741 168.777 65.7142 168.777C65.4522 168.777 65.2432 168.566 65.2432 168.306ZM65.2432 166.988C65.2432 166.728 65.4522 166.517 65.7142 166.517C65.9741 166.517 66.1831 166.728 66.1831 166.988C66.1831 167.248 65.9741 167.459 65.7142 167.459C65.4522 167.458 65.2432 167.248 65.2432 166.988ZM65.2432 165.669C65.2432 165.409 65.4522 165.198 65.7142 165.198C65.9741 165.198 66.1831 165.409 66.1831 165.669C66.1831 165.929 65.9741 166.14 65.7142 166.14C65.4522 166.14 65.2432 165.929 65.2432 165.669ZM65.2432 164.351C65.2432 164.091 65.4522 163.88 65.7142 163.88C65.9741 163.88 66.1831 164.091 66.1831 164.351C66.1831 164.611 65.9741 164.822 65.7142 164.822C65.4522 164.822 65.2432 164.611 65.2432 164.351ZM65.2432 163.033C65.2432 162.773 65.4522 162.562 65.7142 162.562C65.9741 162.562 66.1831 162.773 66.1831 163.033C66.1831 163.293 65.9741 163.504 65.7142 163.504C65.4522 163.504 65.2432 163.293 65.2432 163.033ZM65.2432 161.714C65.2432 161.455 65.4522 161.244 65.7142 161.244C65.9741 161.244 66.1831 161.455 66.1831 161.714C66.1831 161.974 65.9741 162.185 65.7142 162.185C65.4522 162.185 65.2432 161.974 65.2432 161.714ZM65.2432 160.396C65.2432 160.136 65.4522 159.925 65.7142 159.925C65.9741 159.925 66.1831 160.136 66.1831 160.396C66.1831 160.656 65.9741 160.867 65.7142 160.867C65.4522 160.867 65.2432 160.656 65.2432 160.396ZM65.2432 159.078C65.2432 158.818 65.4522 158.607 65.7142 158.607C65.9741 158.607 66.1831 158.818 66.1831 159.078C66.1831 159.338 65.9741 159.549 65.7142 159.549C65.4522 159.549 65.2432 159.338 65.2432 159.078ZM65.2432 157.76C65.2432 157.5 65.4522 157.289 65.7142 157.289C65.9741 157.289 66.1831 157.5 66.1831 157.76C66.1831 158.02 65.9741 158.231 65.7142 158.231C65.4522 158.231 65.2432 158.02 65.2432 157.76ZM65.2432 156.441C65.2432 156.181 65.4522 155.97 65.7142 155.97C65.9741 155.97 66.1831 156.181 66.1831 156.441C66.1831 156.701 65.9741 156.912 65.7142 156.912C65.4522 156.912 65.2432 156.701 65.2432 156.441ZM65.2432 155.123C65.2432 154.863 65.4522 154.652 65.7142 154.652C65.9741 154.652 66.1831 154.863 66.1831 155.123C66.1831 155.383 65.9741 155.594 65.7142 155.594C65.4522 155.594 65.2432 155.383 65.2432 155.123ZM65.2432 153.805C65.2432 153.545 65.4522 153.334 65.7142 153.334C65.9741 153.334 66.1831 153.545 66.1831 153.805C66.1831 154.065 65.9741 154.276 65.7142 154.276C65.4522 154.275 65.2432 154.065 65.2432 153.805ZM65.2432 152.486C65.2432 152.226 65.4522 152.015 65.7142 152.015C65.9741 152.015 66.1831 152.226 66.1831 152.486C66.1831 152.746 65.9741 152.957 65.7142 152.957C65.4522 152.957 65.2432 152.746 65.2432 152.486ZM65.2432 151.168C65.2432 150.908 65.4522 150.697 65.7142 150.697C65.9741 150.697 66.1831 150.908 66.1831 151.168C66.1831 151.428 65.9741 151.639 65.7142 151.639C65.4522 151.639 65.2432 151.428 65.2432 151.168ZM65.2432 149.85C65.2432 149.59 65.4522 149.379 65.7142 149.379C65.9741 149.379 66.1831 149.59 66.1831 149.85C66.1831 150.11 65.9741 150.321 65.7142 150.321C65.4522 150.321 65.2432 150.11 65.2432 149.85Z" fill="#79A1FF"/>
<path d="M169.898 102.11H156.462C155.285 102.11 154.321 103.066 154.321 104.251V161.472C154.321 162.657 155.285 163.613 156.462 163.613H169.898C171.082 163.613 172.039 162.657 172.039 161.472V104.251C172.038 103.066 171.082 102.11 169.898 102.11ZM163.18 109.31C162.054 109.31 161.139 108.395 161.139 107.27C161.139 106.144 162.054 105.229 163.18 105.229C164.306 105.229 165.22 106.144 165.22 107.27C165.22 108.395 164.305 109.31 163.18 109.31Z" fill="#FFDA85"/>
<path d="M167.156 158.232H172.038V159.944H167.156C166.684 159.944 166.301 159.56 166.301 159.086C166.301 158.852 166.396 158.637 166.552 158.483C166.706 158.327 166.919 158.232 167.156 158.232Z" fill="#FFD166"/>
<path d="M167.869 121.288H172.038V122.998H167.869C167.397 122.998 167.014 122.617 167.014 122.143C167.014 121.906 167.109 121.694 167.265 121.537C167.419 121.383 167.632 121.288 167.869 121.288Z" fill="#FFD166"/>
<path d="M167.156 147.676H172.038V149.388H167.156C166.684 149.388 166.301 149.004 166.301 148.533C166.301 148.296 166.396 148.081 166.552 147.927C166.706 147.771 166.919 147.676 167.156 147.676Z" fill="#FFD166"/>
<path d="M167.156 137.119H172.038V138.831H167.156C166.684 138.831 166.301 138.448 166.301 137.977C166.301 137.74 166.396 137.525 166.552 137.371C166.706 137.215 166.919 137.119 167.156 137.119Z" fill="#FFD166"/>
<path d="M167.156 126.564H172.038V128.276H167.156C166.684 128.276 166.301 127.892 166.301 127.421C166.301 127.184 166.396 126.969 166.552 126.815C166.706 126.659 166.919 126.564 167.156 126.564Z" fill="#FFD166"/>
<path d="M167.869 142.398H172.038V144.11H167.869C167.397 144.11 167.014 143.726 167.014 143.255C167.014 143.018 167.109 142.803 167.265 142.649C167.419 142.493 167.632 142.398 167.869 142.398Z" fill="#FFD166"/>
<path d="M167.156 116.01H172.038V117.72H167.156C166.684 117.72 166.301 117.339 166.301 116.865C166.301 116.628 166.396 116.416 166.552 116.262C166.706 116.105 166.919 116.01 167.156 116.01Z" fill="#FFD166"/>
<path d="M172.038 110.732V112.444H167.869C167.397 112.444 167.014 112.061 167.014 111.587C167.014 111.352 167.109 111.137 167.265 110.983C167.419 110.827 167.632 110.732 167.869 110.732H172.038V110.732Z" fill="#FFD166"/>
<path d="M167.869 131.841H172.038V133.554H167.869C167.397 133.554 167.014 133.17 167.014 132.699C167.014 132.462 167.109 132.247 167.265 132.093C167.419 131.937 167.632 131.841 167.869 131.841Z" fill="#FFD166"/>
<path d="M167.869 152.954H172.038V154.666H167.869C167.397 154.666 167.014 154.282 167.014 153.808C167.014 153.572 167.109 153.359 167.265 153.205C167.419 153.049 167.632 152.954 167.869 152.954Z" fill="#FFD166"/>
<path d="M164.093 114.187V159.013C164.093 159.51 163.686 159.917 163.18 159.917C162.683 159.917 162.266 159.51 162.266 159.013V114.187C162.266 113.68 162.683 113.273 163.18 113.273C163.686 113.274 164.093 113.681 164.093 114.187Z" fill="#FFD166"/>
<path d="M82.7704 153.402C83.6935 153.402 84.4419 152.654 84.4419 151.731C84.4419 150.808 83.6935 150.059 82.7704 150.059C81.8472 150.059 81.0988 150.808 81.0988 151.731C81.0988 152.654 81.8472 153.402 82.7704 153.402Z" fill="#F4C258"/>
<path d="M149.295 151.73C149.295 152.654 148.546 153.402 147.623 153.402H90.8373C89.9139 153.402 89.1658 152.654 89.1658 151.73C89.1658 150.807 89.9142 150.059 90.8373 150.059H147.623C148.546 150.059 149.295 150.807 149.295 151.73Z" fill="#D2D5D8"/>
<path d="M82.7704 160.187C83.6935 160.187 84.4419 159.439 84.4419 158.515C84.4419 157.592 83.6935 156.844 82.7704 156.844C81.8472 156.844 81.0988 157.592 81.0988 158.515C81.0988 159.439 81.8472 160.187 82.7704 160.187Z" fill="#4FAADE"/>
<path d="M149.295 158.515C149.295 159.439 148.546 160.187 147.623 160.187H90.8373C89.9139 160.187 89.1658 159.438 89.1658 158.515C89.1658 157.592 89.9142 156.843 90.8373 156.843H147.623C148.546 156.844 149.295 157.592 149.295 158.515Z" fill="#D2D5D8"/>
</svg>
