<svg width="230" height="230" viewBox="0 0 230 230" fill="none" xmlns="http://www.w3.org/2000/svg">
<path d="M213.49 114.998C213.49 117.757 212.312 120.251 210.404 122.059C208.496 123.866 205.866 124.986 202.947 124.986H187.85C185.636 139.762 178.571 153.06 168.235 163.386H174.402C177.81 163.386 180.569 166 180.569 169.228C180.569 170.837 179.882 172.295 178.764 173.353C177.647 174.407 176.108 175.066 174.402 175.066H153.003C141.735 181.587 128.489 185.35 114.315 185.35C108.38 185.35 102.612 184.691 97.0807 183.444H65.6811C64.8002 183.444 64.005 183.106 63.4334 182.563C62.8533 182.015 62.5008 181.262 62.5008 180.434C62.5008 178.767 63.9233 177.421 65.6811 177.421H80.0268C73.7949 174.345 68.0832 170.455 63.0465 165.906H49.172C47.7621 165.906 46.4902 165.366 45.5662 164.489C44.6421 163.617 44.0749 162.41 44.0749 161.072C44.0749 158.408 46.3571 156.247 49.172 156.247H54.1371C53.5181 155.44 52.9164 154.621 52.3362 153.789H31.4404C27.3145 153.789 23.5882 152.2 20.8851 149.643C18.1778 147.087 16.51 143.55 16.51 139.647C16.51 131.837 23.1932 125.505 31.4407 125.505H40.8615C40.3156 122.08 40.0364 118.572 40.0364 114.999C40.0364 108.329 41.0162 101.878 42.8513 95.7637H34.4149C31.604 95.7637 29.064 94.685 27.2288 92.9436C25.3851 91.2022 24.2463 88.7935 24.2463 86.1382C24.2463 80.8148 28.7977 76.5043 34.4149 76.5043H52.1347C57.3091 69.0236 63.9449 62.531 71.6637 57.4011H64.4992C62.8144 57.4011 61.2887 56.7505 60.1887 55.7048C59.0798 54.6592 58.4007 53.214 58.4007 51.6206C58.4007 48.4259 61.13 45.8445 64.4992 45.8445H100.635C105.066 45.0581 109.639 44.6505 114.315 44.6505C129.117 44.6505 142.904 48.7511 154.482 55.8158H175.734C181.051 55.8158 185.357 59.8957 185.357 64.931C185.357 67.4466 184.283 69.7233 182.537 71.3742C180.797 73.021 178.394 74.0422 175.734 74.0422H174.715C181.515 83.0173 186.135 93.5775 187.85 105.015H202.948C208.771 105.014 213.49 109.485 213.49 114.998Z" fill="#EBF1FF"/>
<path d="M131.959 61.3838L131.902 61.3548C125.955 58.3188 126.754 52.4389 126.763 52.3799L126.779 52.273H126.887C130.668 52.273 131.856 51.0545 131.867 51.0422L131.959 50.9444L132.051 51.0428C132.062 51.0545 133.25 52.273 137.031 52.273H137.139L137.155 52.3799C137.164 52.4389 137.962 58.3188 132.016 61.3548L131.959 61.3838ZM126.999 52.5231C126.923 53.3195 126.673 58.3668 131.959 61.1024C137.245 58.3668 136.994 53.3195 136.919 52.5231C133.637 52.5027 132.301 51.5881 131.959 51.2981C131.617 51.5884 130.281 52.5027 126.999 52.5231Z" fill="#79A1FF"/>
<path d="M118.602 85.4827H118.352V71.513H131.833V59.7646H132.084V71.7634H118.602V85.4827Z" fill="#79A1FF"/>
<path d="M140.248 64.4857H138.098V64.235H139.997V62.3381H140.248V64.4857Z" fill="#79A1FF"/>
<path d="M125.795 64.4857H123.645V62.3381H123.896V64.235H125.795V64.4857Z" fill="#79A1FF"/>
<path d="M123.897 50.0339H123.647V47.8846H125.794V48.135H123.897V50.0339Z" fill="#79A1FF"/>
<path d="M140.248 50.0331H139.997V48.1358H138.098V47.8854H140.248V50.0331Z" fill="#79A1FF"/>
<path d="M140.248 53.2424H139.997V59.1287H140.248V53.2424Z" fill="#79A1FF"/>
<path d="M123.896 53.2424H123.645V59.1287H123.896V53.2424Z" fill="#79A1FF"/>
<path d="M131.959 59.8897C131.452 59.8897 131.039 59.4769 131.039 58.9697C131.039 58.4626 131.452 58.05 131.959 58.05C132.466 58.05 132.879 58.4626 132.879 58.9697C132.879 59.4771 132.466 59.8897 131.959 59.8897ZM131.959 58.3004C131.59 58.3004 131.289 58.6008 131.289 58.9697C131.289 59.3389 131.59 59.6393 131.959 59.6393C132.328 59.6393 132.628 59.3391 132.628 58.9697C132.628 58.6008 132.328 58.3004 131.959 58.3004Z" fill="#79A1FF"/>
<path d="M165.623 68.8022H153.53V60.1692H165.623V68.8022ZM153.865 68.4667H165.287V60.505H153.865V68.4667Z" fill="#5F8EFF"/>
<path d="M159.576 65.3979L153.591 60.4664L153.804 60.2074L159.576 64.9632L165.349 60.2074L165.562 60.4664L159.576 65.3979Z" fill="#5F8EFF"/>
<path d="M161.232 63.9379L160.988 64.1688L165.329 68.7447L165.572 68.5137L161.232 63.9379Z" fill="#5F8EFF"/>
<path d="M157.919 63.9497L153.582 68.5287L153.825 68.7594L158.163 64.1804L157.919 63.9497Z" fill="#5F8EFF"/>
<path d="M67.5631 81.4326H50.8059L50.8352 81.2834C51.1043 79.9032 52.3224 78.9012 53.7312 78.9012C53.9344 78.9012 54.1371 78.9225 54.3352 78.9642C55.2083 77.305 56.9043 76.2786 58.7851 76.2786C60.3879 76.2786 61.8988 77.0477 62.8461 78.3409C63.1911 78.2359 63.5501 78.1828 63.9141 78.1828C65.7374 78.1828 67.2629 79.4889 67.5409 81.2883L67.5631 81.4326ZM51.1146 81.1822H67.2675C66.9524 79.605 65.5362 78.4335 63.9141 78.4335C63.5458 78.4335 63.1833 78.4918 62.8369 78.6068L62.7483 78.6361L62.6948 78.5602C61.7987 77.2886 60.3373 76.5293 58.7848 76.5293C56.9667 76.5293 55.33 77.539 54.5137 79.1643L54.4689 79.2534L54.372 79.2295C54.1633 79.1781 53.9477 79.1519 53.7312 79.1519C52.4929 79.1519 51.4162 79.9969 51.1146 81.1822Z" fill="#79A1FF"/>
<path d="M70.9079 93.8314H60.3143V80.2841H60.5645V93.5812H70.9079V93.8314Z" fill="#79A1FF"/>
<path d="M60.4397 80.4091C59.932 80.4091 59.5197 79.9966 59.5197 79.4892C59.5197 78.982 59.9323 78.5691 60.4397 78.5691C60.9468 78.5691 61.3594 78.9817 61.3594 79.4892C61.3594 79.9966 60.9468 80.4091 60.4397 80.4091ZM60.4397 78.8199C60.0703 78.8199 59.7701 79.1203 59.7701 79.4892C59.7701 79.8583 60.0705 80.1585 60.4397 80.1585C60.8088 80.1585 61.109 79.858 61.109 79.4892C61.1087 79.1203 60.8088 78.8199 60.4397 78.8199Z" fill="#79A1FF"/>
<path d="M102.04 55.6241H92.6805V46.2648H102.04V55.6241ZM93.0517 55.2529H101.668V46.6362H93.0517V55.2529Z" fill="#5F8EFF"/>
<path d="M97.5456 48.8158H97.1744V53.1783H97.5456V48.8158Z" fill="#5F8EFF"/>
<path d="M99.5408 50.8113H95.1789V51.1825H99.5408V50.8113Z" fill="#5F8EFF"/>
<path d="M80.707 68.0472L80.5644 67.6746C80.4368 67.658 80.3114 67.6292 80.1895 67.5887L79.8988 67.8615L79.055 67.2609L79.2178 66.8967C79.1393 66.7949 79.0711 66.6856 79.0133 66.5706L78.6143 66.558L78.4426 65.5365L78.8153 65.3939C78.8316 65.266 78.8607 65.1406 78.9012 65.019L78.6284 64.7283L79.229 63.8842L79.5929 64.047C79.695 63.9688 79.804 63.9003 79.9193 63.8428L79.9316 63.4441L80.9531 63.2721L81.096 63.6444C81.2234 63.6611 81.3493 63.6899 81.4709 63.7304L81.7621 63.4576L82.6059 64.0582L82.4432 64.4224C82.5214 64.5242 82.5895 64.6334 82.6473 64.7487L83.0464 64.7611L83.218 65.7826L82.846 65.9252C82.8288 66.0528 82.8 66.1785 82.7595 66.3004L83.0329 66.591L82.4317 67.4351L82.0677 67.2724C81.9663 67.3506 81.857 67.419 81.742 67.4765L81.7291 67.8753L80.707 68.0472ZM80.1231 67.2603L80.2065 67.2923C80.3574 67.3503 80.5164 67.3866 80.6791 67.4004L80.768 67.4078L80.8901 67.7272L81.4513 67.6329L81.4623 67.2911L81.5439 67.2546C81.6926 67.1882 81.8303 67.1019 81.9542 66.9976L82.0226 66.9401L82.3348 67.0795L82.6646 66.6158L82.4306 66.3665L82.4625 66.2831C82.5208 66.1325 82.5568 65.9735 82.5712 65.8108L82.5789 65.7219L82.8978 65.6L82.8034 65.0388L82.4616 65.0279L82.4251 64.9462C82.359 64.7979 82.2724 64.6596 82.1681 64.5357L82.1106 64.4673L82.25 64.1556L81.7869 63.8256L81.5373 64.0593L81.4539 64.0274C81.3024 63.9693 81.1437 63.9331 80.9818 63.9193L80.893 63.9115L80.7705 63.5924L80.2096 63.6867L80.1987 64.0285L80.1171 64.0651C79.9684 64.1315 79.8301 64.2177 79.7059 64.3221L79.6381 64.3793L79.3258 64.2402L78.9958 64.7039L79.2298 64.9531L79.1976 65.0365C79.1401 65.1872 79.1033 65.3462 79.0895 65.5089L79.0818 65.5977L78.7626 65.7199L78.8575 66.2811L79.1994 66.2923L79.2356 66.3737C79.3017 66.5223 79.3885 66.6606 79.4929 66.7845L79.5501 66.853L79.4112 67.1649L79.8744 67.4947L80.1231 67.2603ZM80.8278 66.7863C80.5957 66.7863 80.37 66.7147 80.1774 66.5775C79.6714 66.2176 79.5527 65.5126 79.9126 65.0069C80.2726 64.5009 80.9775 64.3822 81.4833 64.7421C81.7285 64.9166 81.8912 65.176 81.9409 65.4727C81.9907 65.7694 81.9223 66.0678 81.7478 66.3127C81.5732 66.558 81.3142 66.7204 81.0172 66.7704C80.9543 66.7808 80.8907 66.7863 80.8278 66.7863ZM80.8315 64.8186C80.5684 64.8186 80.3088 64.9416 80.1449 65.1719C80.0147 65.3548 79.9635 65.5779 80.0009 65.7995C80.0383 66.0209 80.1596 66.215 80.3427 66.3449C80.5256 66.4755 80.7484 66.5264 80.9703 66.4893C81.1914 66.4519 81.3858 66.3306 81.5157 66.1474C81.6463 65.9646 81.6974 65.7418 81.6601 65.5201C81.6227 65.2987 81.5014 65.1047 81.3182 64.9744C81.1702 64.8692 81 64.8186 80.8315 64.8186Z" fill="#5F8EFF"/>
<path d="M72.7933 69.2389L72.4747 68.4075C72.1335 68.3692 71.7982 68.2925 71.476 68.1789L70.8274 68.7878L69.0653 67.534L69.4281 66.7216C69.215 66.4539 69.0325 66.1627 68.8847 65.8527L67.9949 65.8249L67.6355 63.6922L68.467 63.3742C68.5052 63.0329 68.5823 62.6977 68.6958 62.3751L68.0869 61.7265L69.3404 59.9647L70.1532 60.3276C70.4205 60.1142 70.7121 59.932 71.022 59.7839L71.0499 58.8941L73.1823 58.5347L73.5008 59.3662C73.8418 59.4047 74.1764 59.4814 74.4996 59.5953L75.1482 58.9864L76.91 60.2402L76.5472 61.0524C76.7605 61.32 76.9428 61.6113 77.0911 61.9215L77.9806 61.9494L78.3403 64.082L77.5089 64.4C77.4703 64.7416 77.3936 65.0765 77.2797 65.3991L77.8889 66.0477L76.6349 67.8098L75.8229 67.4469C75.5556 67.6603 75.264 67.8425 74.9541 67.9906L74.9262 68.8804L72.7933 69.2389ZM71.388 67.7396L71.4992 67.7822C71.8603 67.9204 72.2395 68.0073 72.6265 68.0406L72.7453 68.051L73.0368 68.8126L74.5554 68.5567L74.5809 67.7416L74.6896 67.693C75.0447 67.5349 75.3747 67.3285 75.6703 67.0795L75.7614 67.003L76.5058 67.3351L77.3985 66.0804L76.841 65.4862L76.8835 65.3749C77.0218 65.0141 77.1089 64.6346 77.142 64.2476L77.1521 64.1289L77.9139 63.8374L77.6578 62.3188L76.8427 62.2932L76.7944 62.1842C76.636 61.8292 76.4293 61.4994 76.1809 61.2042L76.1041 61.113L76.4362 60.3693L75.1818 59.4763L74.5876 60.0337L74.4766 59.9912C74.1155 59.8532 73.7363 59.7661 73.3493 59.733L73.2303 59.723L72.939 58.9614L71.4205 59.2172L71.3943 60.0323L71.2856 60.0809C70.9311 60.239 70.6008 60.4454 70.305 60.6944L70.2138 60.7709L69.4698 60.4388L68.5771 61.6932L69.1346 62.2874L69.0917 62.3987C68.9534 62.7592 68.8666 63.1387 68.8332 63.5257L68.8232 63.6445L68.0619 63.936L68.3178 65.4546L69.1328 65.4801L69.1811 65.5888C69.3395 65.9436 69.546 66.2736 69.7949 66.5695L69.8711 66.6606L69.5391 67.4044L70.7937 68.2974L71.388 67.7396ZM72.9845 66.3452C72.4911 66.3452 71.9935 66.1975 71.5616 65.8907C70.4568 65.1041 70.1977 63.5657 70.984 62.4605C71.7704 61.3557 73.3088 61.0966 74.4139 61.8829C75.5191 62.6693 75.7784 64.208 74.9921 65.3128C74.5125 65.9859 73.7538 66.3452 72.9845 66.3452ZM72.9905 61.8079C72.3399 61.8079 71.6985 62.1118 71.2937 62.6808C70.9714 63.1336 70.8449 63.6844 70.9372 64.2321C71.0298 64.7795 71.3296 65.2588 71.7818 65.5808C72.7159 66.2458 74.0169 66.0264 74.6819 65.0923C75.0039 64.6401 75.1304 64.0889 75.0384 63.5412C74.9458 62.9936 74.6459 62.5146 74.1934 62.1926C73.8283 61.9327 73.4077 61.8079 72.9905 61.8079Z" fill="#5F8EFF"/>
<path d="M49.5219 120.141C46.5192 120.141 44.0761 117.698 44.0761 114.695H44.3679C44.3679 117.537 46.6799 119.849 49.5219 119.849C52.3638 119.849 54.6759 117.537 54.6759 114.695C54.6759 111.854 52.3638 109.542 49.5219 109.542V109.25C52.5245 109.25 54.9677 111.693 54.9677 114.695C54.9677 117.698 52.5245 120.141 49.5219 120.141ZM49.5219 119.384C46.9364 119.384 44.8336 117.281 44.8336 114.695C44.8336 112.11 46.9367 110.007 49.5219 110.007C52.1074 110.007 54.2104 112.11 54.2104 114.695H53.9183C53.9183 112.271 51.9461 110.299 49.5216 110.299C47.0971 110.299 45.1248 112.271 45.1248 114.695C45.1248 117.12 47.0968 119.092 49.5216 119.092V119.384H49.5219Z" fill="#79A1FF"/>
<path d="M48.8549 116.499L46.8904 114.535L47.0971 114.329L48.8549 116.087L51.9469 112.994L52.1534 113.201L48.8549 116.499Z" fill="#79A1FF"/>
<path d="M110.9 66.6644L109.66 65.4249H103.734V60.1594H110.899V66.6644H110.9ZM103.997 65.1624H109.769L110.637 66.0304V60.4219H103.997V65.1624Z" fill="#5F8EFF"/>
<path d="M175.236 102.449H165.541V102.276H175.063V96.6463H175.236V102.449Z" fill="#79A1FF"/>
<path d="M173.572 90.5826H168.936V85.9467H173.572V90.5826ZM169.091 90.428H173.417V86.1014H169.091V90.428Z" fill="#79A1FF"/>
<path d="M185.11 87.6464H174.5V86.5131H185.11V87.6464ZM174.654 87.492H184.955V86.6677H174.654V87.492Z" fill="#79A1FF"/>
<path d="M185.11 92.9163H168.936V91.7832H185.11V92.9163ZM169.091 92.7619H184.955V91.9376H169.091V92.7619Z" fill="#79A1FF"/>
<path d="M179.238 95.0926H168.936V93.9593H179.238V95.0926ZM169.091 94.9383H179.083V94.114H169.091V94.9383Z" fill="#79A1FF"/>
<path d="M181.685 89.8081H174.5V88.6748H181.685V89.8081ZM174.654 89.6537H181.53V88.8294H174.654V89.6537Z" fill="#79A1FF"/>
<path d="M186.951 97.5571H167.095V83.4822H186.951V97.5571ZM167.25 97.4024H186.797V83.6366H167.25V97.4024Z" fill="#79A1FF"/>
<path d="M175.15 96.7627C174.799 96.7627 174.514 96.4775 174.514 96.1268C174.514 95.7763 174.799 95.4908 175.15 95.4908C175.5 95.4908 175.786 95.776 175.786 96.1268C175.786 96.4775 175.5 96.7627 175.15 96.7627ZM175.15 95.6642C174.895 95.6642 174.687 95.8718 174.687 96.1268C174.687 96.3818 174.895 96.5894 175.15 96.5894C175.405 96.5894 175.612 96.3818 175.612 96.1268C175.612 95.8718 175.405 95.6642 175.15 95.6642Z" fill="#79A1FF"/>
<path d="M164.752 84.7484V164.593C164.752 165.965 163.638 167.078 162.266 167.078H65.0118C63.639 167.078 62.5252 165.965 62.5252 164.593V84.7484C62.5252 83.3741 63.639 82.2618 65.0118 82.2618H162.266C163.638 82.2618 164.752 83.3741 164.752 84.7484Z" fill="#353945"/>
<path d="M65.0118 165.359C64.5886 165.359 64.2442 165.015 64.2442 164.593V93.8964C64.2442 93.4732 64.5886 93.1287 65.0118 93.1287H162.266C162.689 93.1287 163.033 93.4732 163.033 93.8964V164.593C163.033 165.016 162.689 165.359 162.266 165.359H65.0118Z" fill="#E7E8E8"/>
<path d="M163.033 99.4736V93.8964C163.033 93.4732 162.688 93.1287 162.265 93.1287H65.0118C64.5886 93.1287 64.2442 93.4732 64.2442 93.8964V99.4736H163.033Z" fill="#D2D5D8"/>
<path d="M147.651 94.3747H65.4902V98.2278H147.651V94.3747Z" fill="#E7E8E8"/>
<path d="M72.1987 87.6953C72.1987 88.3916 71.9167 89.0215 71.4601 89.478C71.0036 89.9346 70.3737 90.2166 69.6774 90.2166C68.285 90.2166 67.1548 89.0879 67.1548 87.6953C67.1548 86.9989 67.438 86.369 67.8946 85.9125C68.3511 85.4559 68.981 85.1739 69.6774 85.1739C70.3737 85.1739 71.0036 85.4559 71.4601 85.9125C71.917 86.369 72.1987 86.9989 72.1987 87.6953Z" fill="#B1B5C4"/>
<path d="M79.6395 87.6953C79.6395 88.3916 79.3575 89.0215 78.9009 89.478C78.4444 89.9346 77.8145 90.2166 77.1181 90.2166C75.7258 90.2166 74.5956 89.0879 74.5956 87.6953C74.5956 86.9989 74.8788 86.369 75.3354 85.9125C75.7919 85.4559 76.4218 85.1739 77.1181 85.1739C77.8145 85.1739 78.4444 85.4559 78.9009 85.9125C79.3575 86.369 79.6395 86.9989 79.6395 87.6953Z" fill="#FFD166"/>
<path d="M87.08 87.6953C87.08 88.3916 86.798 89.0215 86.3414 89.478C85.8849 89.9346 85.255 90.2166 84.5586 90.2166C83.1663 90.2166 82.0361 89.0879 82.0361 87.6953C82.0361 86.9989 82.3193 86.369 82.7758 85.9125C83.2324 85.4559 83.8623 85.1739 84.5586 85.1739C85.255 85.1739 85.8849 85.4559 86.3414 85.9125C86.798 86.369 87.08 86.9989 87.08 87.6953Z" fill="#FC5A5A"/>
<path d="M160.122 87.6944C160.122 88.3922 159.838 89.0224 159.382 89.4783C158.926 89.9343 158.296 90.2158 157.601 90.2158H108.126C106.734 90.2158 105.602 89.087 105.602 87.6941C105.602 86.9989 105.887 86.3684 106.343 85.9125C106.798 85.4565 107.429 85.1724 108.126 85.1724H157.601C158.296 85.1724 158.926 85.4565 159.382 85.9125C159.838 86.369 160.122 86.9992 160.122 87.6944Z" fill="#2C383F"/>
<path d="M84.5581 119.02C84.5581 124.285 80.2901 128.554 75.0248 128.554C69.7596 128.554 65.4905 124.285 65.4905 119.02C65.4905 114.08 69.2481 110.017 74.0606 109.533L74.3783 112.662C71.154 112.986 68.6366 115.709 68.6366 119.02C68.6366 122.549 71.4969 125.409 75.0248 125.409C78.5528 125.409 81.4119 122.549 81.4119 119.02C81.4119 118.404 81.3251 117.809 81.1624 117.246L84.1855 116.373C84.4284 117.213 84.5581 118.102 84.5581 119.02Z" fill="#FC5A5A"/>
<path d="M81.7331 119.02C81.7331 122.727 78.727 125.734 75.0188 125.734C71.3089 125.734 68.3028 122.728 68.3028 119.02C68.3028 115.312 71.3089 112.305 75.0188 112.305C78.7267 112.305 81.7331 115.312 81.7331 119.02Z" fill="#ED403A"/>
<path d="M75.0191 122.205C76.7778 122.205 78.2034 120.779 78.2034 119.02C78.2034 117.26 76.7778 115.834 75.0191 115.834C73.2604 115.834 71.8348 117.26 71.8348 119.02C71.8348 120.779 73.2604 122.205 75.0191 122.205Z" fill="#E7E8E8"/>
<path d="M84.5581 144.972C84.5581 150.238 80.2901 154.507 75.0248 154.507C69.7596 154.507 65.4905 150.238 65.4905 144.972C65.4905 140.033 69.2481 135.97 74.0606 135.486L74.3783 138.615C71.154 138.939 68.6366 141.662 68.6366 144.972C68.6366 148.502 71.4969 151.362 75.0248 151.362C78.5528 151.362 81.4119 148.502 81.4119 144.972C81.4119 144.357 81.3251 143.762 81.1624 143.199L84.1855 142.325C84.4284 143.166 84.5581 144.054 84.5581 144.972Z" fill="#FFDA85"/>
<path d="M81.7331 144.972C81.7331 148.68 78.727 151.686 75.0188 151.686C71.3089 151.686 68.3028 148.68 68.3028 144.972C68.3028 141.264 71.3089 138.258 75.0188 138.258C78.7267 138.258 81.7331 141.264 81.7331 144.972Z" fill="#FFD166"/>
<path d="M75.0191 148.158C76.7778 148.158 78.2034 146.731 78.2034 144.972C78.2034 143.213 76.7778 141.787 75.0191 141.787C73.2604 141.787 71.8348 143.213 71.8348 144.972C71.8348 146.731 73.2604 148.158 75.0191 148.158Z" fill="#E7E8E8"/>
<path d="M113.383 150.748V163.242H91.477V150.748C91.477 149.603 92.4054 148.675 93.5499 148.675H111.311C112.455 148.675 113.383 149.603 113.383 150.748Z" fill="#4FAADE"/>
<path d="M91.4256 163.242V168.508C91.4256 169.654 92.3539 170.581 93.4985 170.581H111.259C112.404 170.581 113.332 169.655 113.332 168.508V163.242H91.4256Z" fill="white"/>
<path d="M94.936 165.374C95.2135 165.374 95.4385 165.149 95.4385 164.872C95.4385 164.594 95.2135 164.369 94.936 164.369C94.6584 164.369 94.4334 164.594 94.4334 164.872C94.4334 165.149 94.6584 165.374 94.936 165.374Z" fill="#E7E8E8"/>
<path d="M110.324 164.872C110.324 165.149 110.099 165.374 109.822 165.374H97.3619C97.0842 165.374 96.8593 165.149 96.8593 164.872C96.8593 164.594 97.0844 164.369 97.3619 164.369H109.822C110.099 164.369 110.324 164.594 110.324 164.872Z" fill="#E7E8E8"/>
<path d="M94.936 167.414C95.2135 167.414 95.4385 167.189 95.4385 166.912C95.4385 166.634 95.2135 166.409 94.936 166.409C94.6584 166.409 94.4334 166.634 94.4334 166.912C94.4334 167.189 94.6584 167.414 94.936 167.414Z" fill="#E7E8E8"/>
<path d="M110.324 166.912C110.324 167.19 110.099 167.414 109.822 167.414H97.3619C97.0842 167.414 96.8593 167.189 96.8593 166.912C96.8593 166.634 97.0844 166.409 97.3619 166.409H109.822C110.099 166.409 110.324 166.634 110.324 166.912Z" fill="#E7E8E8"/>
<path d="M94.936 169.455C95.2135 169.455 95.4385 169.23 95.4385 168.952C95.4385 168.674 95.2135 168.449 94.936 168.449C94.6584 168.449 94.4334 168.674 94.4334 168.952C94.4334 169.23 94.6584 169.455 94.936 169.455Z" fill="#E7E8E8"/>
<path d="M110.324 168.952C110.324 169.229 110.099 169.454 109.822 169.454H97.3619C97.0842 169.454 96.8593 169.229 96.8593 168.952C96.8593 168.674 97.0844 168.449 97.3619 168.449H109.822C110.099 168.449 110.324 168.674 110.324 168.952Z" fill="#E7E8E8"/>
<path d="M102.43 160.779C105.092 160.779 107.25 158.621 107.25 155.958C107.25 153.296 105.092 151.138 102.43 151.138C99.7678 151.138 97.6097 153.296 97.6097 155.958C97.6097 158.621 99.7678 160.779 102.43 160.779Z" fill="white"/>
<path d="M105.054 156.409L101.782 158.573C101.421 158.81 100.943 158.552 100.943 158.121V153.796C100.943 153.365 101.422 153.107 101.782 153.345L105.054 155.507C105.377 155.721 105.377 156.195 105.054 156.409Z" fill="#4FAADE"/>
<path d="M140.517 155.221V167.715H118.611V155.221C118.611 154.076 119.539 153.148 120.684 153.148H138.444C139.589 153.148 140.517 154.076 140.517 155.221Z" fill="#FFDA85"/>
<path d="M118.56 167.715V172.982C118.56 174.128 119.488 175.054 120.632 175.054H138.393C139.538 175.054 140.466 174.128 140.466 172.982V167.715H118.56Z" fill="white"/>
<path d="M122.07 169.848C122.347 169.848 122.572 169.623 122.572 169.345C122.572 169.067 122.347 168.842 122.07 168.842C121.792 168.842 121.567 169.067 121.567 169.345C121.567 169.623 121.792 169.848 122.07 169.848Z" fill="#E7E8E8"/>
<path d="M137.458 169.345C137.458 169.623 137.233 169.848 136.955 169.848H124.496C124.218 169.848 123.993 169.622 123.993 169.345C123.993 169.068 124.218 168.842 124.496 168.842H136.955C137.233 168.842 137.458 169.067 137.458 169.345Z" fill="#E7E8E8"/>
<path d="M122.07 171.888C122.347 171.888 122.572 171.663 122.572 171.385C122.572 171.108 122.347 170.883 122.07 170.883C121.792 170.883 121.567 171.108 121.567 171.385C121.567 171.663 121.792 171.888 122.07 171.888Z" fill="#E7E8E8"/>
<path d="M137.458 171.385C137.458 171.663 137.233 171.887 136.955 171.887H124.496C124.218 171.887 123.993 171.662 123.993 171.385C123.993 171.107 124.218 170.882 124.496 170.882H136.955C137.233 170.882 137.458 171.107 137.458 171.385Z" fill="#E7E8E8"/>
<path d="M122.07 173.928C122.347 173.928 122.572 173.703 122.572 173.425C122.572 173.148 122.347 172.923 122.07 172.923C121.792 172.923 121.567 173.148 121.567 173.425C121.567 173.703 121.792 173.928 122.07 173.928Z" fill="#E7E8E8"/>
<path d="M137.458 173.425C137.458 173.703 137.233 173.927 136.955 173.927H124.496C124.218 173.927 123.993 173.702 123.993 173.425C123.993 173.147 124.218 172.922 124.496 172.922H136.955C137.233 172.922 137.458 173.147 137.458 173.425Z" fill="#E7E8E8"/>
<path d="M129.564 165.252C132.226 165.252 134.384 163.094 134.384 160.432C134.384 157.769 132.226 155.611 129.564 155.611C126.902 155.611 124.744 157.769 124.744 160.432C124.744 163.094 126.902 165.252 129.564 165.252Z" fill="white"/>
<path d="M132.188 160.883L128.916 163.046C128.555 163.283 128.077 163.025 128.077 162.594V158.269C128.077 157.838 128.556 157.58 128.916 157.818L132.188 159.98C132.511 160.194 132.511 160.669 132.188 160.883Z" fill="#FFDA85"/>
<path d="M145.552 142.606L147.86 144.513C147.945 144.709 148.198 144.769 148.364 144.631L151.29 142.212L151.603 141.329L153.292 136.56L145.671 142.202L145.656 142.212C145.533 142.303 145.49 142.467 145.552 142.606Z" fill="#BA8EE4"/>
<path d="M158.73 173.092V171.346H161.373C162.172 173.003 158.73 173.092 158.73 173.092Z" fill="#EAC9AF"/>
<path d="M165.112 174.891C165.112 175.059 164.977 175.194 164.809 175.194H159.032C158.864 175.194 158.729 175.059 158.729 174.891V173.092C158.729 173.092 161.518 172.245 161.444 171.795C161.444 171.793 161.444 171.791 161.444 171.791C161.505 171.879 162.371 174.089 164.876 174.597C165.014 174.625 165.112 174.75 165.112 174.891Z" fill="#353945"/>
<path d="M154.779 172.87V171.124L152.182 171.186C151.383 172.842 154.779 172.87 154.779 172.87Z" fill="#EAC9AF"/>
<path d="M148.397 174.669C148.397 174.837 148.532 174.972 148.7 174.972H154.477C154.645 174.972 154.78 174.837 154.78 174.669V172.87C154.78 172.87 151.991 172.023 152.065 171.573C152.065 171.571 152.065 171.569 152.065 171.569C152.004 171.656 151.138 173.867 148.633 174.375C148.495 174.403 148.397 174.528 148.397 174.669Z" fill="#353945"/>
<path d="M151.29 142.213L152.214 152.37H160.193L160.456 148.215C160.456 148.215 164.214 147.49 164.347 145.972C164.479 144.456 163.753 139.774 162.962 138.126C162.82 137.831 162.616 137.543 162.377 137.268C161.059 135.762 159.031 135.084 157.054 135.395L155.698 135.611C154.834 135.745 154.013 136.07 153.292 136.56L151.29 142.213Z" fill="#BA8EE4"/>
<path d="M161.784 171.978H158.448C158.448 171.978 156.491 161.942 156.055 161.942C155.621 161.942 154.823 171.755 154.823 171.755L152.14 171.176V152.37H160.261L161.784 171.978Z" fill="#C1C4D0"/>
<path d="M160.117 140.952L160.601 143.862L153.724 146.148L160.117 140.952Z" fill="#AA7FD2"/>
<path d="M157.931 135.275V137.47C157.931 138.156 157.375 138.711 156.691 138.711C156.006 138.711 155.451 138.156 155.451 137.47V135.275H157.931Z" fill="#EAC9AF"/>
<path d="M157.931 135.275V136.063C157.313 136.594 156.509 136.914 155.63 136.914C155.57 136.914 155.51 136.913 155.45 136.91V135.275H157.931V135.275Z" fill="#EEAF56"/>
<path d="M160.75 131.665C160.75 131.939 160.64 132.215 160.464 132.439C160.286 132.662 160.042 132.833 159.772 132.9L159.047 133.077V131.086L159.772 130.909C160.312 130.776 160.75 131.115 160.75 131.665Z" fill="#EAC9AF"/>
<path d="M152.635 130.214V132.862C152.635 134.812 154.216 136.393 156.166 136.393C158.116 136.393 159.697 134.812 159.697 132.862V130.214H152.635Z" fill="#EAC9AF"/>
<path d="M120.603 131.455L163.029 157.979L167.474 150.868L125.048 124.345L120.603 131.455Z" fill="white"/>
<path d="M158.703 145.379L154.258 152.49L163.027 157.972L167.472 150.861L158.703 145.379Z" fill="#777E91"/>
<path d="M161.881 156.067C162.049 156.028 162.193 155.926 162.284 155.779C162.376 155.632 162.405 155.459 162.366 155.291L161.776 152.731C162.17 152.524 162.499 152.219 162.737 151.839C163.095 151.266 163.209 150.59 163.058 149.934C162.906 149.277 162.508 148.719 161.935 148.361C161.363 148.003 160.686 147.89 160.03 148.041C159.373 148.192 158.814 148.591 158.456 149.162C158.099 149.734 157.986 150.411 158.137 151.068C158.398 152.199 159.376 152.988 160.514 153.022L161.105 155.581C161.185 155.929 161.533 156.147 161.881 156.067ZM160.938 151.976C160.124 152.164 159.31 151.655 159.122 150.841C159.031 150.447 159.099 150.041 159.314 149.698C159.528 149.355 159.863 149.116 160.257 149.025C160.65 148.935 161.056 149.003 161.4 149.218C161.743 149.432 161.982 149.767 162.073 150.161C162.164 150.554 162.095 150.96 161.88 151.303C161.666 151.646 161.331 151.885 160.938 151.976Z" fill="white"/>
<path d="M127.033 128.149L152.839 144.282L153.375 143.426L127.569 127.292L127.033 128.149Z" fill="#E7E8E8"/>
<path d="M125.695 130.289L151.501 146.423L152.037 145.566L126.231 129.432L125.695 130.289Z" fill="#E7E8E8"/>
<path d="M136.908 139.078L136.372 139.935L150.161 148.555L150.697 147.698L136.908 139.078Z" fill="#E7E8E8"/>
<path d="M149.455 150.373C149.455 150.373 148.999 150.473 148.658 150.692C148.467 150.815 147.019 151.397 146.229 150.866C145.44 150.339 144.697 148.974 145.313 148.631C145.929 148.286 147.106 148.366 147.106 148.366L147.052 147.7C147.018 147.278 147.565 147.068 147.81 147.412C147.856 147.477 147.902 147.556 147.946 147.651C148.233 148.267 148.31 148.327 148.485 148.255C148.664 148.182 148.849 148.121 149.041 148.092L149.219 148.062L149.455 150.373Z" fill="#EAC9AF"/>
<path d="M164.035 146.631C162.189 148.082 149.169 150.522 149.169 150.522V147.688L160.539 143.846L159.42 138.52L162.239 137.117C162.239 137.381 165.881 145.18 164.035 146.631Z" fill="#BA8EE4"/>
<path d="M149.839 147.526L149.169 147.688V150.522C149.169 150.522 149.417 150.513 149.839 150.491V147.526Z" fill="white"/>
<path d="M150.839 128.231C151.199 129.476 151.81 131.168 152.635 131.933V130.579C152.933 131.081 153.703 131.158 154.564 131.05C156.089 130.859 157.901 130.093 157.901 130.093C157.581 131.194 158.107 131.765 158.565 132.042C158.84 132.206 159.197 132.076 159.304 131.776L159.745 130.541C159.956 129.951 159.934 129.456 159.82 129.059C159.423 127.671 156.717 126.752 156.717 126.752C156.678 126.734 156.64 126.715 156.602 126.697C155.477 126.184 154.191 126.221 153.104 126.752H151.956C151.184 126.752 150.624 127.49 150.839 128.231Z" fill="#4D312C"/>
<path d="M158.198 107.978H86.9475V124.336H158.198V107.978Z" fill="#D2D5D8"/>
</svg>
