<svg width="230" height="230" viewBox="0 0 230 230" fill="none" xmlns="http://www.w3.org/2000/svg">
<path d="M217.068 171.731C217.111 175.568 215.573 179.046 213.065 181.555C210.59 184.03 207.172 185.559 203.398 185.559H33.9338C26.4157 185.559 20.1732 179.562 20.0881 172.046C20.0464 168.209 21.5831 164.73 24.0924 162.22C26.5672 159.745 29.985 158.216 33.7599 158.216H79.23C82.1746 158.216 84.5623 155.828 84.5623 152.884C84.5623 151.411 83.9654 150.078 83.0012 149.112C82.0355 148.148 80.7023 147.551 79.23 147.551H40.3652C32.8471 147.551 26.6046 141.554 26.5212 134.038C26.4778 130.201 28.0145 126.722 30.5238 124.212C32.9986 121.737 36.4164 120.208 40.1913 120.208H82.8821C85.8267 120.208 88.2144 117.82 88.2144 114.876C88.2144 113.403 87.6176 112.07 86.6533 111.105C85.6873 110.141 84.3544 109.543 82.8819 109.543H54.455C46.9369 109.543 40.6944 103.547 40.6093 96.0301C40.5676 92.1928 42.1043 88.7138 44.6139 86.2045C47.0887 83.7297 50.5065 82.2002 54.2813 82.2002H78.4958C81.4403 82.2002 83.828 79.8125 83.828 76.868C83.828 75.3957 83.2312 74.0625 82.2669 73.0968C81.3009 72.1325 79.968 71.5357 78.4958 71.5357H33.933C26.4148 71.5357 20.1723 65.5387 20.089 58.0223C20.0456 54.1851 21.5822 50.706 24.0915 48.1964C26.5663 45.7216 29.9841 44.1921 33.759 44.1921H186.565C194.115 44.1921 200.237 50.3127 200.237 57.8639C200.237 61.6385 198.706 65.0566 196.232 67.5314C193.758 70.0062 190.34 71.5357 186.565 71.5357H149.28C146.335 71.5357 143.947 73.9234 143.947 76.868C143.947 78.3402 144.544 79.6734 145.509 80.6391C146.474 81.6031 147.807 82.2002 149.28 82.2002H202.487C210.007 82.2002 216.25 88.1972 216.333 95.7153C216.376 99.5526 214.838 103.03 212.33 105.539C209.856 108.014 206.438 109.543 202.663 109.543H161.124C158.179 109.543 155.792 111.931 155.792 114.876C155.792 116.348 156.388 117.681 157.353 118.647C158.318 119.611 159.652 120.208 161.124 120.208H187.3C194.849 120.208 200.971 126.329 200.971 133.88C200.971 137.654 199.44 141.072 196.967 143.547C194.492 146.022 191.074 147.552 187.3 147.552H127.999C125.054 147.552 122.667 149.939 122.667 152.884C122.667 154.356 123.264 155.689 124.228 156.655C125.194 157.619 126.527 158.216 127.999 158.216H203.222C210.741 158.216 216.984 164.213 217.068 171.731Z" fill="#EBF1FF"/>
<path d="M154.993 58.2679L154.936 58.2388C148.99 55.2028 149.788 49.3229 149.797 49.2639L149.813 49.157H149.921C153.702 49.157 154.89 47.9386 154.901 47.9262L154.993 47.8284L155.085 47.9268C155.096 47.9386 156.285 49.157 160.065 49.157H160.173L160.189 49.2639C160.198 49.3229 160.996 55.2028 155.05 58.2388L154.993 58.2679ZM150.033 49.4071C149.958 50.2035 149.707 55.2508 154.993 57.9864C160.279 55.2508 160.028 50.2035 159.953 49.4071C156.671 49.3867 155.335 48.4722 154.993 48.1821C154.652 48.4722 153.315 49.3864 150.033 49.4071Z" fill="#79A1FF"/>
<path d="M141.636 82.3667H141.386V68.3968H154.868V56.6484H155.118V68.6472H141.636V82.3667Z" fill="#79A1FF"/>
<path d="M163.282 61.3694H161.132V61.119H163.032V59.2218H163.282V61.3694Z" fill="#79A1FF"/>
<path d="M148.829 61.3694H146.68V59.2218H146.93V61.119H148.829V61.3694Z" fill="#79A1FF"/>
<path d="M146.931 46.9176H146.681V44.7683H148.829V45.0187H146.931V46.9176Z" fill="#79A1FF"/>
<path d="M163.282 46.9168H163.032V45.0196H161.132V44.7692H163.282V46.9168Z" fill="#79A1FF"/>
<path d="M163.282 50.1261H163.032V56.0124H163.282V50.1261Z" fill="#79A1FF"/>
<path d="M146.93 50.1261H146.68V56.0124H146.93V50.1261Z" fill="#79A1FF"/>
<path d="M154.993 56.7737C154.486 56.7737 154.073 56.3609 154.073 55.8537C154.073 55.3466 154.486 54.934 154.993 54.934C155.5 54.934 155.913 55.3466 155.913 55.8537C155.913 56.3609 155.5 56.7737 154.993 56.7737ZM154.993 55.1841C154.624 55.1841 154.324 55.4846 154.324 55.8534C154.324 56.2226 154.624 56.5227 154.993 56.5227C155.362 56.5227 155.662 56.2226 155.662 55.8534C155.662 55.4846 155.362 55.1841 154.993 55.1841Z" fill="#79A1FF"/>
<path d="M188.657 59.9434H179.63V53.5H188.657V59.9434ZM179.881 59.693H188.406V53.7504H179.881V59.693Z" fill="#79A1FF"/>
<path d="M184.144 57.4028L179.677 53.7219L179.836 53.5287L184.144 57.0785L188.452 53.5287L188.611 53.7219L184.144 57.4028Z" fill="#79A1FF"/>
<path d="M185.377 56.3116L185.196 56.4839L188.435 59.8992L188.617 59.7269L185.377 56.3116Z" fill="#79A1FF"/>
<path d="M182.909 56.3241L179.672 59.7418L179.854 59.914L183.091 56.4963L182.909 56.3241Z" fill="#79A1FF"/>
<path d="M126.415 53.7803H109.658L109.687 53.6311C109.956 52.2508 111.174 51.2488 112.583 51.2488C112.786 51.2488 112.989 51.2701 113.187 51.3118C114.06 49.6526 115.756 48.6263 117.637 48.6263C119.24 48.6263 120.751 49.3953 121.698 50.6888C122.043 50.5838 122.402 50.5307 122.766 50.5307C124.589 50.5307 126.115 51.8368 126.393 53.6362L126.415 53.7803ZM109.967 53.5299H126.12C125.804 51.9526 124.388 50.7811 122.766 50.7811C122.398 50.7811 122.035 50.8394 121.689 50.9544L121.6 50.9838L121.547 50.9079C120.651 49.6362 119.189 48.877 117.637 48.877C115.819 48.877 114.182 49.8867 113.366 51.5119L113.321 51.601L113.224 51.5772C113.015 51.5257 112.8 51.4995 112.583 51.4995C111.345 51.4995 110.268 52.3445 109.967 53.5299Z" fill="#79A1FF"/>
<path d="M129.76 66.1793H119.166V52.6317H119.417V65.9289H129.76V66.1793Z" fill="#79A1FF"/>
<path d="M119.292 52.7571C118.784 52.7571 118.372 52.3445 118.372 51.837C118.372 51.3299 118.784 50.917 119.292 50.917C119.799 50.917 120.211 51.3296 120.211 51.837C120.211 52.3442 119.799 52.7571 119.292 52.7571ZM119.292 51.1675C118.922 51.1675 118.622 51.4679 118.622 51.837C118.622 52.2062 118.923 52.5063 119.292 52.5063C119.661 52.5063 119.961 52.2059 119.961 51.837C119.961 51.4679 119.661 51.1675 119.292 51.1675Z" fill="#79A1FF"/>
<path d="M61.4544 59.4857H52.0955V50.1264H61.4544V59.4857ZM52.4663 59.1143H61.083V50.4976H52.4663V59.1143Z" fill="#79A1FF"/>
<path d="M56.9603 52.6771H56.5891V57.0397H56.9603V52.6771Z" fill="#79A1FF"/>
<path d="M58.9558 54.673H54.5939V55.0441H58.9558V54.673Z" fill="#79A1FF"/>
<path d="M80.0825 66.8788L79.9399 66.5062C79.8122 66.4895 79.6869 66.4607 79.565 66.4202L79.2743 66.693L78.4305 66.0925L78.5932 65.7282C78.5147 65.6264 78.4466 65.5172 78.3888 65.4022L77.9898 65.3895L77.8181 64.368L78.1907 64.2254C78.2071 64.0975 78.2361 63.9721 78.2767 63.8505L78.0038 63.5599L78.6044 62.7158L78.9684 62.8785C79.0705 62.8003 79.1794 62.7319 79.2947 62.6744L79.3071 62.2756L80.3286 62.1037L80.4714 62.476C80.5988 62.4927 80.7247 62.5214 80.8464 62.562L81.1376 62.2891L81.9814 62.8897L81.8187 63.254C81.8969 63.3557 81.965 63.465 82.0228 63.5803L82.4218 63.5926L82.5935 64.6141L82.2215 64.7567C82.2042 64.8844 82.1755 65.01 82.1349 65.1319L82.4083 65.4226L81.8072 66.2667L81.4432 66.104C81.3417 66.1822 81.2325 66.2506 81.1175 66.3081L81.1045 66.7068L80.0825 66.8788ZM79.4985 66.0919L79.5819 66.1238C79.7329 66.1819 79.8919 66.2181 80.0546 66.2319L80.1434 66.2394L80.2656 66.5588L80.8268 66.4645L80.8377 66.1226L80.9194 66.0861C81.068 66.0197 81.2057 65.9335 81.3296 65.8291L81.3981 65.7716L81.7103 65.911L82.04 65.4473L81.806 65.198L81.8379 65.1147C81.8963 64.964 81.9322 64.805 81.9466 64.6423L81.9544 64.5535L82.2732 64.4316L82.1789 63.8704L81.8371 63.8594L81.8006 63.7778C81.7344 63.6294 81.6479 63.4912 81.5435 63.3672L81.486 63.2988L81.6255 62.9872L81.1623 62.6571L80.9128 62.8909L80.8294 62.8589C80.6779 62.8009 80.5192 62.7646 80.3573 62.7508L80.2685 62.7431L80.146 62.424L79.5851 62.5183L79.5742 62.8601L79.4925 62.8966C79.3439 62.963 79.2056 63.0493 79.0814 63.1536L79.0135 63.2108L78.7013 63.0717L78.3713 63.5354L78.6053 63.7847L78.5731 63.8681C78.5156 64.0187 78.4788 64.1777 78.465 64.3404L78.4572 64.4293L78.1381 64.5515L78.233 65.1127L78.5748 65.1239L78.611 65.2052C78.6772 65.3539 78.764 65.4922 78.8684 65.6161L78.9256 65.6845L78.7867 65.9964L79.2499 66.3262L79.4985 66.0919ZM80.2032 65.6175C79.9712 65.6175 79.7455 65.5459 79.5529 65.4088C79.0469 65.0488 78.9281 64.3439 79.2881 63.8382C79.648 63.3322 80.353 63.2134 80.8587 63.5734C81.104 63.7479 81.2667 64.0072 81.3164 64.3039C81.3661 64.6006 81.2977 64.899 81.1232 65.144C80.9487 65.3892 80.6897 65.5517 80.3927 65.6017C80.3297 65.6123 80.2662 65.6175 80.2032 65.6175ZM80.207 63.6501C79.9439 63.6501 79.6843 63.7732 79.5204 64.0035C79.3899 64.1863 79.339 64.4094 79.3764 64.6311C79.4137 64.8525 79.5351 65.0465 79.7182 65.1765C79.901 65.307 80.1239 65.3579 80.3458 65.3208C80.5669 65.2834 80.7612 65.1621 80.8912 64.979C81.0217 64.7961 81.0729 64.5733 81.0355 64.3516C80.9981 64.1303 80.8768 63.9362 80.6937 63.806C80.5456 63.7007 80.3757 63.6501 80.207 63.6501ZM72.1687 68.0705L71.8502 67.239C71.5089 67.2008 71.1737 67.124 70.8514 67.0104L70.2028 67.6194L68.4407 66.3656L68.8035 65.5531C68.5905 65.2854 68.4079 64.9942 68.2602 64.6843L67.3704 64.6564L67.011 62.5237L67.8424 62.2057C67.8807 61.8645 67.9577 61.5293 68.0713 61.2067L67.4624 60.5581L68.7159 58.7963L69.5286 59.1591C69.796 58.9458 70.0875 58.7635 70.3975 58.6154L70.4253 57.7256L72.5577 57.3663L72.8763 58.1977C73.2172 58.2362 73.5519 58.313 73.875 58.4268L74.5237 57.8179L76.2854 59.0717L75.9226 59.8839C76.136 60.1516 76.3182 60.4428 76.4666 60.753L77.3561 60.7809L77.7158 62.9136L76.8843 63.2315C76.8458 63.5731 76.769 63.908 76.6552 64.2306L77.2644 64.8792L76.0103 66.6413L75.1984 66.2785C74.931 66.4918 74.6395 66.6741 74.3296 66.8221L74.3017 67.7119L72.1687 68.0705ZM70.7634 66.5711L70.8747 66.6137C71.2358 66.752 71.615 66.8388 72.002 66.8722L72.1207 66.8825L72.4122 67.6441L73.9308 67.3882L73.9564 66.5732L74.0651 66.5246C74.4202 66.3664 74.7502 66.16 75.0458 65.911L75.1369 65.8346L75.8812 66.1666L76.7739 64.912L76.2165 64.3177L76.259 64.2065C76.3973 63.8456 76.4844 63.4661 76.5175 63.0792L76.5275 62.9604L77.2894 62.6689L77.0332 61.1503L76.2182 61.1247L76.1699 61.0161C76.0115 60.661 75.8048 60.3312 75.5564 60.036L75.4796 59.9446L75.8117 59.2008L74.5573 58.3078L73.963 58.8653L73.8521 58.8227C73.491 58.6847 73.1117 58.5976 72.7248 58.5646L72.6057 58.5545L72.3145 57.7929L70.7959 58.0488L70.7698 58.8638L70.6611 58.9124C70.3066 59.0706 69.9763 59.277 69.6804 59.526L69.5893 59.6024L68.8452 59.2704L67.9526 60.5247L68.51 61.119L68.4672 61.2303C68.3289 61.5908 68.2421 61.9703 68.2087 62.3573L68.1987 62.476L67.4373 62.7675L67.6932 64.2861L68.5083 64.3117L68.5566 64.4204C68.715 64.7751 68.9214 65.1052 69.1704 65.401L69.2466 65.4924L68.9145 66.2362L70.1692 67.1292L70.7634 66.5711ZM72.3599 65.1768C71.8666 65.1768 71.3689 65.029 70.9371 64.7222C69.8322 63.9356 69.5732 62.3972 70.3595 61.2921C71.1458 60.1872 72.6842 59.9282 73.7894 60.7145C74.8945 61.5008 75.1539 63.0395 74.3675 64.1444C73.888 64.8174 73.1296 65.1768 72.3599 65.1768ZM72.3663 60.6394C71.7156 60.6394 71.0742 60.9433 70.6694 61.5123C70.3471 61.9651 70.2206 62.516 70.3129 63.0636C70.4055 63.611 70.7054 64.0903 71.1576 64.4123C72.0917 65.0773 73.3926 64.8579 74.0576 63.9238C74.3796 63.4716 74.5061 62.9205 74.4141 62.3728C74.3215 61.8251 74.0217 61.3461 73.5691 61.0241C73.2037 60.7642 72.7831 60.6394 72.3663 60.6394Z" fill="#79A1FF"/>
<path d="M35.417 66.7235C32.4144 66.7235 29.9712 64.2803 29.9712 61.2777H30.263C30.263 64.1196 32.5751 66.4317 35.417 66.4317C38.259 66.4317 40.571 64.1199 40.571 61.2777C40.571 58.436 38.259 56.124 35.417 56.124V55.8322C38.4197 55.8322 40.8628 58.275 40.8628 61.2777C40.8628 64.2803 38.4197 66.7235 35.417 66.7235ZM35.417 65.9665C32.8315 65.9665 30.7288 63.8632 30.7288 61.2777C30.7288 58.6925 32.8318 56.5891 35.417 56.5891C38.0022 56.5891 40.1056 58.6925 40.1056 61.2777H39.8135C39.8135 58.8535 37.8412 56.881 35.4167 56.881C32.9922 56.881 31.02 58.8532 31.02 61.2777C31.02 63.7022 32.992 65.6744 35.4167 65.6744V65.9665H35.417Z" fill="#79A1FF"/>
<path d="M34.75 63.0818L32.7855 61.1176L32.9922 60.9111L34.75 62.6692L37.8424 59.5771L38.0485 59.7833L34.75 63.0818Z" fill="#79A1FF"/>
<path d="M96.3544 56.5391L95.1149 55.2997H89.189V50.0339H96.3541V56.5391H96.3544ZM89.4518 55.0369H95.2236L96.0916 55.9049V50.2963H89.4518V55.0369Z" fill="#79A1FF"/>
<path d="M197.08 93.7022H187.384V93.5292H196.907V87.899H197.08V93.7022Z" fill="#79A1FF"/>
<path d="M195.416 81.8354H190.78V77.1994H195.416V81.8354ZM190.935 81.6807H195.261V77.3541H190.935V81.6807Z" fill="#79A1FF"/>
<path d="M206.954 78.8994H196.343V77.7661H206.954V78.8994ZM196.497 78.7448H206.799V77.9205H196.497V78.7448Z" fill="#79A1FF"/>
<path d="M206.954 84.1693H190.78V83.0363H206.954V84.1693ZM190.935 84.0149H206.799V83.1906H190.935V84.0149Z" fill="#79A1FF"/>
<path d="M201.082 86.3457H190.78V85.2124H201.082V86.3457ZM190.935 86.191H200.927V85.3667H190.935V86.191Z" fill="#79A1FF"/>
<path d="M203.528 81.0611H196.343V79.9278H203.528V81.0611ZM196.497 80.9065H203.374V80.0822H196.497V80.9065Z" fill="#79A1FF"/>
<path d="M208.795 88.8098H188.939V74.735H208.795V88.8098ZM189.093 88.6554H208.641V74.8897H189.093V88.6554Z" fill="#79A1FF"/>
<path d="M196.993 88.0158C196.643 88.0158 196.358 87.7306 196.358 87.3798C196.358 87.0294 196.643 86.7439 196.993 86.7439C197.344 86.7439 197.629 87.0291 197.629 87.3798C197.629 87.7303 197.344 88.0158 196.993 88.0158ZM196.993 86.9169C196.738 86.9169 196.531 87.1245 196.531 87.3795C196.531 87.6345 196.738 87.8421 196.993 87.8421C197.248 87.8421 197.456 87.6345 197.456 87.3795C197.456 87.1245 197.249 86.9169 196.993 86.9169Z" fill="#79A1FF"/>
<path d="M100.671 150.718V157.091C100.671 158.15 99.807 159.015 98.7469 159.015H93.7686C93.1131 162.194 91.8582 165.158 90.1219 167.786L93.6501 171.315C94.4031 172.068 94.41 173.288 93.657 174.034L89.1528 178.538C88.3998 179.291 87.1797 179.291 86.4264 178.538L82.9054 175.017C80.2768 176.753 77.3135 178.008 74.1269 178.657V183.635C74.1269 184.695 73.2693 185.56 72.2095 185.56H65.8365C64.7768 185.56 63.912 184.695 63.912 183.635V178.664C60.7256 178.008 57.7621 176.753 55.1335 175.017L51.6053 178.538C50.8592 179.291 49.6391 179.298 48.893 178.545L44.3818 174.041C43.6358 173.288 43.6358 172.068 44.3818 171.315L45.581 170.122L47.9098 167.793C46.1735 165.165 44.9186 162.194 44.2631 159.015H39.2848C38.225 159.015 37.3602 158.157 37.3602 157.098V150.725C37.3602 149.665 38.2247 148.8 39.2848 148.8H44.2562C44.9117 145.614 46.1735 142.643 47.9098 140.015L44.3816 136.493C43.6355 135.747 43.6286 134.527 44.3816 133.774L48.8858 129.27C49.6319 128.524 50.8589 128.524 51.605 129.27L55.1263 132.791C57.7549 131.055 60.7254 129.8 63.9117 129.144V124.173C63.9117 123.113 64.7693 122.248 65.8291 122.248H72.2021C73.2618 122.248 74.1266 123.113 74.1266 124.173V129.151C77.313 129.8 80.2765 131.055 82.9051 132.798L86.4261 129.27C87.1791 128.524 88.3992 128.517 89.1453 129.263L93.6496 133.774C94.4025 134.52 94.4025 135.747 93.6496 136.493L90.1214 140.022C91.8576 142.65 93.1194 145.62 93.7749 148.8H98.7464C98.9068 148.8 99.0672 148.821 99.2205 148.863C100.051 149.072 100.671 149.818 100.671 150.718Z" fill="#79A1FF"/>
<path d="M69.0183 169.417C77.5851 169.417 84.5298 162.472 84.5298 153.906C84.5298 145.339 77.5851 138.394 69.0183 138.394C60.4516 138.394 53.5068 145.339 53.5068 153.906C53.5068 162.472 60.4516 169.417 69.0183 169.417Z" fill="#C1D3FF"/>
<path d="M69.0183 160.792C72.8213 160.792 75.9042 157.709 75.9042 153.906C75.9042 150.103 72.8213 147.02 69.0183 147.02C65.2153 147.02 62.1324 150.103 62.1324 153.906C62.1324 157.709 65.2153 160.792 69.0183 160.792Z" fill="#79A1FF"/>
<path d="M137.206 182.451H104.034L109.037 145.783H132.203L137.206 182.451Z" fill="#17306B"/>
<path d="M177.299 95.0701V163.137C177.299 165.144 175.673 166.771 173.667 166.771H67.573C65.5666 166.771 63.9413 165.144 63.9413 163.137V95.0701C63.9413 93.0637 65.5666 91.4367 67.573 91.4367H173.667C175.673 91.4367 177.299 93.0637 177.299 95.0701Z" fill="#1E3F8C"/>
<path d="M173.316 95.4189H67.9244V162.788H173.316V95.4189Z" fill="#5F8EFF"/>
<path d="M155.281 182.451H85.9592V185.56H155.281V182.451Z" fill="#1E3F8C"/>
<path d="M173.316 141.094V161.506H67.9244V131.615C69.9185 130.618 72.1664 130.059 74.5455 130.059C79.4212 130.059 83.7515 132.406 86.4647 136.031C89.1778 132.406 93.5056 130.059 98.3813 130.059C104.823 130.059 110.306 134.157 112.372 139.886C114.898 137.908 118.085 136.723 121.546 136.723C126.478 136.723 130.851 139.124 133.559 142.821C135.676 137.197 141.111 133.195 147.478 133.195C152.869 133.195 157.59 136.063 160.196 140.353C161.92 139.912 163.727 139.68 165.591 139.68C168.312 139.68 170.915 140.18 173.316 141.094Z" fill="#3268E8"/>
<path d="M173.316 142.377V162.788H67.9244V132.898C69.9185 131.901 72.1664 131.343 74.5455 131.343C79.4212 131.343 83.7515 133.689 86.4647 137.314C89.1778 133.689 93.5056 131.343 98.3813 131.343C104.823 131.343 110.306 135.44 112.372 141.169C114.898 139.191 118.085 138.007 121.546 138.007C126.478 138.007 130.851 140.407 133.559 144.104C135.676 138.48 141.111 134.478 147.478 134.478C152.869 134.478 157.59 137.346 160.196 141.637C161.92 141.196 163.727 140.963 165.591 140.963C168.312 140.963 170.915 141.463 173.316 142.377Z" fill="#EBF1FF"/>
<path d="M173.316 142.377V144.745C170.916 143.831 168.312 143.331 165.591 143.331C163.728 143.331 161.921 143.564 160.197 144.005C157.59 139.714 152.87 136.846 147.478 136.846C141.111 136.846 135.677 140.848 133.559 146.472C130.852 142.775 126.478 140.375 121.547 140.375C118.085 140.375 114.899 141.559 112.372 143.537C110.306 137.808 104.824 133.711 98.3816 133.711C93.5059 133.711 89.1781 136.058 86.465 139.682C83.7518 136.058 79.4215 133.711 74.5458 133.711C72.1667 133.711 69.9188 134.269 67.9247 135.266V132.898C69.9188 131.901 72.1667 131.342 74.5458 131.342C79.4215 131.342 83.7518 133.689 86.465 137.314C89.1781 133.689 93.5059 131.342 98.3816 131.342C104.824 131.342 110.306 135.44 112.372 141.168C114.898 139.19 118.085 138.006 121.547 138.006C126.478 138.006 130.852 140.407 133.559 144.104C135.677 138.479 141.111 134.478 147.478 134.478C152.87 134.478 157.59 137.346 160.197 141.636C161.921 141.195 163.728 140.963 165.591 140.963C168.312 140.963 170.916 141.463 173.316 142.377Z" fill="#C1D3FF"/>
<path d="M145.172 127.952H126.133V114.504L145.172 120.112V127.952Z" fill="#17306B"/>
<path d="M150.278 132.644C150.278 137.215 145.46 140.92 145.46 140.92C145.46 140.92 140.641 137.215 140.641 132.644C140.641 128.073 142.799 124.368 145.46 124.368C148.121 124.368 150.278 128.074 150.278 132.644Z" fill="#FF9A7A"/>
<path d="M148.87 130.227C148.87 133.462 145.46 136.085 145.46 136.085C145.46 136.085 142.049 133.462 142.049 130.227C142.049 126.991 143.576 124.368 145.46 124.368C147.343 124.368 148.87 126.991 148.87 130.227Z" fill="#6D5139"/>
<path d="M152.126 125.023C152.126 131.557 149.141 131.652 145.46 131.652C141.778 131.652 138.793 131.557 138.793 125.023C138.793 118.489 141.778 107.99 145.46 107.99C149.141 107.989 152.126 118.489 152.126 125.023Z" fill="#FFFFFE"/>
<path d="M152.127 125.023C152.127 131.556 149.14 131.653 145.461 131.653C141.778 131.653 138.795 131.556 138.795 125.023C138.795 122.187 139.357 118.609 140.294 115.467C141.515 111.355 143.375 107.99 145.461 107.99C147.544 107.99 149.407 111.355 150.628 115.467C151.565 118.609 152.127 122.187 152.127 125.023Z" fill="#FFFFFE"/>
<path d="M152.126 125.023C152.126 131.557 149.141 131.652 145.46 131.652C141.778 131.652 138.793 131.557 138.793 125.023C138.793 118.489 141.778 107.99 145.46 107.99C149.141 107.989 152.126 118.489 152.126 125.023Z" fill="#FFFFFE"/>
<path d="M150.628 115.467C149.406 116.681 147.543 116.71 145.461 116.71C143.374 116.71 141.515 116.681 140.294 115.467C141.515 111.355 143.374 107.99 145.461 107.99C147.543 107.989 149.406 111.355 150.628 115.467Z" fill="#EB5757"/>
<path d="M95.7547 127.952H114.794V114.504L95.7547 120.112V127.952Z" fill="#17306B"/>
<path d="M90.649 132.644C90.649 137.215 95.4672 140.92 95.4672 140.92C95.4672 140.92 100.285 137.215 100.285 132.644C100.285 128.073 98.1283 124.368 95.4672 124.368C92.8061 124.368 90.649 128.074 90.649 132.644Z" fill="#FF9A7A"/>
<path d="M92.0569 130.227C92.0569 133.462 95.4675 136.085 95.4675 136.085C95.4675 136.085 98.8781 133.462 98.8781 130.227C98.8781 126.991 97.3512 124.368 95.4675 124.368C93.5838 124.368 92.0569 126.991 92.0569 130.227Z" fill="#6D5139"/>
<path d="M88.8013 125.023C88.8013 131.557 91.7859 131.652 95.4676 131.652C99.1493 131.652 102.134 131.557 102.134 125.023C102.134 118.489 99.1493 107.99 95.4676 107.99C91.7859 107.99 88.8013 118.489 88.8013 125.023Z" fill="#FFFFFE"/>
<path d="M88.8 125.023C88.8 131.556 91.7872 131.653 95.4663 131.653C99.1489 131.653 102.133 131.556 102.133 125.023C102.133 122.187 101.571 118.609 100.634 115.467C99.412 111.355 97.5527 107.99 95.4663 107.99C93.3837 107.99 91.5204 111.355 90.2991 115.467C89.3621 118.609 88.8 122.187 88.8 125.023Z" fill="#FFFFFE"/>
<path d="M88.8013 125.023C88.8013 131.557 91.7859 131.652 95.4676 131.652C99.1493 131.652 102.134 131.557 102.134 125.023C102.134 118.489 99.1493 107.99 95.4676 107.99C91.7859 107.99 88.8013 118.489 88.8013 125.023Z" fill="#FFFFFE"/>
<path d="M90.2988 115.467C91.5204 116.681 93.3834 116.71 95.466 116.71C97.5524 116.71 99.4117 116.681 100.633 115.467C99.4117 111.355 97.5524 107.99 95.466 107.99C93.3834 107.989 91.5204 111.355 90.2988 115.467Z" fill="#EB5757"/>
<path d="M132.714 86.7646C135.376 91.6883 137.409 97.4762 137.409 103.679C137.407 113.307 135.207 121.952 131.716 127.882C128.098 128.716 124.334 129.155 120.459 129.155C116.588 129.155 112.818 128.714 109.204 127.88C107.89 125.643 106.759 123.023 105.861 120.112C104.374 115.295 103.518 109.678 103.518 103.679C103.518 97.6001 105.469 91.9206 108.054 87.0659C108.107 86.9638 108.158 86.864 108.213 86.7643C113.223 77.4757 120.459 71.2818 120.459 71.2818C120.459 71.2818 127.697 77.4783 132.714 86.7646Z" fill="#FFFFFE"/>
<path d="M120.461 120.851C125.539 120.851 130.478 120.417 135.22 119.595C134.299 122.716 133.112 125.513 131.717 127.881C128.098 128.715 124.334 129.155 120.461 129.155C116.587 129.155 112.818 128.715 109.205 127.881C107.815 125.513 106.628 122.716 105.708 119.595C110.444 120.417 115.383 120.851 120.461 120.851Z" fill="#1E3F8C"/>
<path d="M132.713 86.7648C129.215 89.1272 125 90.5052 120.46 90.5052C115.921 90.5052 111.712 89.1272 108.214 86.7648C113.223 77.4774 120.46 71.2821 120.46 71.2821C120.46 71.2821 127.698 77.4774 132.713 86.7648Z" fill="#EB5757"/>
<path d="M120.464 112.737C124.621 112.737 127.991 109.367 127.991 105.21C127.991 101.053 124.621 97.6832 120.464 97.6832C116.306 97.6832 112.937 101.053 112.937 105.21C112.937 109.367 116.306 112.737 120.464 112.737Z" fill="#EB5757"/>
<path d="M120.464 110.234C123.238 110.234 125.488 107.985 125.488 105.21C125.488 102.436 123.238 100.186 120.464 100.186C117.689 100.186 115.44 102.436 115.44 105.21C115.44 107.985 117.689 110.234 120.464 110.234Z" fill="#5F8EFF"/>
<path d="M124.655 140.95C124.655 144.926 120.463 148.15 120.463 148.15C120.463 148.15 116.271 144.926 116.271 140.95C116.271 136.973 118.148 133.75 120.463 133.75C122.778 133.75 124.655 136.973 124.655 140.95Z" fill="#FF9A7A"/>
<path d="M123.43 138.846C123.43 141.661 120.463 143.943 120.463 143.943C120.463 143.943 117.496 141.661 117.496 138.846C117.496 136.032 118.824 133.75 120.463 133.75C122.102 133.75 123.43 136.031 123.43 138.846Z" fill="#6D5139"/>
<path d="M126.263 134.319C126.263 140.004 123.666 140.087 120.463 140.087C117.26 140.087 114.664 140.004 114.664 134.319C114.664 128.634 117.26 119.5 120.463 119.5C123.666 119.5 126.263 128.634 126.263 134.319Z" fill="#FFFFFE"/>
<path d="M126.264 134.319C126.264 140.003 123.665 140.087 120.464 140.087C117.26 140.087 114.664 140.003 114.664 134.319C114.664 131.852 115.153 128.739 115.968 126.005C117.031 122.428 118.649 119.5 120.464 119.5C122.276 119.5 123.897 122.428 124.96 126.005C125.775 128.738 126.264 131.852 126.264 134.319Z" fill="#FFFFFE"/>
<path d="M126.263 134.319C126.263 140.004 123.666 140.087 120.463 140.087C117.26 140.087 114.664 140.004 114.664 134.319C114.664 128.634 117.26 119.5 120.463 119.5C123.666 119.5 126.263 128.634 126.263 134.319Z" fill="#FFFFFE"/>
<path d="M124.96 126.005C123.897 127.061 122.276 127.086 120.464 127.086C118.649 127.086 117.031 127.061 115.969 126.005C117.031 122.428 118.649 119.5 120.464 119.5C122.276 119.5 123.897 122.427 124.96 126.005Z" fill="#EB5757"/>
<path d="M74.1542 103.629C75.6982 103.629 76.9499 102.377 76.9499 100.833C76.9499 99.2894 75.6982 98.0377 74.1542 98.0377C72.6102 98.0377 71.3586 99.2894 71.3586 100.833C71.3586 102.377 72.6102 103.629 74.1542 103.629Z" fill="#3268E8"/>
<path d="M81.8167 103.629C83.3607 103.629 84.6124 102.377 84.6124 100.833C84.6124 99.2894 83.3607 98.0377 81.8167 98.0377C80.2727 98.0377 79.0211 99.2894 79.0211 100.833C79.0211 102.377 80.2727 103.629 81.8167 103.629Z" fill="#3268E8"/>
<path d="M89.4794 103.629C91.0234 103.629 92.2751 102.377 92.2751 100.833C92.2751 99.2894 91.0234 98.0377 89.4794 98.0377C87.9354 98.0377 86.6838 99.2894 86.6838 100.833C86.6838 102.377 87.9354 103.629 89.4794 103.629Z" fill="#3268E8"/>
<path d="M73.936 103.028C75.48 103.028 76.7316 101.776 76.7316 100.232C76.7316 98.6879 75.48 97.4363 73.936 97.4363C72.392 97.4363 71.1403 98.6879 71.1403 100.232C71.1403 101.776 72.392 103.028 73.936 103.028Z" fill="#FFFFFE"/>
<path d="M81.5984 103.028C83.1424 103.028 84.3941 101.776 84.3941 100.232C84.3941 98.6879 83.1424 97.4363 81.5984 97.4363C80.0545 97.4363 78.8028 98.6879 78.8028 100.232C78.8028 101.776 80.0545 103.028 81.5984 103.028Z" fill="#FFFFFE"/>
<path d="M89.2609 103.028C90.8049 103.028 92.0565 101.776 92.0565 100.232C92.0565 98.6879 90.8049 97.4363 89.2609 97.4363C87.7169 97.4363 86.4652 98.6879 86.4652 100.232C86.4652 101.776 87.7169 103.028 89.2609 103.028Z" fill="#FFFFFE"/>
<path d="M162.247 75.8137C163.612 75.6843 166.756 76.0523 168.808 78.8537C170.861 81.6551 169.439 84.9579 174.57 87.5037C179.701 90.0493 178.965 93.2595 177.939 97.2853C176.912 101.311 172.61 106.179 167.478 105.942C162.347 105.705 153.573 95.1403 153.888 91.5977C154.204 88.0554 155.729 87.6317 154.52 85.29C152.626 81.6206 156.139 76.3924 162.247 75.8137Z" fill="#3C2415"/>
<path d="M164.248 92.616C164.273 92.5792 164.287 92.5577 164.285 92.5568C163.716 92.3536 163.667 91.5238 164.194 88.069L163.922 88.0816L159.341 88.301C159.341 88.301 159.234 89.7163 159.041 91.0359C159.002 91.2987 158.96 91.5572 158.915 91.8004C155.468 95.2326 162.888 96.7851 164.248 92.616Z" fill="#EAC9AF"/>
<path d="M154.886 185.56H164.782C164.782 185.56 165.019 184.051 164.502 182.907C164.007 181.809 163.236 181.131 163.166 180.29C162.537 180.938 161.763 181.354 160.333 181.162C160.157 181.446 159.201 182.967 158.615 183.388C157.969 183.852 155.085 183.687 154.886 185.56Z" fill="#141416"/>
<path d="M166.502 145.106C165.58 147.381 164.871 149.449 165.093 151.273C165.093 151.278 165.095 151.281 165.095 151.282C165.12 151.484 165.157 151.682 165.205 151.877C168.453 164.863 163.849 181.772 163.849 181.772C163.849 181.772 162.633 182.052 161.753 182.131C160.193 182.271 159.965 181.806 159.965 181.806C159.965 181.806 158.417 168.017 153.402 141.658C152.679 137.851 152.394 135.744 152.133 132.36C152.054 131.347 151.978 130.22 151.895 128.898C151.667 125.346 152.206 119.367 154.872 117.796C156.085 117.079 157.737 117.277 159.956 119.024C160.131 119.163 160.297 119.327 160.493 119.468C174.129 129.283 169.32 138.164 166.502 145.106Z" fill="#B1B5C3"/>
<path d="M199.795 164.732L195.676 155.734C195.676 155.734 194.206 156.146 193.381 157.092C192.589 157.999 192.015 157.838 190.21 156.585C190.89 157.635 190.982 158.253 191.402 159.634C191.734 159.675 193.62 161.501 195.553 162.004C196.324 162.205 198.009 165.331 199.795 164.732Z" fill="#141416"/>
<path d="M156.611 121.745C156.611 121.745 165.479 152.573 168.728 154.558C171.978 156.542 188.043 160.489 192.787 161.436C192.787 161.436 192.957 160.153 192.709 158.857C192.654 158.57 192.164 157.534 192.164 157.534C192.164 157.534 183.728 149.095 175.484 147.912C173.757 147.665 176.176 120.708 164.467 119.651C153.77 118.686 156.611 121.745 156.611 121.745Z" fill="#C1C4D0"/>
<path d="M143.466 73.2302C143.466 73.2302 143.664 72.2418 143.887 71.4877C143.986 71.1539 143.298 68.9623 142.821 68.6923C142.345 68.4226 141.105 69.8987 141.456 71.032C141.636 71.6142 141.932 73.5085 141.932 73.5085L143.466 73.2302ZM184.413 75.0627C184.474 75.1878 184.558 75.4118 184.633 75.6222C184.635 75.565 184.636 75.5081 184.636 75.4523C184.64 75.0334 186.204 72.7533 186.847 72.6107C187.49 72.4678 188.398 74.6039 187.595 75.7847C187.183 76.391 185.936 78.5527 185.936 78.5527L184.556 77.7192C184.556 77.7192 184.547 77.1376 184.174 76.6661C183.987 76.4284 183.979 75.3103 183.913 74.8221C183.913 74.8221 184.19 74.6007 184.413 75.0627Z" fill="#EAC9AF"/>
<path d="M159.341 88.301C159.341 88.301 159.234 89.7166 159.041 91.0359C161.541 91.3361 163.195 89.2603 163.922 88.0816L159.341 88.301Z" fill="#EEAF56"/>
<path d="M165.33 85.1566C165.253 85.5786 165.172 86.0237 165.103 86.488C164.505 90.4745 158.12 89.4156 158.12 89.4156C157.034 89.1663 156.789 86.1237 156.896 83.7142V83.7105C157.203 82.5708 157.445 81.4237 158.132 80.5948C158.654 79.9617 159.21 79.5704 159.636 79.3364C160.231 80.7791 161.673 83.7909 163.618 84.6083C164.271 84.8843 164.843 85.0568 165.33 85.1566Z" fill="#EAC9AF"/>
<path d="M186.192 78.5708C186.192 78.5708 184.79 90.0216 181.833 92.7598C179.781 94.6593 172.518 97.7241 170.782 100.548C170.576 100.886 170.323 101.841 170.123 103.259C169.536 107.41 169.391 115.517 172.095 123.657C172.22 124.034 172.351 124.411 172.49 124.788C172.858 125.793 172.362 126.906 171.353 127.266C170.082 127.718 168.213 128.285 166.004 128.664C165.584 128.738 165.15 128.802 164.708 128.858C158.617 129.632 154.494 128.203 152.399 127.145C151.41 126.646 150.812 125.606 150.873 124.5C150.999 122.24 152.13 120.005 152.64 114.572C153.026 110.45 150.212 104.636 150.363 102.442C150.422 101.575 150.851 97.7238 150.415 97.1278C147.518 93.1491 142.645 89.3374 141.896 85.7037C141.032 81.5151 141.591 73.1557 141.591 73.1557C141.83 73.0732 142.481 72.8148 142.943 72.8148C143.765 72.813 144.343 73.5706 144.343 73.5706C144.343 73.5706 146.518 81.7126 146.627 82.2603C147.205 85.1816 152.76 89.413 154.443 90.2626C156.285 91.1944 157.757 91.6935 158.917 91.8013C158.917 91.8013 157.547 94.1677 159.574 94.496C162.014 94.891 163.897 92.0868 163.897 92.0868C163.897 92.0868 165.379 92.5034 168.048 92.1101C170.262 91.7852 178.142 89.1206 179.28 87.0989C180.11 85.6286 184.485 77.474 184.485 77.474C184.485 77.474 184.891 77.2388 185.544 77.5781C186.188 77.9139 186.192 78.5708 186.192 78.5708Z" fill="#BA8EE4"/>
<path d="M184.067 76.3611C184.067 76.3611 183.886 74.7744 183.728 74.4783C183.57 74.1821 183.964 74.0965 184.3 74.7744C184.636 75.4523 185.307 75.2479 185.642 75.9189C185.978 76.5899 185.681 76.7676 185.267 76.7279C184.853 76.6886 184.067 76.3611 184.067 76.3611ZM143.576 72.715C143.576 72.715 144.48 71.7384 144.475 71.3011C144.471 70.8638 145.107 69.7817 144.929 69.5841C144.752 69.3869 144.437 69.7026 144.269 69.9987C144.1 70.2946 143.41 70.2767 143.252 71.0849C143.094 71.8931 143.576 72.715 143.576 72.715Z" fill="#EAC9AF"/>
</svg>
