<svg width="230" height="230" viewBox="0 0 230 230" fill="none" xmlns="http://www.w3.org/2000/svg">
<path d="M213.98 171.539C214.024 175.376 212.485 178.854 209.978 181.363C207.503 183.838 204.085 185.367 200.31 185.367H30.8465C23.3284 185.367 17.0859 179.37 17.0008 171.854C16.9591 168.017 18.4958 164.538 21.0051 162.028C23.4799 159.553 26.8977 158.024 30.6726 158.024H76.1427C79.0873 158.024 81.475 155.636 81.475 152.691C81.475 151.219 80.8782 149.886 79.9139 148.92C78.9482 147.956 77.615 147.359 76.1427 147.359H37.2779C29.7598 147.359 23.5173 141.362 23.4339 133.846C23.3905 130.008 24.9272 126.529 27.4365 124.02C29.9113 121.545 33.3291 120.016 37.104 120.016H79.7949C82.7394 120.016 85.1271 117.628 85.1271 114.684C85.1271 113.211 84.5303 111.878 83.566 110.912C82.6 109.948 81.2671 109.351 79.7946 109.351H51.3677C43.8496 109.351 37.6071 103.354 37.522 95.838C37.4803 92.0007 39.017 88.5217 41.5266 86.0124C44.0014 83.5376 47.4192 82.0081 51.1941 82.0081H75.4085C78.353 82.0081 80.7407 79.6204 80.7407 76.6758C80.7407 75.2035 80.1439 73.8704 79.1796 72.9047C78.2136 71.9404 76.8808 71.3435 75.4085 71.3435H30.8457C23.3276 71.3435 17.0851 65.3466 17.0017 57.8302C16.9583 53.9929 18.495 50.5139 21.0043 48.0043C23.4791 45.5295 26.8969 44 30.6717 44H183.478C191.027 44 197.15 50.1206 197.15 57.6718C197.15 61.4464 195.618 64.8644 193.145 67.3392C190.67 69.814 187.253 71.3435 183.478 71.3435H146.192C143.248 71.3435 140.86 73.7312 140.86 76.6758C140.86 78.1481 141.457 79.4812 142.421 80.4469C143.387 81.4112 144.72 82.0081 146.192 82.0081H199.4C206.92 82.0081 213.162 88.005 213.246 95.5232C213.289 99.3604 211.751 102.838 209.243 105.347C206.768 107.822 203.351 109.351 199.576 109.351H158.037C155.092 109.351 152.704 111.739 152.704 114.684C152.704 116.156 153.301 117.489 154.265 118.455C155.231 119.419 156.564 120.016 158.037 120.016H184.212C191.762 120.016 197.884 126.136 197.884 133.688C197.884 137.462 196.353 140.88 193.88 143.355C191.405 145.83 187.987 147.359 184.212 147.359H124.912C121.967 147.359 119.579 149.747 119.579 152.692C119.579 154.164 120.176 155.497 121.141 156.463C122.107 157.427 123.439 158.024 124.912 158.024H200.135C207.654 158.024 213.897 164.021 213.98 171.539Z" fill="#EBF1FF"/>
<path d="M151.906 58.0757L151.849 58.0467C145.902 55.0107 146.701 49.1307 146.71 49.0718L146.725 48.9648H146.834C150.614 48.9648 151.803 47.7464 151.814 47.734L151.906 47.6363L151.998 47.7346C152.009 47.7464 153.197 48.9648 156.978 48.9648H157.086L157.102 49.0718C157.11 49.1307 157.909 55.0107 151.963 58.0467L151.906 58.0757ZM146.946 49.215C146.87 50.0113 146.62 55.0587 151.906 57.7942C157.192 55.0587 156.941 50.0113 156.866 49.215C153.583 49.1945 152.247 48.28 151.906 47.9899C151.564 48.28 150.228 49.1943 146.946 49.215Z" fill="#79A1FF"/>
<path d="M138.549 82.1745H138.299V68.2046H151.78V56.4562H152.031V68.455H138.549V82.1745Z" fill="#79A1FF"/>
<path d="M160.194 61.1772H158.045V60.9268H159.944V59.0299H160.194V61.1772Z" fill="#79A1FF"/>
<path d="M145.742 61.1772H143.592V59.0299H143.843V60.9268H145.742V61.1772Z" fill="#79A1FF"/>
<path d="M143.844 46.7255H143.593V44.5761H145.741V44.8266H143.844V46.7255Z" fill="#79A1FF"/>
<path d="M160.194 46.7246H159.944V44.8277H158.045V44.5773H160.194V46.7246Z" fill="#79A1FF"/>
<path d="M160.195 49.934H159.944V55.8203H160.195V49.934Z" fill="#79A1FF"/>
<path d="M143.843 49.934H143.592V55.8203H143.843V49.934Z" fill="#79A1FF"/>
<path d="M151.906 56.5816C151.398 56.5816 150.986 56.1687 150.986 55.6616C150.986 55.1544 151.398 54.7419 151.906 54.7419C152.413 54.7419 152.826 55.1544 152.826 55.6616C152.826 56.1687 152.413 56.5816 151.906 56.5816ZM151.906 54.992C151.537 54.992 151.236 55.2924 151.236 55.6613C151.236 56.0304 151.537 56.3309 151.906 56.3309C152.275 56.3309 152.575 56.0307 152.575 55.6613C152.575 55.2924 152.275 54.992 151.906 54.992Z" fill="#79A1FF"/>
<path d="M185.57 59.7516H176.543V53.3081H185.57V59.7516ZM176.794 59.5009H185.319V53.5582H176.794V59.5009Z" fill="#5F8EFF"/>
<path d="M181.057 57.2106L176.589 53.5297L176.749 53.3365L181.057 56.8863L185.365 53.3365L185.524 53.5297L181.057 57.2106Z" fill="#5F8EFF"/>
<path d="M182.29 56.1195L182.108 56.2919L185.348 59.7072L185.53 59.5348L182.29 56.1195Z" fill="#5F8EFF"/>
<path d="M179.822 56.132L176.585 59.5496L176.766 59.7218L180.004 56.3042L179.822 56.132Z" fill="#5F8EFF"/>
<path d="M123.328 53.5884H106.571L106.6 53.4392C106.869 52.0589 108.087 51.057 109.496 51.057C109.699 51.057 109.902 51.0782 110.1 51.1199C110.973 49.4608 112.669 48.4344 114.55 48.4344C116.153 48.4344 117.663 49.2035 118.611 50.4969C118.956 50.392 119.315 50.3388 119.679 50.3388C121.502 50.3388 123.028 51.6449 123.306 53.4444L123.328 53.5884ZM106.879 53.3377H123.032C122.717 51.7605 121.301 50.5889 119.679 50.5889C119.311 50.5889 118.948 50.6473 118.602 50.7623L118.513 50.7916L118.46 50.7157C117.563 49.4441 116.102 48.6848 114.55 48.6848C112.731 48.6848 111.095 49.6945 110.278 51.3197L110.234 51.4089L110.137 51.385C109.928 51.3335 109.712 51.3074 109.496 51.3074C108.258 51.3074 107.181 52.1523 106.879 53.3377Z" fill="#79A1FF"/>
<path d="M126.673 65.9871H116.079V52.4395H116.329V65.7367H126.673V65.9871Z" fill="#79A1FF"/>
<path d="M116.204 52.5649C115.697 52.5649 115.284 52.1524 115.284 51.6449C115.284 51.1378 115.697 50.7249 116.204 50.7249C116.712 50.7249 117.124 51.1375 117.124 51.6449C117.124 52.1524 116.712 52.5649 116.204 52.5649ZM116.204 50.9756C115.835 50.9756 115.535 51.2761 115.535 51.6449C115.535 52.0141 115.835 52.3142 116.204 52.3142C116.574 52.3142 116.874 52.0138 116.874 51.6449C116.874 51.2758 116.574 50.9756 116.204 50.9756Z" fill="#79A1FF"/>
<path d="M58.3672 59.2935H49.0082V49.9343H58.3672V59.2935ZM49.3791 58.9221H57.9957V50.3054H49.3791V58.9221Z" fill="#5F8EFF"/>
<path d="M53.873 52.485H53.5018V56.8475H53.873V52.485Z" fill="#5F8EFF"/>
<path d="M55.8685 54.4808H51.5066V54.852H55.8685V54.4808Z" fill="#5F8EFF"/>
<path d="M76.9952 66.6869L76.8526 66.3143C76.7249 66.2976 76.5996 66.2689 76.4777 66.2283L76.187 66.5012L75.3432 65.9006L75.5059 65.5363C75.4275 65.4345 75.3593 65.3253 75.3015 65.2103L74.9025 65.1976L74.7308 64.1762L75.1034 64.0336C75.1198 63.9056 75.1489 63.7803 75.1894 63.6587L74.9166 63.368L75.5172 62.5239L75.8811 62.6866C75.9832 62.6084 76.0922 62.54 76.2074 62.4825L76.2198 62.0837L77.2413 61.9118L77.3842 62.2841C77.5115 62.3008 77.6375 62.3295 77.7591 62.3701L78.0503 62.0972L78.8941 62.6978L78.7314 63.0621C78.8096 63.1639 78.8777 63.2731 78.9355 63.3884L79.3346 63.4008L79.5062 64.4223L79.1342 64.5649C79.1169 64.6925 79.0882 64.8181 79.0477 64.94L79.3211 65.2307L78.7199 66.0748L78.3559 65.9121C78.2544 65.9903 78.1452 66.0587 78.0302 66.1162L78.0172 66.515L76.9952 66.6869ZM76.4113 65.8997L76.4947 65.9316C76.6456 65.9897 76.8046 66.0259 76.9673 66.0397L77.0561 66.0472L77.1783 66.3666L77.7395 66.2723L77.7505 65.9305L77.8321 65.894C77.9807 65.8276 78.1185 65.7413 78.2424 65.6369L78.3108 65.5794L78.623 65.7189L78.9528 65.2551L78.7187 65.0059L78.7507 64.9225C78.809 64.7719 78.845 64.6129 78.8593 64.4501L78.8671 64.3613L79.1859 64.2394L79.0916 63.6782L78.7498 63.6673L78.7133 63.5856C78.6472 63.4373 78.5606 63.299 78.4563 63.1751L78.3988 63.1067L78.5382 62.795L78.075 62.465L77.8255 62.6987L77.7421 62.6668C77.5906 62.6087 77.4319 62.5725 77.27 62.5587L77.1812 62.5509L77.0587 62.2318L76.4978 62.3261L76.4869 62.6679L76.4052 62.7044C76.2566 62.7709 76.1183 62.8571 75.9941 62.9615L75.9263 63.0187L75.614 62.8795L75.284 63.3433L75.518 63.5925L75.4858 63.6759C75.4283 63.8266 75.3915 63.9855 75.3777 64.1483L75.37 64.2371L75.0508 64.3593L75.1457 64.9205L75.4875 64.9317L75.5238 65.0131C75.5899 65.1617 75.6767 65.3 75.7811 65.4239L75.8383 65.4923L75.6994 65.8043L76.1626 66.134L76.4113 65.8997ZM77.1159 65.4256C76.8839 65.4256 76.6582 65.354 76.4656 65.2169C75.9596 64.857 75.8409 64.152 76.2008 63.6463C76.5608 63.1403 77.2657 63.0216 77.7714 63.3815C78.0167 63.556 78.1794 63.8153 78.2291 64.112C78.2789 64.4087 78.2104 64.7072 78.0359 64.9521C77.8614 65.1974 77.6024 65.3598 77.3054 65.4098C77.2424 65.4202 77.1789 65.4256 77.1159 65.4256ZM77.1197 63.458C76.8566 63.458 76.597 63.581 76.4331 63.8113C76.3026 63.9942 76.2517 64.2173 76.2891 64.4389C76.3265 64.6603 76.4478 64.8544 76.6309 64.9843C76.8138 65.1148 77.0366 65.1657 77.2585 65.1286C77.4796 65.0913 77.674 64.9699 77.8039 64.7868C77.9344 64.604 77.9856 64.3811 77.9483 64.1595C77.9109 63.9381 77.7896 63.744 77.6064 63.6138C77.4584 63.5086 77.2884 63.458 77.1197 63.458Z" fill="#5F8EFF"/>
<path d="M69.0815 67.8783L68.7629 67.0469C68.4216 67.0086 68.0864 66.9319 67.7641 66.8183L67.1155 67.4272L65.3534 66.1734L65.7163 65.361C65.5032 65.0933 65.3207 64.8021 65.1729 64.4921L64.2831 64.4642L63.9237 62.3316L64.7552 62.0136C64.7934 61.6723 64.8704 61.3371 64.984 61.0145L64.3751 60.3659L65.6286 58.6041L66.4413 58.967C66.7087 58.7536 67.0002 58.5714 67.3102 58.4233L67.3381 57.5335L69.4704 57.1741L69.789 58.0056C70.13 58.0441 70.4646 58.1208 70.7878 58.2347L71.4364 57.6258L73.1982 58.8796L72.8353 59.6917C73.0487 59.9594 73.2309 60.2506 73.3793 60.5609L74.2688 60.5887L74.6285 62.7214L73.797 63.0394C73.7585 63.3809 73.6817 63.7159 73.5679 64.0385L74.1771 64.6871L72.923 66.4491L72.1111 66.0863C71.8438 66.2996 71.5522 66.4819 71.2423 66.63L71.2144 67.5198L69.0815 67.8783ZM67.6762 66.379L67.7874 66.4215C68.1485 66.5598 68.5277 66.6467 68.9147 66.68L69.0334 66.6904L69.325 67.4519L70.8435 67.1961L70.8691 66.381L70.9778 66.3324C71.3329 66.1743 71.6629 65.9679 71.9585 65.7189L72.0496 65.6424L72.7939 65.9745L73.6866 64.7198L73.1292 64.1256L73.1717 64.0143C73.31 63.6535 73.3971 63.274 73.4302 62.887L73.4402 62.7683L74.2021 62.4768L73.946 60.9582L73.1309 60.9326L73.0826 60.8239C72.9242 60.4689 72.7175 60.1391 72.4691 59.8438L72.3923 59.7524L72.7244 59.0086L71.47 58.1157L70.8757 58.6731L70.7648 58.6306C70.4037 58.4926 70.0245 58.4055 69.6375 58.3724L69.5185 58.3623L69.2272 57.6008L67.7086 57.8566L67.6825 58.6717L67.5738 58.7203C67.2193 58.8784 66.889 59.0848 66.5931 59.3338L66.502 59.4103L65.758 59.0782L64.8653 60.3326L65.4227 60.9268L65.3799 61.0381C65.2416 61.3986 65.1548 61.7781 65.1214 62.1651L65.1114 62.2838L64.3501 62.5754L64.6059 64.0939L65.421 64.1195L65.4693 64.2282C65.6277 64.583 65.8341 64.913 66.0831 65.2089L66.1593 65.3003L65.8272 66.0441L67.0819 66.937L67.6762 66.379ZM69.2726 64.9846C68.7793 64.9846 68.2816 64.8368 67.8498 64.5301C66.7449 63.7435 66.4859 62.2051 67.2722 61.0999C68.0585 59.9951 69.5969 59.736 70.7021 60.5223C71.8072 61.3086 72.0666 62.8473 71.2803 63.9522C70.8007 64.6255 70.0423 64.9846 69.2726 64.9846ZM69.279 60.4476C68.6284 60.4476 67.9869 60.7515 67.5821 61.3204C67.2599 61.7732 67.1334 62.3241 67.2256 62.8718C67.3182 63.4192 67.6181 63.8984 68.0703 64.2204C69.0044 64.8854 70.3053 64.6661 70.9703 63.732C71.2923 63.2797 71.4188 62.7286 71.3268 62.1809C71.2343 61.6332 70.9344 61.1543 70.4819 60.8323C70.1165 60.5724 69.6958 60.4476 69.279 60.4476Z" fill="#5F8EFF"/>
<path d="M32.3298 66.5314C29.3271 66.5314 26.8839 64.0882 26.8839 61.0856H27.1757C27.1757 63.9275 29.4878 66.2396 32.3298 66.2396C35.1717 66.2396 37.4838 63.9278 37.4838 61.0856C37.4838 58.2439 35.1717 55.9318 32.3298 55.9318V55.64C35.3324 55.64 37.7756 58.0829 37.7756 61.0856C37.7756 64.0882 35.3324 66.5314 32.3298 66.5314ZM32.3298 65.7744C29.7443 65.7744 27.6415 63.671 27.6415 61.0856C27.6415 58.5004 29.7446 56.397 32.3298 56.397C34.915 56.397 37.0183 58.5004 37.0183 61.0856H36.7262C36.7262 58.6614 34.754 56.6888 32.3295 56.6888C29.905 56.6888 27.9327 58.6611 27.9327 61.0856C27.9327 63.51 29.9047 65.4823 32.3295 65.4823V65.7744H32.3298Z" fill="#79A1FF"/>
<path d="M31.6627 62.8899L29.6983 60.9254L29.905 60.719L31.6627 62.477L34.7551 59.385L34.9612 59.5911L31.6627 62.8899Z" fill="#79A1FF"/>
<path d="M93.2671 56.347L92.0277 55.1076H86.1017V49.8417H93.2668V56.347H93.2671ZM86.3645 54.8451H92.1364L93.0043 55.713V50.1045H86.3645V54.8451Z" fill="#5F8EFF"/>
<path d="M193.993 93.5104H184.297V93.337H193.82V87.7072H193.993V93.5104Z" fill="#79A1FF"/>
<path d="M192.329 81.6432H187.693V77.0076H192.329V81.6432ZM187.847 81.4888H192.174V77.1623H187.847V81.4888Z" fill="#79A1FF"/>
<path d="M203.866 78.7073H193.256V77.5739H203.866V78.7073ZM193.41 78.5529H203.712V77.7286H193.41V78.5529Z" fill="#79A1FF"/>
<path d="M203.866 83.9772H187.693V82.8441H203.866V83.9772ZM187.847 83.8228H203.712V82.9985H187.847V83.8228Z" fill="#79A1FF"/>
<path d="M197.994 86.1535H187.693V85.0202H197.994V86.1535ZM187.847 85.9989H197.84V85.1746H187.847V85.9989Z" fill="#79A1FF"/>
<path d="M200.441 80.869H193.256V79.7357H200.441V80.869ZM193.41 80.7143H200.286V79.89H193.41V80.7143Z" fill="#79A1FF"/>
<path d="M205.708 88.6177H185.852V74.5428H205.708V88.6177ZM186.006 88.4633H205.553V74.6975H186.006V88.4633Z" fill="#79A1FF"/>
<path d="M193.906 87.8236C193.556 87.8236 193.27 87.5384 193.27 87.1877C193.27 86.8372 193.556 86.5517 193.906 86.5517C194.257 86.5517 194.542 86.8369 194.542 87.1877C194.542 87.5381 194.257 87.8236 193.906 87.8236ZM193.906 86.7248C193.651 86.7248 193.443 86.9324 193.443 87.1874C193.443 87.4424 193.651 87.65 193.906 87.65C194.161 87.65 194.369 87.4424 194.369 87.1874C194.369 86.9324 194.161 86.7248 193.906 86.7248Z" fill="#79A1FF"/>
<path d="M163.748 73.02V181.251C163.748 182.549 162.697 183.601 161.399 183.601H53.1678C51.87 183.601 50.8183 182.549 50.8183 181.251V73.02C50.8183 71.7222 51.8697 70.6705 53.1678 70.6705H161.399C162.697 70.6705 163.748 71.7222 163.748 73.02Z" fill="#13375B"/>
<path d="M158.635 89.5892V178.467H55.9522V89.5892H64.6422V86.6797C64.6422 84.0556 66.772 81.9258 69.396 81.9258H104.099C106.723 81.9258 108.853 84.0556 108.853 86.6797V89.5892H158.635Z" fill="white"/>
<path d="M127.22 85.9209C129.426 85.9209 131.215 84.1323 131.215 81.9258C131.215 79.7194 129.426 77.9307 127.22 77.9307C125.014 77.9307 123.225 79.7194 123.225 81.9258C123.225 84.1323 125.014 85.9209 127.22 85.9209Z" fill="#A9C83E"/>
<path d="M138.94 85.9209C141.147 85.9209 142.935 84.1323 142.935 81.9258C142.935 79.7194 141.147 77.9307 138.94 77.9307C136.734 77.9307 134.945 79.7194 134.945 81.9258C134.945 84.1323 136.734 85.9209 138.94 85.9209Z" fill="#E64D3C"/>
<path d="M150.66 85.9209C152.867 85.9209 154.655 84.1323 154.655 81.9258C154.655 79.7194 152.867 77.9307 150.66 77.9307C148.454 77.9307 146.665 79.7194 146.665 81.9258C146.665 84.1323 148.454 85.9209 150.66 85.9209Z" fill="#73C2E5"/>
<path d="M105.498 88.9236C105.871 89.2962 105.871 89.9019 105.498 90.2745C105.311 90.4617 105.066 90.5534 104.821 90.5534C104.577 90.5534 104.332 90.4617 104.145 90.2745L102.981 89.109L101.816 90.2745C101.629 90.4617 101.384 90.5534 101.139 90.5534C100.895 90.5534 100.65 90.4617 100.465 90.2745C100.09 89.9019 100.09 89.2962 100.465 88.9236L101.63 87.7581L100.465 86.5925C100.09 86.2199 100.09 85.6142 100.465 85.2416C100.838 84.869 101.441 84.869 101.816 85.2416L102.981 86.4071L104.145 85.2416C104.52 84.869 105.123 84.869 105.498 85.2416C105.87 85.6142 105.87 86.2199 105.498 86.5925L104.332 87.7581L105.498 88.9236Z" fill="#E7E8E8"/>
<path d="M64.9176 113.6C65.4646 113.6 65.908 113.156 65.908 112.609C65.908 112.062 65.4646 111.619 64.9176 111.619C64.3706 111.619 63.9272 112.062 63.9272 112.609C63.9272 113.156 64.3706 113.6 64.9176 113.6Z" fill="#E7E8E8"/>
<path d="M78.755 112.609C78.755 113.156 78.3116 113.599 77.7645 113.599H68.1865C67.6393 113.599 67.196 113.156 67.196 112.609C67.196 112.062 67.6393 111.619 68.1865 111.619H77.7645C78.3116 111.619 78.755 112.062 78.755 112.609Z" fill="#E7E8E8"/>
<path d="M64.9176 117.62C65.4646 117.62 65.908 117.176 65.908 116.629C65.908 116.082 65.4646 115.639 64.9176 115.639C64.3706 115.639 63.9272 116.082 63.9272 116.629C63.9272 117.176 64.3706 117.62 64.9176 117.62Z" fill="#E7E8E8"/>
<path d="M78.755 116.629C78.755 117.176 78.3116 117.619 77.7645 117.619H68.1865C67.6393 117.619 67.196 117.176 67.196 116.629C67.196 116.082 67.6393 115.638 68.1865 115.638H77.7645C78.3116 115.638 78.755 116.082 78.755 116.629Z" fill="#E7E8E8"/>
<path d="M88.8859 113.6C89.4329 113.6 89.8763 113.156 89.8763 112.609C89.8763 112.062 89.4329 111.619 88.8859 111.619C88.3389 111.619 87.8954 112.062 87.8954 112.609C87.8954 113.156 88.3389 113.6 88.8859 113.6Z" fill="#E7E8E8"/>
<path d="M102.723 112.609C102.723 113.156 102.28 113.599 101.733 113.599H92.1547C91.6076 113.599 91.1643 113.156 91.1643 112.609C91.1643 112.062 91.6076 111.619 92.1547 111.619H101.733C102.28 111.619 102.723 112.062 102.723 112.609Z" fill="#E7E8E8"/>
<path d="M88.8859 117.62C89.4329 117.62 89.8763 117.176 89.8763 116.629C89.8763 116.082 89.4329 115.639 88.8859 115.639C88.3389 115.639 87.8954 116.082 87.8954 116.629C87.8954 117.176 88.3389 117.62 88.8859 117.62Z" fill="#E7E8E8"/>
<path d="M102.723 116.629C102.723 117.176 102.28 117.619 101.733 117.619H92.1547C91.6076 117.619 91.1643 117.176 91.1643 116.629C91.1643 116.082 91.6076 115.638 92.1547 115.638H101.733C102.28 115.638 102.723 116.082 102.723 116.629Z" fill="#E7E8E8"/>
<path d="M112.854 113.6C113.401 113.6 113.845 113.156 113.845 112.609C113.845 112.062 113.401 111.619 112.854 111.619C112.307 111.619 111.864 112.062 111.864 112.609C111.864 113.156 112.307 113.6 112.854 113.6Z" fill="#E7E8E8"/>
<path d="M126.692 112.609C126.692 113.156 126.249 113.599 125.701 113.599H116.123C115.576 113.599 115.133 113.156 115.133 112.609C115.133 112.062 115.576 111.619 116.123 111.619H125.701C126.249 111.619 126.692 112.062 126.692 112.609Z" fill="#E7E8E8"/>
<path d="M112.854 117.62C113.401 117.62 113.845 117.176 113.845 116.629C113.845 116.082 113.401 115.639 112.854 115.639C112.307 115.639 111.864 116.082 111.864 116.629C111.864 117.176 112.307 117.62 112.854 117.62Z" fill="#E7E8E8"/>
<path d="M126.692 116.629C126.692 117.176 126.249 117.619 125.701 117.619H116.123C115.576 117.619 115.133 117.176 115.133 116.629C115.133 116.082 115.576 115.638 116.123 115.638H125.701C126.249 115.638 126.692 116.082 126.692 116.629Z" fill="#E7E8E8"/>
<path d="M64.9176 117.62C65.4646 117.62 65.908 117.176 65.908 116.629C65.908 116.082 65.4646 115.639 64.9176 115.639C64.3706 115.639 63.9272 116.082 63.9272 116.629C63.9272 117.176 64.3706 117.62 64.9176 117.62Z" fill="#E7E8E8"/>
<path d="M78.755 116.629C78.755 117.176 78.3116 117.619 77.7645 117.619H68.1865C67.6393 117.619 67.196 117.176 67.196 116.629C67.196 116.082 67.6393 115.638 68.1865 115.638H77.7645C78.3116 115.638 78.755 116.082 78.755 116.629Z" fill="#E7E8E8"/>
<path d="M64.9176 121.639C65.4646 121.639 65.908 121.196 65.908 120.649C65.908 120.102 65.4646 119.658 64.9176 119.658C64.3706 119.658 63.9272 120.102 63.9272 120.649C63.9272 121.196 64.3706 121.639 64.9176 121.639Z" fill="#E7E8E8"/>
<path d="M78.755 120.649C78.755 121.196 78.3116 121.639 77.7645 121.639H68.1865C67.6393 121.639 67.196 121.196 67.196 120.649C67.196 120.102 67.6393 119.658 68.1865 119.658H77.7645C78.3116 119.658 78.755 120.102 78.755 120.649Z" fill="#E7E8E8"/>
<path d="M88.8859 117.62C89.4329 117.62 89.8763 117.176 89.8763 116.629C89.8763 116.082 89.4329 115.639 88.8859 115.639C88.3389 115.639 87.8954 116.082 87.8954 116.629C87.8954 117.176 88.3389 117.62 88.8859 117.62Z" fill="#E7E8E8"/>
<path d="M102.723 116.629C102.723 117.176 102.28 117.619 101.733 117.619H92.1547C91.6076 117.619 91.1643 117.176 91.1643 116.629C91.1643 116.082 91.6076 115.638 92.1547 115.638H101.733C102.28 115.638 102.723 116.082 102.723 116.629Z" fill="#E7E8E8"/>
<path d="M88.8859 121.639C89.4329 121.639 89.8763 121.196 89.8763 120.649C89.8763 120.102 89.4329 119.658 88.8859 119.658C88.3389 119.658 87.8954 120.102 87.8954 120.649C87.8954 121.196 88.3389 121.639 88.8859 121.639Z" fill="#E7E8E8"/>
<path d="M102.723 120.649C102.723 121.196 102.28 121.639 101.733 121.639H92.1547C91.6076 121.639 91.1643 121.196 91.1643 120.649C91.1643 120.102 91.6076 119.658 92.1547 119.658H101.733C102.28 119.658 102.723 120.102 102.723 120.649Z" fill="#E7E8E8"/>
<path d="M112.854 117.62C113.401 117.62 113.845 117.176 113.845 116.629C113.845 116.082 113.401 115.639 112.854 115.639C112.307 115.639 111.864 116.082 111.864 116.629C111.864 117.176 112.307 117.62 112.854 117.62Z" fill="#E7E8E8"/>
<path d="M126.692 116.629C126.692 117.176 126.249 117.619 125.701 117.619H116.123C115.576 117.619 115.133 117.176 115.133 116.629C115.133 116.082 115.576 115.638 116.123 115.638H125.701C126.249 115.638 126.692 116.082 126.692 116.629Z" fill="#E7E8E8"/>
<path d="M112.854 121.639C113.401 121.639 113.845 121.196 113.845 120.649C113.845 120.102 113.401 119.658 112.854 119.658C112.307 119.658 111.864 120.102 111.864 120.649C111.864 121.196 112.307 121.639 112.854 121.639Z" fill="#E7E8E8"/>
<path d="M126.692 120.649C126.692 121.196 126.249 121.639 125.701 121.639H116.123C115.576 121.639 115.133 121.196 115.133 120.649C115.133 120.102 115.576 119.658 116.123 119.658H125.701C126.249 119.658 126.692 120.102 126.692 120.649Z" fill="#E7E8E8"/>
<path d="M72.9296 109.741C70.1751 109.741 67.9337 107.5 67.9337 104.745C67.9337 101.99 70.1751 99.7488 72.9296 99.7488C75.6845 99.7488 77.9258 101.99 77.9258 104.745C77.9258 107.5 75.6845 109.741 72.9296 109.741Z" fill="#B1B5C4"/>
<path d="M96.8979 109.741C99.6572 109.741 101.894 107.504 101.894 104.745C101.894 101.986 99.6572 99.7488 96.8979 99.7488C94.1386 99.7488 91.9018 101.986 91.9018 104.745C91.9018 107.504 94.1386 109.741 96.8979 109.741Z" fill="#4FAADE"/>
<path d="M120.867 109.741C118.112 109.741 115.87 107.5 115.87 104.745C115.87 101.99 118.112 99.7488 120.867 99.7488C123.621 99.7488 125.862 101.99 125.862 104.745C125.862 107.5 123.621 109.741 120.867 109.741Z" fill="#FFD166"/>
<path d="M150.66 129.055H63.9272V149.182H150.66V129.055Z" fill="#E7E8E8"/>
<path d="M150.66 157.428H63.9272V162.873H150.66V157.428Z" fill="#E7E8E8"/>
<path d="M64.2992 161.428V178.287C64.2992 180.199 62.7496 181.748 60.838 181.748H32.7268C30.8138 181.748 29.2627 180.197 29.2627 178.284V157.502C29.2627 155.588 30.8155 154.037 32.7268 154.037H37.815C38.2474 154.037 38.672 154.154 39.0437 154.375L44.5065 157.625C44.8783 157.847 41.7163 157.963 42.149 157.963H60.8351C62.7484 157.964 64.2992 159.515 64.2992 161.428Z" fill="#FECE00"/>
<path d="M64.2992 161.428V178.288C64.2992 180.199 62.7493 181.749 60.838 181.749H32.7268C30.8129 181.749 29.2627 180.199 29.2627 178.285V157.5C29.2627 155.586 30.8155 154.036 32.7268 154.036H37.8153C38.2482 154.036 38.6732 154.155 39.0426 154.376L44.5062 157.625C44.8786 157.848 41.7169 157.964 42.1499 157.964H60.8351C62.7493 157.964 64.2992 159.514 64.2992 161.428Z" fill="#EC8D2F"/>
<path d="M62.2344 145.104V179.726C62.2344 181.433 60.8503 182.817 59.1432 182.817H34.421C32.7124 182.817 31.3272 181.432 31.3272 179.723V145.104H62.2344Z" fill="#EBF1FF"/>
<path d="M66.3864 166.003L64.6258 182.804C64.4441 184.538 62.7464 185.922 60.8351 185.922H32.7265C30.8152 185.922 29.1175 184.539 28.9358 182.804L27.1752 166.003C26.9547 163.9 28.5258 162.164 30.6835 162.164H62.8781C65.0358 162.164 66.6069 163.9 66.3864 166.003Z" fill="#FFD166"/>
<path d="M48.3913 148.397L43.6644 160.188L45.1705 160.792L49.8974 149L48.3913 148.397Z" fill="#667DA6"/>
<path d="M43.6903 158.114L42.5441 159.26L37.8756 154.594L42.5441 149.928L43.6903 151.074L40.1702 154.594L43.6903 158.114Z" fill="#667DA6"/>
<path d="M55.6863 154.594L51.0178 159.26L49.8719 158.114L53.3894 154.594L49.8719 151.074L51.0178 149.928L55.6863 154.594Z" fill="#667DA6"/>
<path d="M158.641 125.868C159.388 125.797 161.108 125.998 162.231 127.531C163.354 129.064 162.577 130.872 165.384 132.265C168.192 133.658 167.789 135.414 167.227 137.617C166.666 139.82 164.311 142.484 161.504 142.354C158.696 142.224 153.894 136.443 154.067 134.505C154.24 132.566 155.074 132.334 154.413 131.053C153.376 129.046 155.298 126.185 158.641 125.868Z" fill="#3C2415"/>
<path d="M159.736 135.062C159.75 135.042 159.757 135.031 159.756 135.03C159.445 134.919 159.418 134.465 159.706 132.574L159.557 132.581L157.051 132.701C157.051 132.701 156.992 133.475 156.887 134.198C156.866 134.341 156.843 134.483 156.818 134.616C154.931 136.494 158.991 137.344 159.736 135.062Z" fill="#EAC9AF"/>
<path d="M154.613 185.922H160.028C160.028 185.922 160.158 185.096 159.875 184.47C159.604 183.869 159.182 183.498 159.144 183.038C158.8 183.392 158.376 183.62 157.593 183.515C157.497 183.671 156.974 184.503 156.654 184.733C156.3 184.987 154.722 184.897 154.613 185.922Z" fill="#693518"/>
<path d="M160.969 163.785C160.464 165.03 160.077 166.162 160.198 167.16C160.198 167.162 160.199 167.164 160.199 167.165C160.213 167.275 160.233 167.383 160.259 167.49C162.037 174.596 159.517 183.849 159.517 183.849C159.517 183.849 158.852 184.002 158.37 184.046C157.516 184.122 157.392 183.868 157.392 183.868C157.392 183.868 156.545 176.322 153.801 161.898C153.406 159.815 153.249 158.662 153.106 156.81C153.063 156.256 153.022 155.639 152.976 154.916C152.851 152.972 153.146 149.7 154.605 148.841C155.269 148.448 156.172 148.556 157.387 149.513C157.483 149.589 157.574 149.679 157.681 149.755C165.143 155.127 162.511 159.986 160.969 163.785Z" fill="#355389"/>
<path d="M179.187 174.525L176.934 169.601C176.934 169.601 176.129 169.826 175.678 170.344C175.244 170.84 174.93 170.752 173.942 170.067C174.314 170.641 174.365 170.979 174.595 171.735C174.776 171.758 175.808 172.757 176.866 173.032C177.288 173.142 178.21 174.852 179.187 174.525Z" fill="#693518"/>
<path d="M155.557 151.002C155.557 151.002 160.409 167.871 162.187 168.957C163.965 170.043 172.756 172.203 175.352 172.721C175.352 172.721 175.445 172.019 175.309 171.31C175.279 171.153 175.011 170.586 175.011 170.586C175.011 170.586 170.395 165.968 165.884 165.321C164.939 165.185 166.262 150.435 159.855 149.856C154.002 149.328 155.557 151.002 155.557 151.002Z" fill="#667DA6"/>
<path d="M148.364 124.455C148.364 124.455 148.472 123.914 148.594 123.501C148.648 123.319 148.272 122.119 148.011 121.972C147.75 121.824 147.071 122.632 147.264 123.252C147.362 123.571 147.524 124.607 147.524 124.607L148.364 124.455Z" fill="#EAC9AF"/>
<path d="M170.771 125.457C170.804 125.526 170.85 125.648 170.891 125.763C170.892 125.732 170.892 125.701 170.892 125.67C170.895 125.441 171.751 124.194 172.102 124.115C172.454 124.037 172.951 125.206 172.512 125.852C172.286 126.184 171.604 127.367 171.604 127.367L170.848 126.911C170.848 126.911 170.844 126.592 170.64 126.335C170.537 126.205 170.533 125.592 170.497 125.325C170.497 125.325 170.648 125.204 170.771 125.457Z" fill="#EAC9AF"/>
<path d="M157.051 132.701C157.051 132.701 156.992 133.476 156.887 134.198C158.255 134.362 159.16 133.226 159.557 132.581L157.051 132.701Z" fill="#EEAF56"/>
<path d="M160.328 130.981C160.286 131.211 160.242 131.455 160.204 131.709C159.876 133.891 156.383 133.311 156.383 133.311C155.788 133.174 155.654 131.51 155.713 130.191V130.189C155.881 129.565 156.013 128.938 156.389 128.484C156.674 128.138 156.979 127.924 157.212 127.796C157.537 128.585 158.327 130.233 159.391 130.68C159.748 130.832 160.061 130.926 160.328 130.981Z" fill="#EAC9AF"/>
<path d="M171.744 127.377C171.744 127.377 170.976 133.643 169.358 135.141C168.235 136.181 164.261 137.858 163.311 139.403C163.198 139.587 163.06 140.11 162.951 140.886C162.63 143.158 162.55 147.593 164.029 152.048C164.098 152.254 164.17 152.461 164.246 152.667C164.447 153.217 164.176 153.826 163.624 154.023C162.928 154.27 161.905 154.581 160.697 154.788C160.467 154.828 160.23 154.864 159.988 154.894C156.654 155.318 154.399 154.535 153.252 153.957C152.711 153.684 152.384 153.115 152.417 152.51C152.486 151.273 153.105 150.05 153.384 147.077C153.595 144.821 152.055 141.64 152.138 140.439C152.17 139.965 152.405 137.857 152.166 137.531C150.581 135.354 147.914 133.268 147.505 131.28C147.032 128.988 147.338 124.413 147.338 124.413C147.468 124.368 147.825 124.227 148.077 124.227C148.527 124.226 148.844 124.641 148.844 124.641C148.844 124.641 150.033 129.096 150.093 129.396C150.41 130.994 153.449 133.31 154.37 133.774C155.378 134.284 156.184 134.557 156.818 134.616C156.818 134.616 156.069 135.911 157.178 136.091C158.513 136.307 159.544 134.772 159.544 134.772C159.544 134.772 160.354 135 161.815 134.785C163.026 134.607 167.339 133.149 167.961 132.043C168.415 131.238 170.81 126.776 170.81 126.776C170.81 126.776 171.032 126.648 171.389 126.833C171.742 127.017 171.744 127.377 171.744 127.377Z" fill="#BA8EE4"/>
<path d="M178.611 105.167L176.209 125.496C176.152 125.979 175.713 126.326 175.23 126.267L143.267 122.492C142.784 122.435 142.438 121.997 142.495 121.514L144.999 100.311L145.507 96.0151C145.564 95.5321 146.003 95.1856 146.486 95.2425L153.171 96.032C154.792 96.2252 156.135 97.3821 156.566 98.9568C157.028 100.655 158.476 101.902 160.225 102.11L177.838 104.191C178.321 104.247 178.667 104.684 178.611 105.167Z" fill="#EB5757"/>
<path d="M148.738 112.311L148.97 110.347L156.216 108.143L155.979 110.15L150.934 111.56L155.512 114.107L155.271 116.142L148.738 112.311Z" fill="white"/>
<path d="M163.653 106.64L165.489 106.856L157.627 119.292L155.79 119.076L163.653 106.64Z" fill="white"/>
<path d="M172.514 113.127L172.282 115.092L165.036 117.296L165.273 115.288L170.318 113.878L165.74 111.331L165.98 109.296L172.514 113.127Z" fill="white"/>
<path d="M170.581 126.167C170.581 126.167 170.482 125.299 170.395 125.137C170.309 124.975 170.525 124.928 170.708 125.299C170.892 125.67 171.259 125.558 171.443 125.926C171.626 126.293 171.464 126.39 171.237 126.368C171.011 126.347 170.581 126.167 170.581 126.167Z" fill="#EAC9AF"/>
<path d="M148.424 124.173C148.424 124.173 148.918 123.638 148.916 123.399C148.914 123.16 149.261 122.567 149.164 122.459C149.067 122.351 148.895 122.524 148.803 122.686C148.711 122.848 148.333 122.838 148.246 123.28C148.16 123.723 148.424 124.173 148.424 124.173Z" fill="#EAC9AF"/>
</svg>
