<svg width="230" height="230" viewBox="0 0 230 230" fill="none" xmlns="http://www.w3.org/2000/svg">
<path d="M213.49 171.448C213.533 175.285 211.995 178.762 209.487 181.272C207.012 183.746 203.595 185.276 199.82 185.276H30.356C22.8378 185.276 16.5954 179.279 16.5103 171.763C16.4686 167.926 18.0053 164.447 20.5146 161.937C22.9894 159.462 26.4072 157.933 30.182 157.933H75.6522C78.5967 157.933 80.9844 155.545 80.9844 152.6C80.9844 151.128 80.3876 149.795 79.4233 148.829C78.4576 147.865 77.1245 147.268 75.6522 147.268H36.7873C29.2692 147.268 23.0267 141.271 22.9434 133.755C22.8999 129.918 24.4366 126.438 26.9459 123.929C29.4207 121.454 32.8385 119.925 36.6134 119.925H79.3043C82.2489 119.925 84.6365 117.537 84.6365 114.593C84.6365 113.12 84.0397 111.787 83.0754 110.821C82.1094 109.857 80.7766 109.26 79.304 109.26H50.8771C43.359 109.26 37.1165 103.263 37.0314 95.747C36.9897 91.9097 38.5264 88.4307 41.036 85.9214C43.5108 83.4466 46.9286 81.9171 50.7035 81.9171H74.9179C77.8625 81.9171 80.2502 79.5294 80.2502 76.5848C80.2502 75.1125 79.6533 73.7794 78.689 72.8137C77.723 71.8494 76.3902 71.2526 74.9179 71.2526H30.3551C22.837 71.2526 16.5945 65.2556 16.5111 57.7392C16.4677 53.9019 18.0044 50.4229 20.5137 47.9133C22.9885 45.4385 26.4063 43.909 30.1812 43.909H182.987C190.537 43.909 196.659 50.0296 196.659 57.5808C196.659 61.3554 195.128 64.7735 192.655 67.2483C190.18 69.7231 186.762 71.2526 182.987 71.2526H145.702C142.757 71.2526 140.37 73.6403 140.37 76.5848C140.37 78.0571 140.966 79.3903 141.931 80.356C142.896 81.3202 144.23 81.9171 145.702 81.9171H198.909C206.429 81.9171 212.672 87.9141 212.755 95.4322C212.799 99.2694 211.26 102.747 208.753 105.256C206.278 107.731 202.86 109.26 199.085 109.26H157.546C154.601 109.26 152.214 111.648 152.214 114.593C152.214 116.065 152.811 117.398 153.775 118.364C154.741 119.328 156.074 119.925 157.546 119.925H183.722C191.271 119.925 197.393 126.045 197.393 133.597C197.393 137.371 195.862 140.789 193.389 143.264C190.914 145.739 187.497 147.268 183.722 147.268H124.421C121.477 147.268 119.089 149.656 119.089 152.601C119.089 154.073 119.686 155.406 120.65 156.372C121.616 157.336 122.949 157.933 124.421 157.933H199.644C207.164 157.933 213.406 163.93 213.49 171.448Z" fill="#EBF1FF"/>
<path d="M151.415 57.9844L151.358 57.9554C145.412 54.9194 146.21 49.0395 146.219 48.9805L146.235 48.8736H146.343C150.124 48.8736 151.312 47.6551 151.324 47.6428L151.416 47.545L151.507 47.6434C151.519 47.6551 152.707 48.8736 156.487 48.8736H156.596L156.611 48.9805C156.62 49.0395 157.419 54.9194 151.472 57.9554L151.415 57.9844ZM146.455 49.1237C146.38 49.9201 146.129 54.9674 151.415 57.703C156.701 54.9674 156.451 49.9201 156.376 49.1237C153.093 49.1033 151.757 48.1887 151.415 47.8987C151.074 48.1887 149.737 49.1033 146.455 49.1237Z" fill="#79A1FF"/>
<path d="M138.059 82.0833H137.809V68.1134H151.29V56.365H151.54V68.364H138.059V82.0833Z" fill="#79A1FF"/>
<path d="M159.704 61.0863H157.555V60.8356H159.454V58.9386H159.704V61.0863Z" fill="#79A1FF"/>
<path d="M145.251 61.0863H143.102V58.9386H143.353V60.8356H145.251V61.0863Z" fill="#79A1FF"/>
<path d="M143.354 46.6345H143.103V44.4852H145.251V44.7353H143.354V46.6345Z" fill="#79A1FF"/>
<path d="M159.704 46.6336H159.454V44.7364H157.555V44.486H159.704V46.6336Z" fill="#79A1FF"/>
<path d="M159.704 49.843H159.454V55.7293H159.704V49.843Z" fill="#79A1FF"/>
<path d="M143.353 49.843H143.102V55.7293H143.353V49.843Z" fill="#79A1FF"/>
<path d="M151.415 56.4903C150.908 56.4903 150.495 56.0774 150.495 55.5703C150.495 55.0631 150.908 54.6506 151.415 54.6506C151.922 54.6506 152.335 55.0631 152.335 55.5703C152.335 56.0774 151.922 56.4903 151.415 56.4903ZM151.415 54.901C151.046 54.901 150.746 55.2014 150.746 55.5703C150.746 55.9394 151.046 56.2399 151.415 56.2399C151.784 56.2399 152.084 55.9397 152.084 55.5703C152.084 55.2011 151.784 54.901 151.415 54.901Z" fill="#79A1FF"/>
<path d="M185.079 59.6603H176.053V53.2168H185.079V59.6603ZM176.304 59.4099H184.828V53.4672H176.304V59.4099Z" fill="#5F8EFF"/>
<path d="M180.566 57.1196L176.099 53.4388L176.258 53.2456L180.566 56.7951L184.875 53.2456L185.034 53.4388L180.566 57.1196Z" fill="#5F8EFF"/>
<path d="M181.799 56.0282L181.618 56.2005L184.858 59.6158L185.039 59.4435L181.799 56.0282Z" fill="#5F8EFF"/>
<path d="M179.332 56.0409L176.094 59.4586L176.276 59.6308L179.513 56.2131L179.332 56.0409Z" fill="#5F8EFF"/>
<path d="M122.837 53.4971H106.08L106.109 53.3479C106.378 51.9676 107.597 50.9657 109.005 50.9657C109.209 50.9657 109.411 50.987 109.609 51.0287C110.483 49.3695 112.178 48.3431 114.059 48.3431C115.662 48.3431 117.173 49.1122 118.12 50.4057C118.465 50.3007 118.824 50.2475 119.188 50.2475C121.012 50.2475 122.537 51.5536 122.815 53.3531L122.837 53.4971ZM106.389 53.2467H122.542C122.227 51.6695 120.81 50.4979 119.188 50.4979C118.82 50.4979 118.457 50.5563 118.111 50.6713L118.022 50.7006L117.969 50.6247C117.073 49.3531 115.612 48.5938 114.059 48.5938C112.241 48.5938 110.604 49.6035 109.788 51.2288L109.743 51.3179L109.646 51.294C109.437 51.2426 109.222 51.2164 109.005 51.2164C107.767 51.2164 106.691 52.0614 106.389 53.2467Z" fill="#79A1FF"/>
<path d="M126.182 65.8959H115.589V52.3483H115.839V65.6457H126.182V65.8959Z" fill="#79A1FF"/>
<path d="M115.714 52.4736C115.206 52.4736 114.794 52.0611 114.794 51.5536C114.794 51.0465 115.206 50.6336 115.714 50.6336C116.221 50.6336 116.634 51.0462 116.634 51.5536C116.634 52.0611 116.221 52.4736 115.714 52.4736ZM115.714 50.8843C115.344 50.8843 115.044 51.1848 115.044 51.5536C115.044 51.9228 115.345 52.2229 115.714 52.2229C116.083 52.2229 116.383 51.9225 116.383 51.5536C116.383 51.1848 116.083 50.8843 115.714 50.8843Z" fill="#79A1FF"/>
<path d="M57.8766 59.2023H48.5176V49.843H57.8766V59.2023ZM48.8885 58.8311H57.5052V50.2145H48.8885V58.8311Z" fill="#5F8EFF"/>
<path d="M53.3824 52.394H53.0113V56.7565H53.3824V52.394Z" fill="#5F8EFF"/>
<path d="M55.378 54.3895H51.016V54.7607H55.378V54.3895Z" fill="#5F8EFF"/>
<path d="M76.5046 66.5956L76.362 66.223C76.2343 66.2064 76.109 66.1776 75.9871 66.1371L75.6964 66.4099L74.8526 65.8093L75.0153 65.4451C74.9369 65.3433 74.8687 65.234 74.8109 65.119L74.4119 65.1064L74.2402 64.0849L74.6128 63.9423C74.6292 63.8144 74.6583 63.689 74.6988 63.5674L74.426 63.2767L75.0266 62.4326L75.3905 62.5954C75.4926 62.5172 75.6016 62.4487 75.7168 62.3912L75.7292 61.9925L76.7507 61.8205L76.8936 62.1929C77.0209 62.2095 77.1469 62.2383 77.2685 62.2788L77.5597 62.006L78.4035 62.6066L78.2408 62.9708C78.319 63.0726 78.3871 63.1819 78.4449 63.2971L78.844 63.3095L79.0156 64.331L78.6436 64.4736C78.6263 64.6012 78.5976 64.7269 78.5571 64.8488L78.8305 65.1395L78.2293 65.9835L77.8653 65.8208C77.7638 65.899 77.6546 65.9674 77.5396 66.0249L77.5266 66.4237L76.5046 66.5956ZM75.9207 65.8085L76.004 65.8404C76.155 65.8984 76.314 65.9347 76.4767 65.9485L76.5655 65.9559L76.6877 66.2754L77.2489 66.1811L77.2599 65.8392L77.3415 65.8027C77.4901 65.7363 77.6279 65.65 77.7518 65.5457L77.8202 65.4882L78.1324 65.6276L78.4622 65.1639L78.2281 64.9146L78.2601 64.8312C78.3184 64.6806 78.3544 64.5216 78.3687 64.3589L78.3765 64.2701L78.6953 64.1481L78.601 63.5869L78.2592 63.576L78.2227 63.4944C78.1566 63.346 78.07 63.2077 77.9657 63.0838L77.9082 63.0154L78.0476 62.7038L77.5844 62.3737L77.3349 62.6074L77.2515 62.5755C77.1 62.5175 76.9413 62.4812 76.7794 62.4674L76.6906 62.4597L76.5681 62.1405L76.0072 62.2348L75.9963 62.5767L75.9146 62.6132C75.766 62.6796 75.6277 62.7658 75.5035 62.8702L75.4357 62.9274L75.1234 62.7883L74.7934 63.252L75.0274 63.5013L74.9952 63.5846C74.9377 63.7353 74.9009 63.8943 74.8871 64.057L74.8794 64.1458L74.5602 64.268L74.6551 64.8292L74.9969 64.8404L75.0332 64.9218C75.0993 65.0704 75.1861 65.2087 75.2905 65.3326L75.3477 65.4011L75.2088 65.713L75.672 66.0428L75.9207 65.8085ZM76.6253 65.3344C76.3933 65.3344 76.1676 65.2628 75.975 65.1256C75.469 64.7657 75.3503 64.0608 75.7102 63.555C76.0702 63.049 76.7751 62.9303 77.2808 63.2902C77.5261 63.4648 77.6888 63.7241 77.7385 64.0208C77.7883 64.3175 77.7198 64.6159 77.5453 64.8609C77.3708 65.1061 77.1118 65.2685 76.8148 65.3186C76.7518 65.3292 76.6883 65.3344 76.6253 65.3344ZM76.6291 63.3667C76.366 63.3667 76.1064 63.4898 75.9425 63.7201C75.812 63.9029 75.7611 64.126 75.7985 64.3477C75.8359 64.569 75.9572 64.7631 76.1403 64.8931C76.3232 65.0236 76.546 65.0745 76.7679 65.0374C76.989 65 77.1834 64.8787 77.3133 64.6955C77.4438 64.5127 77.495 64.2899 77.4576 64.0682C77.4203 63.8468 77.299 63.6528 77.1158 63.5225C76.9678 63.4173 76.7978 63.3667 76.6291 63.3667Z" fill="#5F8EFF"/>
<path d="M68.5909 67.787L68.2723 66.9556C67.9311 66.9174 67.5958 66.8406 67.2736 66.727L66.625 67.336L64.8629 66.0822L65.2257 65.2697C65.0127 65.002 64.8301 64.7108 64.6823 64.4009L63.7925 64.373L63.4331 62.2403L64.2646 61.9223C64.3028 61.5811 64.3799 61.2458 64.4934 60.9233L63.8845 60.2747L65.138 58.5129L65.9508 58.8757C66.2181 58.6624 66.5097 58.4801 66.8196 58.332L66.8475 57.4422L68.9799 57.0828L69.2984 57.9143C69.6394 57.9528 69.974 58.0296 70.2972 58.1434L70.9458 57.5345L72.7076 58.7883L72.3448 59.6005C72.5581 59.8681 72.7404 60.1594 72.8887 60.4696L73.7782 60.4975L74.1379 62.6301L73.3065 62.9481C73.2679 63.2897 73.1912 63.6246 73.0773 63.9472L73.6865 64.5958L72.4325 66.3579L71.6206 65.9951C71.3532 66.2084 71.0617 66.3906 70.7517 66.5387L70.7239 67.4285L68.5909 67.787ZM67.1856 66.2877L67.2969 66.3303C67.658 66.4686 68.0372 66.5554 68.4241 66.5887L68.5429 66.5991L68.8344 67.3607L70.353 67.1048L70.3786 66.2897L70.4872 66.2412C70.8423 66.083 71.1723 65.8766 71.4679 65.6276L71.559 65.5511L72.3034 65.8832L73.1961 64.6286L72.6386 64.0343L72.6812 63.923C72.8194 63.5622 72.9066 63.1827 72.9396 62.7957L72.9497 62.677L73.7116 62.3855L73.4554 60.8669L72.6403 60.8413L72.592 60.7324C72.4336 60.3773 72.2269 60.0475 71.9785 59.7523L71.9017 59.6609L72.2338 58.9171L70.9794 58.0241L70.3852 58.5816L70.2742 58.539C69.9131 58.401 69.5339 58.3139 69.1469 58.2809L69.0279 58.2708L68.7366 57.5092L67.2181 57.7651L67.1919 58.5801L67.0832 58.6287C66.7287 58.7868 66.3984 58.9933 66.1026 59.2422L66.0114 59.3187L65.2674 58.9867L64.3747 60.241L64.9322 60.8353L64.8893 60.9466C64.751 61.3071 64.6642 61.6866 64.6309 62.0736L64.6208 62.1923L63.8595 62.4838L64.1154 64.0024L64.9304 64.028L64.9787 64.1366C65.1372 64.4914 65.3436 64.8215 65.5925 65.1173L65.6687 65.2087L65.3367 65.9525L66.5913 66.8455L67.1856 66.2877ZM68.7821 64.8936C68.2887 64.8936 67.7911 64.7459 67.3592 64.4391C66.2544 63.6525 65.9953 62.1141 66.7816 61.0089C67.568 59.9041 69.1064 59.645 70.2115 60.4313C71.3167 61.2177 71.576 62.7564 70.7897 63.8612C70.3101 64.5343 69.5517 64.8936 68.7821 64.8936ZM68.7884 60.3563C68.1378 60.3563 67.4964 60.6602 67.0916 61.2292C66.7693 61.682 66.6428 62.2328 66.7351 62.7805C66.8276 63.3279 67.1275 63.8072 67.5797 64.1292C68.5138 64.7942 69.8148 64.5748 70.4798 63.6407C70.8018 63.1885 70.9283 62.6373 70.8363 62.0897C70.7437 61.542 70.4438 61.063 69.9913 60.741C69.6259 60.4811 69.2053 60.3563 68.7884 60.3563Z" fill="#5F8EFF"/>
<path d="M31.8392 66.4404C28.8365 66.4404 26.3934 63.9972 26.3934 60.9946H26.6852C26.6852 63.8365 28.9972 66.1486 31.8392 66.1486C34.6811 66.1486 36.9932 63.8368 36.9932 60.9946C36.9932 58.1529 34.6811 55.8408 31.8392 55.8408V55.549C34.8418 55.549 37.285 57.9919 37.285 60.9946C37.285 63.9972 34.8418 66.4404 31.8392 66.4404ZM31.8392 65.6831C29.2537 65.6831 27.1509 63.5798 27.1509 60.9943C27.1509 58.4091 29.254 56.3057 31.8392 56.3057C34.4244 56.3057 36.5277 58.4091 36.5277 60.9943H36.2356C36.2356 58.5701 34.2634 56.5975 31.8389 56.5975C29.4144 56.5975 27.4422 58.5698 27.4422 60.9943C27.4422 63.4188 29.4141 65.391 31.8389 65.391V65.6831H31.8392Z" fill="#79A1FF"/>
<path d="M31.1722 62.7986L29.2077 60.8344L29.4144 60.628L31.1722 62.3858L34.2645 59.2937L34.4707 59.4998L31.1722 62.7986Z" fill="#79A1FF"/>
<path d="M92.7765 56.256L91.5371 55.0166H85.6112V49.7507H92.7762V56.256H92.7765ZM85.8739 54.7538H91.6458L92.5138 55.6218V50.0132H85.8739V54.7538Z" fill="#5F8EFF"/>
<path d="M193.502 93.4191H183.806V93.246H193.329V87.6159H193.502V93.4191Z" fill="#79A1FF"/>
<path d="M191.838 81.5523H187.202V76.9163H191.838V81.5523ZM187.357 81.3976H191.683V77.071H187.357V81.3976Z" fill="#79A1FF"/>
<path d="M203.376 78.616H192.765V77.4827H203.376V78.616ZM192.919 78.4616H203.221V77.6374H192.919V78.4616Z" fill="#79A1FF"/>
<path d="M203.376 83.8859H187.202V82.7528H203.376V83.8859ZM187.357 83.7315H203.221V82.9072H187.357V83.7315Z" fill="#79A1FF"/>
<path d="M197.504 86.0623H187.202V84.9289H197.504V86.0623ZM187.357 85.9079H197.349V85.0836H187.357V85.9079Z" fill="#79A1FF"/>
<path d="M199.95 80.7777H192.765V79.6444H199.95V80.7777ZM192.919 80.6233H199.796V79.7991H192.919V80.6233Z" fill="#79A1FF"/>
<path d="M205.217 88.5267H185.361V74.4519H205.217V88.5267ZM185.515 88.372H205.063V74.6063H185.515V88.372Z" fill="#79A1FF"/>
<path d="M193.416 87.7324C193.065 87.7324 192.78 87.4472 192.78 87.0964C192.78 86.7459 193.065 86.4604 193.416 86.4604C193.766 86.4604 194.051 86.7457 194.051 87.0964C194.052 87.4472 193.766 87.7324 193.416 87.7324ZM193.416 86.6338C193.161 86.6338 192.953 86.8414 192.953 87.0964C192.953 87.3514 193.161 87.559 193.416 87.559C193.671 87.559 193.878 87.3514 193.878 87.0964C193.878 86.8414 193.671 86.6338 193.416 86.6338Z" fill="#79A1FF"/>
<path d="M78.9141 82.9659C78.9049 83.6496 79.4572 84.2159 80.1395 84.2237L83.354 84.2654C83.7508 86.3242 84.5345 88.2455 85.6333 89.957L83.3261 92.2041C82.8339 92.684 82.8198 93.4711 83.3 93.9605L86.1704 96.9036C86.6488 97.3975 87.4374 97.4082 87.9296 96.9269L90.2304 94.6829C91.9126 95.8266 93.8156 96.6615 95.8663 97.1074L95.8246 100.319C95.8137 101.004 96.3617 101.569 97.0439 101.578L101.158 101.631C101.842 101.639 102.408 101.089 102.416 100.404L102.458 97.1954C104.52 96.7987 106.443 96.0132 108.154 94.9161L110.401 97.217C110.876 97.7092 111.664 97.7247 112.153 97.2449L115.101 94.3759C115.59 93.8961 115.599 93.1089 115.124 92.6167L114.361 91.8373L112.875 90.3155C114.019 88.6319 114.854 86.7244 115.303 84.6797L118.516 84.7214C119.2 84.7291 119.766 84.1829 119.774 83.4992L119.828 79.3865C119.837 78.7014 119.285 78.1382 118.601 78.1273L115.393 78.087C114.996 76.0236 114.208 74.0962 113.109 72.3862L115.416 70.1437C115.902 69.6684 115.918 68.8798 115.438 68.3891L112.569 65.4445C112.093 64.9569 111.302 64.946 110.812 65.4215L108.511 67.6654C106.829 66.5217 104.923 65.6886 102.872 65.2378L102.914 62.0293C102.922 61.3442 102.375 60.7809 101.692 60.77L97.5789 60.7174C96.8938 60.7096 96.3303 61.2591 96.3197 61.9445L96.278 65.1561C94.2163 65.5497 92.295 66.3352 90.5835 67.4386L88.3413 65.1314C87.8614 64.6421 87.0728 64.6283 86.5867 65.1038L83.6406 67.9788C83.1499 68.454 83.139 69.2458 83.6191 69.732L85.8662 72.0392C84.7242 73.7213 83.8847 75.6272 83.4357 77.675L80.2272 77.6333C80.1237 77.6319 80.0204 77.6443 79.9215 77.6687C79.3831 77.7969 78.9757 78.2722 78.9693 78.8538L78.9141 82.9659ZM99.2605 89.6281C94.5907 89.568 90.856 85.7345 90.9161 81.0661C90.9762 76.3962 94.8097 72.6616 99.4782 72.7217C104.147 72.7818 107.883 76.6153 107.823 81.2837C107.762 85.9522 103.929 89.6885 99.2605 89.6281Z" fill="#6A8D9E"/>
<path d="M113.869 68.8637L117.622 74.953C117.934 75.457 118.366 75.8733 118.88 76.1648C120.079 76.8439 126.646 80.9853 124.439 79.3146L125.047 76.7073L119.871 74.0568C119.413 73.8228 119.012 73.4896 118.698 73.0834L114.808 68.065L113.869 68.8637Z" fill="#777E91"/>
<path d="M112.71 68.5794C113.052 68.7286 113.718 68.9928 113.869 68.8637L114.808 68.0653C114.808 68.0653 114.264 67.2339 113.914 66.4674C113.81 66.2434 113.589 66.1126 113.359 66.1126C113.261 66.1126 113.163 66.1356 113.071 66.186L113.771 67.5872C113.86 67.7666 113.847 67.9891 113.715 68.1401C113.583 68.2922 113.339 68.3899 112.892 68.1731C112.862 68.1588 112.831 68.153 112.8 68.153C112.716 68.153 112.634 68.2033 112.596 68.2853C112.547 68.3986 112.597 68.5305 112.71 68.5794Z" fill="#EAC9AF"/>
<path d="M131.494 98.1844L132.503 99.2671H135.469L132.649 95.9505C131.307 94.3727 131.234 92.0768 132.471 90.4156L133.181 89.4637C133.347 89.2412 133.608 89.1089 133.887 89.1089C134.124 89.1089 134.351 89.2038 134.517 89.3731L144.24 99.2674H147.24L140.108 91.2858L135.145 85.2897L130.356 88.2159L130.322 88.2763C128.506 91.479 128.98 95.4923 131.494 98.1844Z" fill="#6A8D9E"/>
<path d="M130.032 101.379H136.589L135.469 99.2671H132.146C130.978 99.2668 130.032 100.213 130.032 101.379Z" fill="#7F4B2F"/>
<path d="M141.802 101.379H148.359L147.24 99.2671H143.916C142.749 99.2668 141.802 100.213 141.802 101.379Z" fill="#7F4B2F"/>
<path d="M122.101 80.8945C123.038 80.5483 124.092 80.824 124.738 81.5865L130.356 88.2156L135.145 85.2895L128.628 76.4434C128.158 75.8074 127.302 75.5993 126.593 75.9466L125.047 76.7076L122.101 80.8945Z" fill="#B1B5C4"/>
<path d="M115.797 77.4545L121.912 81.1653C122.419 81.472 122.994 81.6457 123.584 81.671C124.961 81.7293 127.435 81.8372 127.441 81.8487L129.321 79.3445L123.506 79.3434C122.991 79.3437 122.483 79.2298 122.018 79.0113L116.269 76.3163L115.797 77.4545Z" fill="#B1B5C4"/>
<path d="M114.636 77.7294C115.008 77.7067 115.722 77.6382 115.797 77.4545L116.269 76.316C116.269 76.316 115.406 75.8238 114.745 75.3008C114.551 75.1485 114.294 75.133 114.09 75.2376C114.003 75.2822 113.925 75.3477 113.866 75.4343L115.128 76.3626C115.289 76.4819 115.379 76.6857 115.331 76.8801C115.282 77.0759 115.11 77.274 114.613 77.2843C114.58 77.2852 114.549 77.2947 114.522 77.3082C114.447 77.3467 114.397 77.4289 114.401 77.5186C114.408 77.6428 114.513 77.7374 114.636 77.7294Z" fill="#EAC9AF"/>
<path d="M123.819 76.8039L124.379 77.6561C124.743 78.2092 125.488 78.3627 126.041 77.9987C126.595 77.6351 126.748 76.8904 126.384 76.3376L125.823 75.4854C125.459 74.9317 124.715 74.7788 124.162 75.1427C123.885 75.325 123.709 75.6016 123.646 75.9014C123.585 76.203 123.637 76.5273 123.819 76.8039Z" fill="#EAC9AF"/>
<path d="M123.819 76.8039L124.141 77.2944C124.464 77.2817 124.731 77.2188 125.003 77.0399C125.469 76.7332 125.795 76.1941 125.891 75.5881L125.824 75.4851C125.459 74.9314 124.716 74.7785 124.163 75.1424C123.885 75.3247 123.709 75.6013 123.646 75.9012C123.585 76.203 123.637 76.5273 123.819 76.8039Z" fill="#EEAF56"/>
<path d="M121.489 73.3266C121.489 73.3266 121.651 75.831 122.544 76.6656C123.438 77.5002 125.336 77.0687 126.105 75.2491L125.102 71.9604L121.489 73.3266Z" fill="#EAC9AF"/>
<path d="M125.084 74.0376C125.01 74.0554 124.938 74.0031 124.932 73.9272C124.915 73.6957 124.864 73.2366 124.714 72.9152C124.714 72.9152 124.83 72.5972 123.88 73.0181C122.93 73.4393 120.743 74.1491 119.969 73.6581C119.215 73.1791 121.643 70.5807 122.47 70.3869C123.242 70.2055 124.887 69.575 125.76 70.0428C126.345 70.3559 126.508 70.7233 126.53 71.003C126.542 71.1516 126.561 71.2989 126.602 71.442C126.745 71.9388 127.042 72.9732 127.039 73.0043C127.011 73.3401 126.838 74.8699 125.962 75.5493L125.467 74.062C125.447 74.0011 125.384 73.966 125.321 73.9809L125.084 74.0376Z" fill="#7F4B2F"/>
<path d="M125.053 74.2946C125.053 74.2946 125.48 72.9939 125.941 73.4623C126.403 73.9306 125.707 74.8302 125.127 74.9674L125.053 74.2946Z" fill="#EAC9AF"/>
<path d="M89.558 79.6223C89.4861 85.1043 93.871 89.604 99.3531 89.6744C104.835 89.7449 109.335 85.3599 109.405 79.8778C109.476 74.3987 105.091 69.8976 99.6087 69.8271C94.1295 69.7553 89.6284 74.1402 89.558 79.6223ZM91.6168 79.6496C91.6728 75.3049 95.2393 71.8301 99.5825 71.8862C103.926 71.9423 107.402 75.5087 107.346 79.8523C107.29 84.1955 103.723 87.6717 99.3801 87.6156C95.0354 87.5593 91.561 83.9928 91.6168 79.6496Z" fill="#546B7A"/>
<path d="M114.244 153.035C114.763 153.035 115.184 152.614 115.184 152.095C115.184 151.576 114.763 151.155 114.244 151.155C113.725 151.155 113.305 151.576 113.305 152.095C113.305 152.614 113.725 153.035 114.244 153.035Z" fill="#FC5A5A"/>
<path d="M169.313 105.603V167.027C169.313 169.22 167.535 171 165.34 171H70.6074C68.4126 171 66.6347 169.22 66.6347 167.027V105.603C66.6347 103.408 68.4126 101.63 70.6074 101.63H165.34C167.535 101.63 169.313 103.408 169.313 105.603Z" fill="#17306B"/>
<path d="M68.8919 114.056V167.027C68.8919 167.972 69.6621 168.742 70.6074 168.742H165.34C166.286 168.742 167.056 167.972 167.056 167.027V114.056H68.8919Z" fill="#EBF1FF"/>
<path d="M75.4354 110.837C76.9029 110.837 78.0925 109.647 78.0925 108.18C78.0925 106.712 76.9029 105.523 75.4354 105.523C73.9679 105.523 72.7783 106.712 72.7783 108.18C72.7783 109.647 73.9679 110.837 75.4354 110.837Z" fill="#2751B5"/>
<path d="M83.1246 110.837C84.592 110.837 85.7817 109.647 85.7817 108.18C85.7817 106.712 84.592 105.523 83.1246 105.523C81.6571 105.523 80.4675 106.712 80.4675 108.18C80.4675 109.647 81.6571 110.837 83.1246 110.837Z" fill="#2751B5"/>
<path d="M90.8141 110.837C92.2815 110.837 93.4711 109.647 93.4711 108.18C93.4711 106.712 92.2815 105.523 90.8141 105.523C89.3466 105.523 88.157 106.712 88.157 108.18C88.157 109.647 89.3466 110.837 90.8141 110.837Z" fill="#2751B5"/>
<path d="M75.0798 110.482C76.5472 110.482 77.7369 109.292 77.7369 107.825C77.7369 106.357 76.5472 105.167 75.0798 105.167C73.6123 105.167 72.4227 106.357 72.4227 107.825C72.4227 109.292 73.6123 110.482 75.0798 110.482Z" fill="white"/>
<path d="M82.7692 110.482C84.2367 110.482 85.4263 109.292 85.4263 107.825C85.4263 106.357 84.2367 105.167 82.7692 105.167C81.3018 105.167 80.1122 106.357 80.1122 107.825C80.1122 109.292 81.3018 110.482 82.7692 110.482Z" fill="white"/>
<path d="M90.4584 110.482C91.9259 110.482 93.1155 109.292 93.1155 107.825C93.1155 106.357 91.9259 105.167 90.4584 105.167C88.991 105.167 87.8014 106.357 87.8014 107.825C87.8014 109.292 88.991 110.482 90.4584 110.482Z" fill="white"/>
<path d="M163.525 107.824C163.525 108.428 163.281 108.976 162.884 109.372C162.488 109.769 161.94 110.013 161.336 110.013H109.788C108.579 110.013 107.599 109.034 107.599 107.824C107.599 107.22 107.844 106.673 108.241 106.277C108.636 105.882 109.185 105.636 109.789 105.636H161.336C162.545 105.636 163.525 106.616 163.525 107.824Z" fill="white"/>
<path d="M94.0847 119.469H74.8926V138.662H94.0847V119.469Z" fill="white"/>
<path d="M94.463 142.846C94.463 143.285 94.2851 143.682 93.9967 143.969C93.7098 144.258 93.3116 144.436 92.8734 144.436H76.4816C75.6042 144.436 74.892 143.724 74.892 142.846C74.892 142.407 75.07 142.01 75.3584 141.723C75.645 141.434 76.0435 141.257 76.4816 141.257H92.8734C93.7512 141.257 94.463 141.969 94.463 142.846Z" fill="#79A1FF"/>
<path d="M94.463 149.157C94.463 149.596 94.2851 149.993 93.9967 150.28C93.7098 150.568 93.3116 150.746 92.8734 150.746H76.4816C75.6042 150.746 74.892 150.034 74.892 149.157C74.892 148.717 75.07 148.32 75.3584 148.033C75.645 147.745 76.0435 147.567 76.4816 147.567H92.8734C93.7512 147.567 94.463 148.279 94.463 149.157Z" fill="#79A1FF"/>
<path d="M94.463 155.467C94.463 155.907 94.2851 156.304 93.9967 156.591C93.7098 156.879 93.3116 157.057 92.8734 157.057H76.4816C75.6042 157.057 74.892 156.345 74.892 155.467C74.892 155.028 75.07 154.631 75.3584 154.344C75.645 154.056 76.0435 153.878 76.4816 153.878H92.8734C93.7512 153.878 94.463 154.59 94.463 155.467Z" fill="#79A1FF"/>
<path d="M94.463 161.778C94.463 162.218 94.2851 162.615 93.9967 162.902C93.7098 163.19 93.3116 163.368 92.8734 163.368H76.4816C75.6042 163.368 74.892 162.656 74.892 161.778C74.892 161.339 75.07 160.942 75.3584 160.655C75.645 160.367 76.0435 160.189 76.4816 160.189H92.8734C93.7512 160.189 94.463 160.901 94.463 161.778Z" fill="#79A1FF"/>
<path d="M161.055 119.469H97.2903V163.368H161.055V119.469Z" fill="#79A1FF"/>
<path d="M114.377 152.572L106.828 145.479L103.287 152.118L102.985 151.958L106.736 144.924L114.226 151.96L119.247 137.354L128.703 147.733L134.702 145.289L145.84 130.742L146.111 130.95L134.917 145.57L128.611 148.14L128.531 148.051L119.383 138.01L114.377 152.572Z" fill="#FC5A5A"/>
<path d="M106.81 146.113C107.329 146.113 107.75 145.692 107.75 145.173C107.75 144.654 107.329 144.234 106.81 144.234C106.291 144.234 105.87 144.654 105.87 145.173C105.87 145.692 106.291 146.113 106.81 146.113Z" fill="#FC5A5A"/>
<path d="M119.371 138.679C119.891 138.679 120.311 138.258 120.311 137.739C120.311 137.22 119.891 136.799 119.371 136.799C118.852 136.799 118.432 137.22 118.432 137.739C118.432 138.258 118.852 138.679 119.371 138.679Z" fill="#FC5A5A"/>
<path d="M145.747 131.682C146.266 131.682 146.687 131.261 146.687 130.742C146.687 130.223 146.266 129.802 145.747 129.802C145.228 129.802 144.807 130.223 144.807 130.742C144.807 131.261 145.228 131.682 145.747 131.682Z" fill="#FC5A5A"/>
<path d="M111.888 143.77L104.339 136.678L100.798 143.317L100.496 143.156L104.247 136.123L111.737 143.159L116.758 128.552L126.215 138.931L132.213 136.487L143.351 121.941L143.622 122.148L132.429 136.769L126.123 139.338L126.042 139.25L116.894 129.209L111.888 143.77Z" fill="#FFDA85"/>
<path d="M104.321 137.312C104.84 137.312 105.261 136.891 105.261 136.372C105.261 135.853 104.84 135.432 104.321 135.432C103.802 135.432 103.382 135.853 103.382 136.372C103.382 136.891 103.802 137.312 104.321 137.312Z" fill="#FFDA85"/>
<path d="M111.756 144.233C112.275 144.233 112.695 143.812 112.695 143.293C112.695 142.774 112.275 142.354 111.756 142.354C111.237 142.354 110.816 142.774 110.816 143.293C110.816 143.812 111.237 144.233 111.756 144.233Z" fill="#FFDA85"/>
<path d="M116.883 129.878C117.402 129.878 117.823 129.457 117.823 128.938C117.823 128.419 117.402 127.998 116.883 127.998C116.364 127.998 115.943 128.419 115.943 128.938C115.943 129.457 116.364 129.878 116.883 129.878Z" fill="#FFDA85"/>
<path d="M143.258 122.88C143.777 122.88 144.198 122.46 144.198 121.941C144.198 121.421 143.777 121.001 143.258 121.001C142.739 121.001 142.318 121.421 142.318 121.941C142.318 122.46 142.739 122.88 143.258 122.88Z" fill="#FFDA85"/>
<path d="M164.612 158.246C164.612 160.349 163.76 162.251 162.381 163.629C161.005 165.008 159.1 165.86 156.997 165.86H138.719C134.513 165.86 131.105 162.451 131.105 158.246C131.105 156.143 131.957 154.241 133.335 152.864C134.712 151.486 136.616 150.633 138.719 150.633H156.997C161.203 150.633 164.612 154.042 164.612 158.246Z" fill="#FFD166"/>
<path d="M149.372 152.419L144.929 163.504L146.345 164.072L150.788 152.987L149.372 152.419Z" fill="white"/>
<path d="M144.953 161.556L143.875 162.633L139.487 158.247L143.875 153.86L144.953 154.937L141.643 158.247L144.953 161.556Z" fill="white"/>
<path d="M156.23 158.247L151.841 162.633L150.764 161.556L154.071 158.247L150.764 154.937L151.841 153.86L156.23 158.247Z" fill="white"/>
<path d="M109.406 160.189H65.5221V186.092H109.406V160.189Z" fill="#353945"/>
<path d="M87.4641 182.208C92.4719 182.208 96.5316 178.148 96.5316 173.14C96.5316 168.132 92.4719 164.073 87.4641 164.073C82.4563 164.073 78.3966 168.132 78.3966 173.14C78.3966 178.148 82.4563 182.208 87.4641 182.208Z" fill="white"/>
<path d="M95.105 173.14L88.1469 177.381V168.899L95.105 173.14Z" fill="#FC5A5A"/>
<path d="M79.8232 173.14L86.7813 177.381V168.899L79.8232 173.14Z" fill="#FC5A5A"/>
</svg>
