<svg width="230" height="230" viewBox="0 0 230 230" fill="none" xmlns="http://www.w3.org/2000/svg">
<g clip-path="url(#clip0_216_7763)">
<path d="M198.455 116.878C197.089 125.737 202.349 134.109 203.543 143.005C205.234 155.571 198.33 168.115 188.878 175.279C179.427 182.435 167.84 185.132 156.499 186.761C142.418 188.788 128.033 189.4 114.098 186.364C99.9646 183.275 86.5073 176.48 72.1613 175.073C70.6623 174.925 68.9779 174.903 67.8767 176.038C67.8701 176.045 67.8635 176.053 67.8569 176.06C66.7759 177.188 65.2703 177.674 63.8376 177.239L63.3866 177.099C57.7291 177.173 54.2472 170.503 51.6405 164.924C46.3677 153.662 39.7155 143.197 31.9157 133.911C27.3726 128.501 22.385 123.401 19.0819 116.967C15.0164 109.051 13.829 99.6691 13.9021 90.5524C13.9685 82.9613 14.9034 75.2152 18.0274 68.4716C21.1514 61.7205 26.749 56.0898 33.4676 54.7558C41.5791 53.1565 49.4914 57.8145 56.8666 61.8901C63.5188 65.5604 70.4099 68.9138 77.7256 70.3584C85.0411 71.8028 92.874 71.2206 99.4402 67.3587C103.334 65.0667 106.636 61.728 110.118 58.7282C131.402 40.3915 161.048 34.7458 186.61 44.1795C195.649 47.5108 204.411 52.8321 210.168 61.2634C215.925 69.6874 218.127 81.6195 213.902 91.105C209.737 100.457 200.041 106.589 198.455 116.878Z" fill="#EBF1FF"/>
<path d="M198.7 118.538C198.37 120.687 198.432 122.891 198.749 125.035C199.063 127.184 199.612 129.28 200.226 131.344C201.453 135.468 202.97 139.515 203.674 143.811C204.418 148.096 204.081 152.565 202.953 156.73C201.828 160.909 199.916 164.797 197.518 168.239C195.12 171.687 192.215 174.694 188.964 177.135C188.141 177.724 187.331 178.335 186.472 178.865L185.836 179.277C185.626 179.418 185.412 179.55 185.193 179.673L183.89 180.431C182.133 181.394 180.344 182.295 178.503 183.043L177.816 183.334C177.586 183.428 177.353 183.512 177.122 183.602L175.731 184.131L174.326 184.612L173.623 184.851L172.914 185.068C171.031 185.672 169.119 186.159 167.205 186.623C163.368 187.513 159.492 188.18 155.604 188.72C147.834 189.812 139.995 190.477 132.15 190.292C128.23 190.203 124.31 189.908 120.417 189.36C118.469 189.093 116.532 188.741 114.601 188.345C113.631 188.141 112.681 187.906 111.72 187.688L108.853 186.939C101.235 184.838 93.8092 182.023 86.233 179.89C82.4464 178.828 78.6215 177.922 74.7514 177.409L73.299 177.237C72.816 177.182 72.3278 177.114 71.8517 177.086C70.9041 177.026 69.941 177.057 69.1328 177.451C68.931 177.546 68.747 177.673 68.5733 177.812C68.5302 177.847 68.4914 177.889 68.45 177.926L68.3888 177.984C68.3698 178.002 68.3804 177.99 68.3672 178.005L68.3166 178.057C68.224 178.147 68.1398 178.236 68.0254 178.333C67.6025 178.708 67.1379 178.988 66.6347 179.189C66.1325 179.381 65.5986 179.489 65.0627 179.475C64.7947 179.476 64.5282 179.434 64.2646 179.382C63.9935 179.317 63.7626 179.24 63.5277 179.169L63.6352 179.184C63.1094 179.184 62.5824 179.143 62.0632 179.038C61.5457 178.926 61.0371 178.766 60.5469 178.554C60.0596 178.335 59.5907 178.071 59.1428 177.772C58.6997 177.466 58.2768 177.128 57.8749 176.764C56.2758 175.29 55.0315 173.452 53.9344 171.56C52.8368 169.664 51.9133 167.654 50.9732 165.699C50.5057 164.71 50.0138 163.749 49.5296 162.779C49.0279 161.819 48.5406 160.848 48.0214 159.899C43.9326 152.264 39.1837 145.066 33.8652 138.435C31.2262 135.101 28.3538 131.997 25.6229 128.701C24.2598 127.052 22.9336 125.355 21.7019 123.565C20.4798 121.772 19.3467 119.878 18.4009 117.882C16.4844 113.874 15.2622 109.517 14.5394 105.087C13.8164 100.652 13.5798 96.1472 13.6335 91.6596C13.6876 87.1775 14.074 82.6663 15.0397 78.2768C15.5172 76.0826 16.1627 73.9278 16.9803 71.8529C17.0844 71.5944 17.1816 71.3325 17.2911 71.0769L17.6272 70.3133L17.7954 69.9315C17.8632 69.7811 17.9179 69.6791 17.9797 69.5506L18.3405 68.8172C18.5854 68.3281 18.8712 67.8382 19.1357 67.35C19.4269 66.8834 19.7018 66.4039 20.0074 65.9485C21.2164 64.1171 22.6113 62.4338 24.1762 60.9644C25.7373 59.4904 27.4954 58.2673 29.3753 57.3422C30.3114 56.8675 31.2949 56.5168 32.2868 56.2106C32.5364 56.1407 32.7899 56.0869 33.0412 56.0248L33.419 55.9346L33.6079 55.8894C33.6798 55.8742 33.6815 55.8774 33.7214 55.8702L33.8146 55.8564C34.3146 55.7877 34.8024 55.6965 35.3122 55.6459C37.3989 55.4444 39.4381 55.6212 41.4497 56.047C45.471 56.9075 49.2246 58.7092 52.8477 60.6386C54.6627 61.6069 56.4506 62.6227 58.2466 63.6048C60.0418 64.5852 61.8493 65.5368 63.6792 66.4263C67.3371 68.2051 71.0898 69.7464 74.953 70.8147C75.9181 71.0832 76.891 71.3127 77.8676 71.5179C78.344 71.6171 78.8523 71.7008 79.3431 71.7931L80.8139 72.0081C82.7876 72.2542 84.7771 72.3445 86.7594 72.2551C90.7195 72.0783 94.6723 71.1715 98.2758 69.3404C98.7172 69.0978 99.1688 68.8574 99.6015 68.6107L100.261 68.2097L100.898 67.7957C101.747 67.2276 102.574 66.6126 103.384 65.9695C105.005 64.6826 106.559 63.2825 108.126 61.8881C108.912 61.1918 109.692 60.4943 110.504 59.8193C111.313 59.1583 112.099 58.4732 112.939 57.8441L114.181 56.8833L115.446 55.9659C116.284 55.344 117.15 54.7736 118.012 54.1946C121.466 51.8943 125.091 49.9178 128.813 48.2189C136.257 44.8095 144.146 42.6443 152.139 41.6774C156.138 41.2137 160.166 41.0544 164.183 41.2077C168.201 41.3546 172.206 41.8629 176.158 42.6647C177.15 42.8481 178.129 43.102 179.112 43.3309C180.094 43.5649 181.064 43.8573 182.041 44.1175C183.006 44.4271 183.979 44.706 184.937 45.0418C185.892 45.3827 186.858 45.7027 187.801 46.0819C191.595 47.5468 195.283 49.3698 198.751 51.6275C202.22 53.8772 205.431 56.6369 208.19 59.8871C210.92 63.1566 213.163 66.9662 214.557 71.1632C215.26 73.2541 215.78 75.4213 216.089 77.6282C216.396 79.8356 216.449 82.0841 216.273 84.3059C216.088 86.5257 215.671 88.7317 214.943 90.8155C214.555 91.8433 214.162 92.8754 213.665 93.8443C213.179 94.8221 212.63 95.7576 212.048 96.6658C209.715 100.307 206.839 103.447 204.267 106.865C202.982 108.574 201.769 110.36 200.774 112.297C199.787 114.235 199.047 116.339 198.7 118.538ZM198.7 118.538C199.042 116.338 199.779 114.231 200.763 112.29C201.754 110.349 202.965 108.559 204.247 106.846C206.814 103.421 209.684 100.274 212.006 96.6325C212.586 95.7246 213.132 94.7882 213.615 93.8136C214.11 92.8435 214.498 91.8157 214.883 90.7896C215.604 88.7107 216.016 86.5108 216.197 84.2979C216.368 82.0827 216.31 79.8419 216 77.6425C215.688 75.444 215.166 73.2852 214.461 71.2031C213.064 67.0249 210.824 63.2374 208.096 59.9843C205.341 56.7528 202.136 54.0098 198.673 51.7753C196.942 50.6552 195.157 49.6403 193.329 48.7304C191.5 47.819 189.63 47.0229 187.735 46.297C186.789 45.9227 185.83 45.6122 184.874 45.2769C183.917 44.948 182.945 44.6758 181.982 44.373C181.007 44.1195 180.039 43.8337 179.058 43.6066C178.077 43.3843 177.1 43.1371 176.111 42.9606C172.168 42.1852 168.176 41.7033 164.173 41.5811C160.171 41.4529 156.162 41.6358 152.184 42.1216C144.233 43.1322 136.398 45.3344 129.018 48.7672C125.328 50.4778 121.739 52.4624 118.321 54.7665C117.469 55.3463 116.612 55.9176 115.784 56.5395L114.534 57.4569L113.311 58.4134C112.489 59.0355 111.699 59.7316 110.895 60.3957C110.104 61.0601 109.324 61.7656 108.545 62.4634C106.988 63.865 105.431 65.2838 103.793 66.5991C102.974 67.2566 102.136 67.8877 101.269 68.475L100.61 68.9083L99.9514 69.314C99.4934 69.5793 99.0409 69.8228 98.5846 70.077C94.8894 71.9822 90.8411 72.9339 86.7951 73.1391C84.7694 73.2426 82.7385 73.1624 80.7243 72.9238L79.2111 72.7113C78.7126 72.6208 78.2279 72.5446 77.7179 72.442C76.7225 72.2393 75.7315 72.0119 74.7491 71.7448C70.815 70.6885 67.0125 69.1288 63.3193 67.3443C61.4718 66.4516 59.6508 65.498 57.8436 64.5164C56.0381 63.5346 54.2515 62.5252 52.4478 61.5681C48.848 59.66 45.1548 57.9071 41.2726 57.0877C40.7882 56.9903 40.3006 56.9172 39.815 56.8304C39.3274 56.7646 38.8375 56.7286 38.349 56.6755C37.8597 56.6456 37.3695 56.649 36.8799 56.6335C36.394 56.6424 35.9154 56.6878 35.4324 56.7111C34.9439 56.7597 34.4408 56.8543 33.946 56.9236L33.8528 56.9377C33.8313 56.9414 33.7697 56.9492 33.7807 56.9497L33.6021 56.9931L33.2448 57.0797C33.007 57.1395 32.7672 57.1901 32.5309 57.2568C31.5922 57.5503 30.6602 57.8832 29.7712 58.3375C27.9867 59.2213 26.3097 60.3905 24.8164 61.807C23.3197 63.219 21.9814 64.8399 20.8213 66.6051C20.5281 67.0439 20.265 67.5067 19.985 67.9558C19.7343 68.4236 19.4724 68.8689 19.2303 69.3542L18.8709 70.0885C18.8149 70.2058 18.7427 70.3446 18.6996 70.4441L18.5377 70.8136L18.214 71.5524C18.1085 71.8 18.015 72.0538 17.9147 72.3042C17.1269 74.3147 16.5039 76.4074 16.0428 78.5473C15.5767 80.686 15.2513 82.8647 15.0334 85.0586C14.8203 87.2571 14.7148 89.4579 14.678 91.6786C14.6168 96.1018 14.8425 100.541 15.5425 104.885C16.2403 109.221 17.4311 113.479 19.2754 117.357C20.1963 119.309 21.2882 121.142 22.4831 122.905C23.686 124.661 24.9889 126.337 26.3361 127.973C29.0335 131.244 31.9134 134.369 34.5699 137.739C39.9153 144.433 44.6844 151.694 48.7876 159.393C49.3091 160.349 49.7979 161.327 50.2978 162.298C50.7817 163.281 51.2765 164.26 51.7368 165.248C52.6769 167.229 53.5716 169.201 54.6368 171.064C55.6968 172.917 56.8939 174.691 58.3849 176.08C58.7593 176.422 59.1505 176.738 59.5574 177.023C59.9682 177.301 60.3957 177.543 60.837 177.745C61.2809 177.941 61.7395 178.087 62.2061 178.191C62.6741 178.289 63.1502 178.328 63.6272 178.333L63.6864 178.333L63.7347 178.348C63.9713 178.422 64.21 178.5 64.4172 178.551C64.6349 178.594 64.8548 178.632 65.0771 178.632C65.5207 178.647 65.966 178.559 66.3886 178.401C66.8081 178.238 67.2152 177.993 67.5588 177.691C67.641 177.626 67.7361 177.528 67.8276 177.44C67.8316 177.436 67.8675 177.4 67.8451 177.423C67.8529 177.413 67.8865 177.379 67.8914 177.376L67.9705 177.302C68.0237 177.253 68.0751 177.201 68.1303 177.156C68.3531 176.978 68.5897 176.82 68.8393 176.703C69.845 176.228 70.9038 176.225 71.8966 176.289C72.3982 176.321 72.8815 176.393 73.372 176.452L74.8391 176.634C78.746 177.176 82.5933 178.112 86.3917 179.202C93.9912 181.391 101.399 184.25 108.977 186.388L111.823 187.15C112.779 187.373 113.74 187.616 114.692 187.823C116.611 188.228 118.537 188.59 120.475 188.867C124.348 189.436 128.251 189.753 132.16 189.866C139.979 190.097 147.806 189.481 155.574 188.438C159.46 187.922 163.332 187.279 167.167 186.414C169.079 185.961 170.991 185.491 172.871 184.894L173.579 184.679L174.28 184.442L175.683 183.966L177.072 183.441C177.303 183.352 177.536 183.268 177.765 183.175L178.451 182.887C180.29 182.145 182.075 181.25 183.829 180.294L185.13 179.54C185.348 179.418 185.562 179.287 185.771 179.148L186.405 178.739C187.26 178.214 188.072 177.604 188.896 177.017C192.137 174.596 195.042 171.602 197.439 168.17C199.837 164.743 201.751 160.869 202.882 156.704C204.014 152.553 204.359 148.098 203.625 143.82C202.931 139.53 201.422 135.48 200.203 131.351C199.592 129.285 199.047 127.187 198.736 125.036C198.424 122.891 198.366 120.686 198.7 118.538Z" fill="#C1D3FF"/>
<path d="M150.609 60.1321L150.553 60.103C144.606 57.067 145.405 51.1871 145.413 51.1281L145.429 51.0212H145.537C149.318 51.0212 150.507 49.8028 150.518 49.7904L150.61 49.6926L150.702 49.791C150.713 49.8028 151.901 51.0212 155.682 51.0212H155.79L155.806 51.1281C155.814 51.1871 156.613 57.067 150.666 60.103L150.609 60.1321ZM145.65 51.2713C145.574 52.0677 145.324 57.115 150.609 59.8506C155.896 57.115 155.645 52.0677 155.57 51.2713C152.287 51.2509 150.951 50.3364 150.609 50.0463C150.268 50.3364 148.932 51.2509 145.65 51.2713Z" fill="#79A1FF"/>
<path d="M137.253 84.2309H137.003V70.2613H150.484V58.5129H150.735V70.5117H137.253V84.2309Z" fill="#79A1FF"/>
<path d="M158.899 63.2339H156.749V62.9832H158.648V61.0863H158.899V63.2339Z" fill="#79A1FF"/>
<path d="M144.446 63.2339H142.296V61.0863H142.547V62.9832H144.446V63.2339Z" fill="#79A1FF"/>
<path d="M142.548 48.7821H142.297V46.6328H144.445V46.8832H142.548V48.7821Z" fill="#79A1FF"/>
<path d="M158.899 48.7813H158.648V46.8841H156.749V46.6336H158.899V48.7813Z" fill="#79A1FF"/>
<path d="M158.899 51.9906H158.648V57.8769H158.899V51.9906Z" fill="#79A1FF"/>
<path d="M142.547 51.9906H142.296V57.8769H142.547V51.9906Z" fill="#79A1FF"/>
<path d="M150.609 58.6379C150.102 58.6379 149.69 58.2251 149.69 57.7179C149.69 57.2108 150.102 56.7982 150.609 56.7982C151.117 56.7982 151.529 57.2108 151.529 57.7179C151.529 58.2251 151.117 58.6379 150.609 58.6379ZM150.609 57.0486C150.241 57.0486 149.94 57.3491 149.94 57.7179C149.94 58.0871 150.241 58.3872 150.609 58.3872C150.979 58.3872 151.279 58.0871 151.279 57.7179C151.279 57.3491 150.979 57.0486 150.609 57.0486Z" fill="#79A1FF"/>
<path d="M184.274 61.8079H175.247V55.3645H184.274V61.8079ZM175.498 61.5575H184.023V55.6149H175.498V61.5575Z" fill="#79A1FF"/>
<path d="M179.761 59.2673L175.293 55.5864L175.453 55.3932L179.761 58.9427L184.069 55.3932L184.228 55.5864L179.761 59.2673Z" fill="#79A1FF"/>
<path d="M180.994 58.1758L180.812 58.3482L184.052 61.7634L184.234 61.5911L180.994 58.1758Z" fill="#79A1FF"/>
<path d="M178.526 58.1888L175.289 61.6065L175.47 61.7787L178.708 58.361L178.526 58.1888Z" fill="#79A1FF"/>
<path d="M44.4711 110.433H27.7138L27.7432 110.284C28.0123 108.903 29.2304 107.901 30.6391 107.901C30.8424 107.901 31.0451 107.923 31.2432 107.964C32.1163 106.305 33.8123 105.279 35.6931 105.279C37.2959 105.279 38.8067 106.048 39.754 107.341C40.099 107.236 40.4581 107.183 40.8221 107.183C42.6454 107.183 44.1709 108.489 44.4489 110.288L44.4711 110.433ZM28.0229 110.182H44.1758C43.8607 108.605 42.4445 107.434 40.8224 107.434C40.4541 107.434 40.0916 107.492 39.7451 107.607L39.6566 107.636L39.6031 107.56C38.707 106.289 37.2456 105.529 35.6931 105.529C33.875 105.529 32.2382 106.539 31.422 108.164L31.3772 108.254L31.2803 108.23C31.0715 108.178 30.8559 108.152 30.6394 108.152C29.4012 108.152 28.3245 108.997 28.0229 110.182Z" fill="#79A1FF"/>
<path d="M47.8158 122.832H37.2223V109.284H37.4727V122.581H47.8158V122.832Z" fill="#79A1FF"/>
<path d="M37.3477 109.41C36.8399 109.41 36.4277 108.997 36.4277 108.49C36.4277 107.982 36.8402 107.57 37.3477 107.57C37.8548 107.57 38.2674 107.982 38.2674 108.49C38.2677 108.997 37.8548 109.41 37.3477 109.41ZM37.3477 107.82C36.9782 107.82 36.6781 108.12 36.6781 108.489C36.6781 108.858 36.9785 109.159 37.3477 109.159C37.7168 109.159 38.017 108.858 38.017 108.489C38.017 108.12 37.7168 107.82 37.3477 107.82Z" fill="#79A1FF"/>
<path d="M60.8942 75.7034H51.5352V66.3441H60.8942V75.7034ZM51.9061 75.3322H60.5228V66.7155H51.9061V75.3322Z" fill="#79A1FF"/>
<path d="M56.4 68.8951H56.0289V73.2576H56.4V68.8951Z" fill="#79A1FF"/>
<path d="M58.3956 70.8906H54.0336V71.2618H58.3956V70.8906Z" fill="#79A1FF"/>
<path d="M51.1937 91.2375L51.0511 90.865C50.9234 90.8483 50.7981 90.8195 50.6762 90.779L50.3855 91.0518L49.5417 90.4512L49.7044 90.087C49.626 89.9852 49.5578 89.876 49.5 89.761L49.101 89.7483L48.9293 88.7268L49.3019 88.5842C49.3183 88.4563 49.3474 88.3309 49.3879 88.2093L49.1151 87.9186L49.7157 87.0746L50.0796 87.2373C50.1817 87.1591 50.2907 87.0907 50.4059 87.0332L50.4183 86.6344L51.4398 86.4625L51.5827 86.8348C51.71 86.8515 51.836 86.8802 51.9576 86.9207L52.2488 86.6479L53.0926 87.2485L52.9299 87.6127C53.0081 87.7145 53.0762 87.8238 53.134 87.9391L53.5331 87.9514L53.7047 88.9729L53.3327 89.1155C53.3154 89.2432 53.2867 89.3688 53.2462 89.4907L53.5196 89.7814L52.9184 90.6255L52.5544 90.4627C52.4529 90.5409 52.3437 90.6094 52.2287 90.6669L52.2158 91.0656L51.1937 91.2375ZM50.6098 90.4504L50.6932 90.4823C50.8441 90.5404 51.0031 90.5766 51.1658 90.5904L51.2546 90.5979L51.3768 90.9173L51.938 90.823L51.949 90.4811L52.0306 90.4446C52.1792 90.3782 52.317 90.292 52.4409 90.1876L52.5093 90.1301L52.8215 90.2695L53.1513 89.8058L52.9173 89.5565L52.9492 89.4732C53.0075 89.3225 53.0435 89.1635 53.0578 89.0008L53.0656 88.912L53.3844 88.7901L53.2901 88.2289L52.9483 88.2179L52.9118 88.1363C52.8457 87.9879 52.7591 87.8496 52.6548 87.7257L52.5973 87.6573L52.7367 87.3454L52.2735 87.0153L52.024 87.2491L51.9406 87.2172C51.7891 87.1591 51.6304 87.1229 51.4685 87.1091L51.3797 87.1013L51.2572 86.7822L50.6963 86.8765L50.6854 87.2183L50.6037 87.2548C50.4551 87.3212 50.3168 87.4075 50.1926 87.5118L50.1248 87.5691L49.8125 87.4299L49.4825 87.8936L49.7165 88.1429L49.6843 88.2263C49.6268 88.3769 49.59 88.5359 49.5762 88.6986L49.5685 88.7875L49.2493 88.9097L49.3442 89.4709L49.686 89.4821L49.7223 89.5634C49.7884 89.7121 49.8752 89.8504 49.9796 89.9743L50.0368 90.0427L49.8979 90.3546L50.3611 90.6844L50.6098 90.4504ZM51.3142 89.9763C51.0821 89.9763 50.8565 89.9047 50.6638 89.7676C50.1578 89.4076 50.0391 88.7027 50.399 88.197C50.759 87.691 51.464 87.5722 51.9697 87.9322C52.2149 88.1067 52.3776 88.366 52.4274 88.6627C52.4771 88.9594 52.4087 89.2578 52.2342 89.5028C52.0596 89.748 51.8006 89.9105 51.5036 89.9605C51.4407 89.9711 51.3774 89.9763 51.3142 89.9763ZM51.3182 88.0086C51.0551 88.0086 50.7955 88.1317 50.6316 88.362C50.5011 88.5448 50.4502 88.7679 50.4876 88.9896C50.525 89.211 50.6463 89.405 50.8294 89.535C51.0123 89.6655 51.2351 89.7164 51.457 89.6793C51.6781 89.6419 51.8725 89.5206 52.0024 89.3375C52.133 89.1546 52.1841 88.9318 52.1468 88.7101C52.1094 88.4888 51.9881 88.2947 51.8049 88.1645C51.6569 88.0592 51.4867 88.0086 51.3182 88.0086ZM43.28 92.429L42.9614 91.5975C42.6202 91.5593 42.2849 91.4825 41.9626 91.3689L41.314 91.9779L39.552 90.7241L39.9148 89.9116C39.7017 89.6439 39.5192 89.3527 39.3714 89.0428L38.4816 89.0149L38.1222 86.8822L38.9537 86.5642C38.9919 86.223 39.069 85.8878 39.1825 85.5652L38.5736 84.9166L39.8271 83.1548L40.6399 83.5176C40.9072 83.3043 41.1988 83.1223 41.5087 82.9739L41.5366 82.0841L43.669 81.7248L43.9875 82.5562C44.3285 82.5947 44.6631 82.6715 44.9863 82.7853L45.6349 82.1764L47.3967 83.4302L47.0339 84.2424C47.2472 84.5101 47.4295 84.8013 47.5778 85.1115L48.4673 85.1394L48.827 87.2721L47.9955 87.59C47.957 87.9316 47.8803 88.2665 47.7661 88.5891L48.3753 89.2377L47.1213 90.9998L46.3094 90.637C46.042 90.8503 45.7505 91.0326 45.4405 91.1806L45.4126 92.0704L43.28 92.429ZM41.8747 90.9296L41.9859 90.9722C42.347 91.1105 42.7262 91.1973 43.1132 91.2307L43.232 91.241L43.5235 92.0026L45.0421 91.7467L45.0676 90.9317L45.1763 90.8831C45.5314 90.7249 45.8614 90.5185 46.157 90.2695L46.2481 90.1931L46.9925 90.5251L47.8851 89.2705L47.3277 88.6762L47.3702 88.565C47.5085 88.2041 47.5956 87.8246 47.6287 87.4377L47.6388 87.3189L48.4006 87.0274L48.1445 85.5088L47.3294 85.4832L47.2811 85.3743C47.1227 85.0192 46.916 84.6895 46.6676 84.3942L46.5908 84.3028L46.9229 83.559L45.6685 82.666L45.0743 83.2235L44.9633 83.1809C44.6022 83.0429 44.223 82.9558 43.836 82.9228L43.717 82.9127L43.4257 82.1511L41.9072 82.407L41.881 83.222L41.7723 83.2706C41.4178 83.4288 41.0875 83.6352 40.7917 83.8842L40.7005 83.9606L39.9565 83.6286L39.0638 84.8829L39.6212 85.4772L39.5784 85.5885C39.4401 85.949 39.3533 86.3285 39.3199 86.7155L39.3099 86.8342L38.5486 87.1257L38.8045 88.6443L39.6195 88.6699L39.6678 88.7786C39.8262 89.1333 40.0327 89.4634 40.2816 89.7592L40.3578 89.8506L40.0258 90.5944L41.2804 91.4874L41.8747 90.9296ZM43.4709 89.5353C42.9775 89.5353 42.4799 89.3875 42.048 89.0807C40.9432 88.2941 40.6841 86.7557 41.4704 85.6506C42.2568 84.5457 43.7952 84.2867 44.9003 85.073C46.0055 85.8593 46.2648 87.398 45.4785 88.5029C44.9992 89.1762 44.2405 89.5353 43.4709 89.5353ZM43.4772 84.9982C42.8266 84.9982 42.1852 85.3021 41.7804 85.8711C41.4581 86.3239 41.3316 86.8747 41.4239 87.4224C41.5164 87.9698 41.8163 88.4491 42.2685 88.7711C43.2026 89.4361 44.5036 89.2167 45.1686 88.2826C45.4906 87.8304 45.6171 87.2792 45.5251 86.7316C45.4325 86.1839 45.1326 85.7049 44.6801 85.3829C44.315 85.123 43.8941 84.9982 43.4772 84.9982Z" fill="#79A1FF"/>
<path d="M31.0339 71.0237C28.0312 71.0237 25.5881 68.5805 25.5881 65.5779H25.8799C25.8799 68.4198 28.192 70.7319 31.0339 70.7319C33.8758 70.7319 36.1879 68.4201 36.1879 65.5779C36.1879 62.7362 33.8758 60.4242 31.0339 60.4242V60.1324C34.0365 60.1324 36.4797 62.5752 36.4797 65.5779C36.4797 68.5805 34.0365 71.0237 31.0339 71.0237ZM31.0339 70.2664C28.4484 70.2664 26.3456 68.1631 26.3456 65.5776C26.3456 62.9924 28.4487 60.889 31.0339 60.889C33.6191 60.889 35.7224 62.9924 35.7224 65.5776H35.4303C35.4303 63.1534 33.4581 61.1809 31.0336 61.1809C28.6091 61.1809 26.6369 63.1531 26.6369 65.5776C26.6369 68.0021 28.6088 69.9743 31.0336 69.9743V70.2664H31.0339Z" fill="#79A1FF"/>
<path d="M30.3669 67.3819L28.4024 65.4177L28.6091 65.2113L30.3669 66.9691L33.459 63.877L33.6654 64.0832L30.3669 67.3819Z" fill="#79A1FF"/>
<path d="M34.6164 102.978L33.377 101.738H27.4514V96.4726H34.6164V102.978ZM27.7138 101.476H33.4857L34.3537 102.344V96.7351H27.7138V101.476Z" fill="#79A1FF"/>
<path d="M192.697 95.5667H183.001V95.3936H192.523V89.7635H192.697V95.5667Z" fill="#79A1FF"/>
<path d="M191.033 83.6999H186.397V79.0639H191.033V83.6999ZM186.551 83.5452H190.878V79.2186H186.551V83.5452Z" fill="#79A1FF"/>
<path d="M202.57 80.7636H191.96V79.6303H202.57V80.7636ZM192.114 80.6093H202.416V79.785H192.114V80.6093Z" fill="#79A1FF"/>
<path d="M202.57 86.0338H186.397V84.9008H202.57V86.0338ZM186.551 85.8791H202.416V85.0549H186.551V85.8791Z" fill="#79A1FF"/>
<path d="M196.699 88.2099H186.397V87.0766H196.699V88.2099ZM186.551 88.0555H196.544V87.2312H186.551V88.0555Z" fill="#79A1FF"/>
<path d="M199.145 82.9254H191.96V81.792H199.145V82.9254ZM192.114 82.771H198.991V81.9467H192.114V82.771Z" fill="#79A1FF"/>
<path d="M204.412 90.6743H184.555V76.5995H204.412V90.6743ZM184.71 90.5199H204.257V76.7542H184.71V90.5199Z" fill="#79A1FF"/>
<path d="M192.61 89.88C192.26 89.88 191.974 89.5948 191.974 89.244C191.974 88.8936 192.26 88.6081 192.61 88.6081C192.961 88.6081 193.246 88.8933 193.246 89.244C193.246 89.5948 192.961 89.88 192.61 89.88ZM192.61 88.7814C192.355 88.7814 192.147 88.989 192.147 89.244C192.147 89.499 192.355 89.7066 192.61 89.7066C192.865 89.7066 193.073 89.499 193.073 89.244C193.073 88.989 192.865 88.7814 192.61 88.7814Z" fill="#79A1FF"/>
<path d="M131.761 181.812H98.239L103.295 144.758H126.705L131.761 181.812Z" fill="#17306B"/>
<path d="M172.275 93.5114V162.295C172.275 164.322 170.633 165.966 168.606 165.966H61.3948C59.3673 165.966 57.7248 164.322 57.7248 162.295V93.5114C57.7248 91.4839 59.3673 89.8397 61.3948 89.8397H168.606C170.633 89.8397 172.275 91.4839 172.275 93.5114Z" fill="#1E3F8C"/>
<path d="M168.251 93.8639H61.7492V161.942H168.251V93.8639Z" fill="#C1D3FF"/>
<path d="M150.026 181.812H79.9745V184.953H150.026V181.812Z" fill="#1E3F8C"/>
<path d="M158.638 77.5876V150.647C158.638 152.741 156.94 154.442 154.843 154.442H110.326H75.1547C73.0608 154.442 71.3623 152.744 71.3623 150.647V77.5876C71.3623 75.4909 73.0637 73.7923 75.1578 73.7923H154.843C156.94 73.7921 158.638 75.4906 158.638 77.5876Z" fill="white"/>
<path d="M158.638 77.5876V91.028H71.3618V77.5847C71.3618 75.4906 73.0604 73.7923 75.1542 73.7923H154.842C156.94 73.7921 158.638 75.4906 158.638 77.5876Z" fill="#5F8EFF"/>
<path d="M81.2498 86.1755C83.0842 86.1755 84.5713 84.6885 84.5713 82.854C84.5713 81.0196 83.0842 79.5326 81.2498 79.5326C79.4154 79.5326 77.9283 81.0196 77.9283 82.854C77.9283 84.6885 79.4154 86.1755 81.2498 86.1755Z" fill="#1E3F8C"/>
<path d="M90.8612 86.1755C92.6956 86.1755 94.1827 84.6885 94.1827 82.854C94.1827 81.0196 92.6956 79.5326 90.8612 79.5326C89.0268 79.5326 87.5397 81.0196 87.5397 82.854C87.5397 84.6885 89.0268 86.1755 90.8612 86.1755Z" fill="#1E3F8C"/>
<path d="M100.473 86.1755C102.307 86.1755 103.794 84.6885 103.794 82.854C103.794 81.0196 102.307 79.5326 100.473 79.5326C98.6382 79.5326 97.1511 81.0196 97.1511 82.854C97.1511 84.6885 98.6382 86.1755 100.473 86.1755Z" fill="#1E3F8C"/>
<path d="M80.8053 85.7311C82.6397 85.7311 84.1268 84.244 84.1268 82.4096C84.1268 80.5752 82.6397 79.0881 80.8053 79.0881C78.9709 79.0881 77.4838 80.5752 77.4838 82.4096C77.4838 84.244 78.9709 85.7311 80.8053 85.7311Z" fill="white"/>
<path d="M90.4167 85.7311C92.2511 85.7311 93.7382 84.244 93.7382 82.4096C93.7382 80.5752 92.2511 79.0881 90.4167 79.0881C88.5823 79.0881 87.0952 80.5752 87.0952 82.4096C87.0952 84.244 88.5823 85.7311 90.4167 85.7311Z" fill="white"/>
<path d="M100.028 85.7311C101.863 85.7311 103.35 84.244 103.35 82.4096C103.35 80.5752 101.863 79.0881 100.028 79.0881C98.194 79.0881 96.707 80.5752 96.707 82.4096C96.707 84.244 98.194 85.7311 100.028 85.7311Z" fill="white"/>
<path d="M140.665 118.305H89.3349V144.079H140.665V118.305Z" fill="#5F8EFF"/>
<path d="M139.261 144.079H90.739L107.06 127.759C108.448 126.37 110.701 126.37 112.09 127.759L117.194 132.863C118.583 134.251 120.836 134.251 122.224 132.863L122.619 132.468C124.008 131.079 126.261 131.079 127.649 132.468L139.261 144.079Z" fill="#EBF1FF"/>
<path d="M147.838 143.358C147.722 143.436 147.656 143.545 147.665 143.665L150.768 181.431C150.815 182.007 151.327 182.478 151.912 182.478C152.495 182.478 152.921 182.007 152.862 181.431L149.024 143.665C148.999 143.425 148.677 143.232 148.305 143.232C148.119 143.232 147.954 143.28 147.838 143.358ZM129.99 143.665L126.151 181.431C126.093 182.007 126.518 182.478 127.101 182.478C127.686 182.478 128.198 182.007 128.245 181.431L131.348 143.665C131.368 143.425 131.081 143.232 130.708 143.232C130.522 143.232 130.349 143.28 130.219 143.358C130.089 143.436 130.002 143.545 129.99 143.665Z" fill="#A46F41"/>
<path d="M130.005 146.494H148.302C148.692 146.494 149.029 146.706 149.055 146.97C149.081 147.235 148.782 147.452 148.386 147.452H129.912L130.005 146.494ZM129.49 151.775H148.765C149.184 151.775 149.547 152.019 149.576 152.323C149.606 152.628 149.286 152.878 148.862 152.878H129.383L129.49 151.775ZM128.895 157.885H149.302C149.753 157.885 150.147 158.169 150.181 158.523C150.216 158.878 149.873 159.169 149.414 159.169H128.77L128.895 157.885ZM128.198 165.036H149.929C150.419 165.036 150.848 165.371 150.889 165.788C150.93 166.208 150.559 166.551 150.062 166.551H128.05L128.198 165.036ZM127.371 173.52H150.673C151.208 173.52 151.682 173.92 151.73 174.419C151.779 174.922 151.377 175.333 150.832 175.333H127.194L127.371 173.52Z" fill="#A46F41"/>
<path d="M147.899 143.366C147.821 143.449 147.806 143.564 147.874 143.692L169.133 183.841C169.457 184.453 170.195 184.953 170.78 184.953C171.363 184.953 171.562 184.453 171.227 183.841L149.232 143.692C149.093 143.437 148.678 143.231 148.305 143.231C148.119 143.231 147.977 143.283 147.899 143.366ZM130.198 143.692L144.516 183.841C144.734 184.453 145.386 184.954 145.969 184.954C146.554 184.954 146.839 184.453 146.61 183.841L131.556 143.692C131.461 143.437 131.082 143.231 130.708 143.231C130.522 143.231 130.372 143.283 130.28 143.366C130.187 143.449 130.153 143.564 130.198 143.692Z" fill="#B27C54"/>
<path d="M131.574 146.7H149.871C150.261 146.7 150.7 146.925 150.852 147.206C151.005 147.487 150.81 147.717 150.415 147.717H131.94L131.574 146.7ZM133.598 152.314H152.873C153.291 152.314 153.771 152.573 153.947 152.896C154.124 153.221 153.924 153.486 153.499 153.486H134.02L133.598 152.314ZM135.939 158.809H156.346C156.798 158.809 157.327 159.111 157.532 159.487C157.738 159.865 157.534 160.174 157.076 160.174H136.432L135.939 158.809ZM138.681 166.412H160.411C160.901 166.412 161.492 166.767 161.733 167.21C161.975 167.656 161.77 168.021 161.272 168.021H139.261L138.681 166.412ZM141.932 175.431H165.234C165.77 175.431 166.435 175.856 166.723 176.386C167.014 176.921 166.81 177.358 166.264 177.358H142.626L141.932 175.431Z" fill="#B27C54"/>
<path d="M145.49 97.3139C144.119 93.4792 140.454 91.124 136.591 91.2401C135.656 91.2683 134.71 91.4411 133.781 91.7732C130.967 92.7797 128.95 95.0205 128.121 97.6681C127.547 99.5029 127.543 101.533 128.241 103.483C128.31 103.677 128.385 103.867 128.466 104.054C128.833 104.898 129.314 105.662 129.886 106.334C132.283 109.152 136.26 110.342 139.95 109.023C144.713 107.319 147.194 102.077 145.49 97.3139ZM139.178 106.865C136.411 107.854 133.43 106.961 131.632 104.848C131.204 104.345 130.843 103.772 130.568 103.139C130.507 102.999 130.451 102.856 130.399 102.711C129.876 101.249 129.879 99.7263 130.31 98.3514C130.931 96.3663 132.443 94.6858 134.553 93.9317C135.249 93.6824 135.959 93.5531 136.66 93.5315C139.555 93.4441 142.303 95.2102 143.332 98.0849C144.609 101.657 142.749 105.588 139.178 106.865Z" fill="#E23885"/>
<path d="M130.31 98.3515L128.121 97.6681C128.95 95.0205 130.967 92.7797 133.781 91.7732C134.71 91.4411 135.656 91.268 136.591 91.2401L136.66 93.5318C135.959 93.5531 135.249 93.6827 134.553 93.932C132.443 94.6858 130.931 96.3663 130.31 98.3515Z" fill="#987AA8"/>
<path d="M130.568 103.139L128.466 104.054C128.385 103.867 128.31 103.677 128.241 103.483C127.543 101.533 127.547 99.5032 128.121 97.6684L130.31 98.3517C129.879 99.7268 129.876 101.249 130.399 102.711C130.451 102.856 130.507 102.999 130.568 103.139Z" fill="#57BD7D"/>
<path d="M129.886 106.334C129.314 105.663 128.833 104.898 128.466 104.054L130.568 103.139C130.843 103.773 131.204 104.345 131.632 104.849L129.886 106.334Z" fill="#3788CC"/>
<path d="M139.252 101.715C139.252 101.715 138.74 100.82 139.551 98.4216C140.335 96.102 143.051 96.3122 143.914 97.7983C144.777 99.2844 144.486 100.208 143.215 101.885C141.944 103.564 139.779 102.482 139.252 101.715Z" fill="#FBD494"/>
<path d="M145.559 142.982C145.559 142.982 145.693 143.967 145.71 144.115C145.726 144.263 147.205 144.028 147.205 144.028L147.324 142.855C147.324 142.855 145.743 142.844 145.559 142.982Z" fill="#FBD494"/>
<path d="M145.694 143.99C145.694 143.99 145.225 144.584 144.773 144.842C144.32 145.101 143.608 145.203 143.34 145.471C143.147 145.664 142.636 146.497 144.517 146.48C146.398 146.463 147.305 146.598 147.506 146.279C147.708 145.959 147.215 143.923 147.215 143.923C147.215 143.923 146.755 144.053 145.694 143.99Z" fill="#39464F"/>
<path d="M135.325 142.982C135.325 142.982 135.46 143.967 135.477 144.115C135.493 144.263 136.971 144.028 136.971 144.028L137.091 142.855C137.091 142.855 135.51 142.844 135.325 142.982Z" fill="#FBD494"/>
<path d="M135.461 143.99C135.461 143.99 134.993 144.584 134.54 144.842C134.087 145.101 132.42 145.313 132.153 145.581C131.959 145.775 131.638 146.553 134.284 146.48C136.164 146.428 137.072 146.598 137.273 146.279C137.475 145.959 136.982 143.924 136.982 143.924C136.982 143.924 136.398 144.027 135.461 143.99Z" fill="#39464F"/>
<path d="M147.344 143.731L145.509 143.776C145.509 143.776 143.967 133.996 143.568 132.997C143.243 132.185 141.873 127.327 141.336 125.112C140.448 127.3 139.265 130.752 139.265 133.729C139.265 136.956 137.163 143.776 137.163 143.776H135.118C135.472 142.622 135.85 133.241 135.915 132.464C135.982 131.688 136.071 126.921 136.204 125.678C136.338 124.435 137.452 118.21 137.452 118.21C138.199 116.956 145.062 118.454 145.062 118.454C145.062 118.454 145.818 120.809 145.719 122.839C145.618 124.868 146.11 127.089 146.312 129.208C146.535 131.572 147.452 137.166 147.485 138.431C147.519 139.694 147.344 143.731 147.344 143.731Z" fill="#6A8D9E"/>
<path d="M139.994 102.348C139.994 102.348 140.225 103.02 139.994 103.5C139.763 103.979 142.943 103.692 142.943 103.692C142.943 103.692 142.799 102.701 143.215 101.886C143.63 101.07 139.994 102.348 139.994 102.348Z" fill="#FBD494"/>
<path d="M145.208 118.968C145.208 118.968 144.065 120.143 137.349 118.785L137.452 118.209L145.086 118.497L145.208 118.968Z" fill="#39464F"/>
<path d="M139.513 103.655C139.513 103.655 138.338 103.775 138.002 103.839C137.667 103.903 135.408 103.435 134.944 103.387C134.481 103.339 132.504 101.985 132.441 101.825C132.377 101.666 131.239 98.7836 131.174 98.1603C131.11 97.5364 130.066 97.8587 130.155 98.2879C130.323 99.0915 130.538 101.042 130.656 101.607C130.783 102.217 131.125 103.599 131.317 103.77C131.509 103.94 133.288 105.293 135.03 105.868C136.772 106.444 138.083 107.291 138.083 107.291H146.668C146.668 107.291 150.007 102.518 150.079 101.799C150.151 101.08 147.747 96.3001 147.267 95.7004C146.788 95.1013 146.095 95.8959 146.095 95.8959C146.095 95.8959 147.531 100.111 147.723 100.71C147.915 101.31 146.052 103.943 145.54 103.951C145.029 103.959 143.716 103.791 143.133 103.767C142.549 103.743 141.934 103.487 141.934 103.487L139.513 103.655Z" fill="#FBD494"/>
<path d="M135.813 106.843C135.813 106.843 136.864 107.542 136.96 108.741C137.056 109.939 137.439 111.833 137.631 112.48C137.823 113.128 137.463 117.826 137.415 118.161C137.367 118.497 144.058 119.294 145.086 118.497C145.086 118.497 145.374 114.11 145.493 112.864C145.613 111.618 146.188 108.597 146.38 108.189C146.572 107.782 148.897 104.52 148.993 104.091C148.993 104.091 147.79 102.173 146.927 102.149C146.927 102.149 145.557 103.755 145.11 103.827C144.663 103.898 141.924 103.396 141.924 103.392C141.924 103.392 141.625 103.8 140.035 103.32C140.035 103.32 138.142 103.534 137.835 103.573C137.462 103.62 134.87 103.248 134.87 103.248C134.87 103.248 133.83 105.004 134.013 105.89L135.813 106.843Z" fill="#EB5757"/>
<path d="M131.235 98.5349C131.235 98.5349 131 97.424 131.283 97.1049C131.444 96.9234 131.83 96.4424 131.865 96.372C131.901 96.3016 132.316 96.0629 132.316 95.9479C132.316 95.8329 131.909 95.6921 131.556 96.0187C131.203 96.3453 130.982 96.416 130.841 96.3806C130.7 96.3453 130.497 95.1711 130.479 94.8799C130.461 94.5884 130.349 93.8202 130.166 93.8733C129.985 93.9262 129.993 94.2618 129.993 94.2618C129.993 94.2618 129.782 93.6787 129.64 93.7937C129.499 93.9081 129.516 94.191 129.516 94.191C129.516 94.191 129.251 93.8641 129.181 94.1025C129.111 94.3411 129.181 94.5527 129.181 94.5527C129.181 94.5527 128.907 94.4026 128.89 94.7735C128.872 95.1444 128.969 96.2306 129.163 96.6193C129.357 97.0077 130.085 98.024 130.171 98.4207C130.258 98.8178 131.235 98.5349 131.235 98.5349Z" fill="#FBD494"/>
<path d="M146.328 96.5839C146.328 96.5839 145.53 95.2413 145.258 95.1214C144.986 95.0015 144.603 94.9337 144.267 94.6939C143.931 94.4544 143.488 94.2546 143.512 94.1747C143.536 94.0947 143.931 94.1266 144.355 94.3104C144.779 94.4941 144.964 94.4052 145.004 94.3095C145.044 94.2135 144.779 93.5364 144.651 93.3768C144.523 93.2167 143.612 92.3004 143.764 92.1647C143.916 92.029 144.507 92.5325 144.603 92.636C144.603 92.636 144.132 91.6455 144.315 91.5975C144.499 91.5495 144.843 91.9011 144.843 91.9011C144.843 91.9011 144.803 91.0541 145.714 92.4287C145.714 92.4287 145.522 91.9733 145.802 92.1251C146.081 92.2766 146.353 93.1319 146.441 93.5634C146.529 93.9947 146.927 95.3692 147.268 95.7007C147.607 96.0322 146.328 96.5839 146.328 96.5839Z" fill="#FBD494"/>
<path d="M143.216 101.886C143.216 101.886 142.795 101.923 141.899 101.614C141.405 101.442 141.163 100.891 141.014 100.461C141.189 100.291 141.315 100.073 141.297 99.8608C141.224 99.0803 140.611 99.2666 140.446 99.5423C140.37 99.6653 140.274 99.8329 140.224 100.105C140.049 100.068 139.907 99.939 139.827 99.818C139.827 99.818 140.263 99.2441 140.062 98.9667C139.859 98.689 139.529 98.488 139.529 98.488C139.529 98.488 140.159 95.4534 143.024 96.8357C146.379 98.4541 143.216 101.886 143.216 101.886Z" fill="#39464F"/>
<path d="M139.994 103.5L140.095 103.061C140.095 103.061 141.923 103.024 142.92 103.169L143.026 103.693C143.026 103.693 141.748 104.272 139.994 103.5Z" fill="#EB5757"/>
<path d="M92.8766 95.4767H75.116V98.3515H92.8766V95.4767Z" fill="#FADF7D"/>
<path d="M112.23 95.4767H94.4693V98.3515H112.23V95.4767Z" fill="#E7E8E8"/>
<path d="M92.8766 100.712H75.116V103.586H92.8766V100.712Z" fill="#E7E8E8"/>
<path d="M112.23 100.712H94.4693V103.586H112.23V100.712Z" fill="#57BD7D"/>
<path d="M90.8581 105.946H75.116V108.821H90.8581V105.946Z" fill="#EB5757"/>
<path d="M108.012 105.946H92.2697V108.821H108.012V105.946Z" fill="#E7E8E8"/>
<path d="M87.9017 111.181H75.116V114.055H87.9017V111.181Z" fill="#E7E8E8"/>
<path d="M101.834 111.181H89.0482V114.055H101.834V111.181Z" fill="#987AA8"/>
<path d="M97.9392 136.347C95.3997 138.669 91.3945 139.145 88.6814 137.03C88.5972 136.964 88.5144 136.896 88.4333 136.826C85.1279 133.96 86.1825 128.544 90.2673 126.973C94.4119 125.377 96.1354 126.873 100.772 121.523C103.485 123.639 103.303 131.438 97.9392 136.347Z" fill="#F7D633"/>
<path d="M89.2541 135.957C89.19 135.893 89.1851 135.789 89.2455 135.719C89.3087 135.645 89.4194 135.637 89.4927 135.7C89.5603 135.759 89.629 135.815 89.6997 135.87C91.8885 137.577 95.2186 137.328 97.4461 135.291C97.5154 135.228 97.6221 135.231 97.6879 135.297C97.6896 135.299 97.6917 135.301 97.6931 135.303C97.7584 135.374 97.7535 135.485 97.6819 135.55C95.3298 137.7 91.8057 137.957 89.4844 136.147C89.4094 136.089 89.3358 136.028 89.2636 135.966C89.2604 135.963 89.2573 135.96 89.2541 135.957Z" fill="#EC8D2F"/>
<path d="M84.8059 134.321C81.5175 135.179 77.2915 137.815 73.4065 141.7C67.0755 148.031 64.0527 155.273 66.6555 157.875C69.2579 160.478 76.5 157.455 82.8314 151.124C86.7161 147.24 89.3518 143.014 90.2103 139.725L84.8059 134.321Z" fill="#39464F"/>
<path d="M91.7804 139.664C91.3304 140.114 90.6002 140.116 90.1502 139.666L84.8671 134.383C84.6423 134.158 84.5287 133.86 84.5287 133.564C84.5287 133.269 84.6423 132.975 84.8671 132.751C85.3171 132.301 86.0453 132.301 86.4973 132.753L91.7804 138.036C92.0052 138.26 92.1187 138.554 92.1187 138.85C92.1167 139.143 92.0052 139.439 91.7804 139.664Z" fill="#EBF1FF"/>
<path d="M112.612 164.376C112.607 163.83 112.224 163.384 111.719 163.264C111.626 163.241 111.528 163.228 111.431 163.231L108.42 163.27C107.999 161.348 107.211 159.56 106.14 157.981L108.249 155.815C108.699 155.359 108.689 154.616 108.228 154.17L105.464 151.471C105.007 151.025 104.267 151.039 103.816 151.497L101.713 153.662C100.106 152.627 98.3023 151.889 96.3668 151.521L96.328 148.506C96.3182 147.864 95.7893 147.348 95.147 147.356L91.2867 147.405C90.6444 147.415 90.1321 147.944 90.1399 148.586L90.1787 151.597C88.2539 152.02 86.4651 152.803 84.8861 153.875L82.7264 151.77C82.2678 151.324 81.5249 151.334 81.0787 151.791L78.3857 154.555C77.9361 155.016 77.9496 155.755 78.4064 156.201L80.5716 158.307C79.5397 159.912 78.8003 161.721 78.4283 163.656L75.417 163.695C74.7747 163.705 74.2569 164.234 74.265 164.876L74.3159 168.736C74.3236 169.378 74.8546 169.891 75.4969 169.883L78.5117 169.844C78.9328 171.763 79.7168 173.554 80.7898 175.133L79.3957 176.561L78.679 177.292C78.2328 177.755 78.2428 178.494 78.7017 178.944L81.468 181.637C81.9266 182.086 82.666 182.073 83.1122 181.611L85.221 179.451C86.8261 180.481 88.6314 181.218 90.5665 181.59L90.6051 184.602C90.6128 185.244 91.1438 185.76 91.7861 185.752L95.6464 185.703C96.2866 185.695 96.801 185.164 96.7912 184.522L96.7524 181.507C98.6775 181.089 100.463 180.305 102.041 179.232L104.201 181.338C104.663 181.789 105.402 181.779 105.852 181.317L108.545 178.554C108.997 178.096 108.983 177.356 108.521 176.907L106.356 174.798C107.388 173.191 108.123 171.388 108.495 169.456L111.512 169.417C112.152 169.409 112.67 168.878 112.662 168.236L112.612 164.376ZM93.5686 174.488C89.1865 174.545 85.5896 171.039 85.533 166.657C85.4763 162.276 88.9821 158.678 93.3642 158.621C97.7448 158.565 101.343 162.07 101.4 166.452C101.456 170.835 97.9507 174.432 93.5686 174.488Z" fill="#3E8659"/>
<path d="M114.261 164.369C114.255 163.824 113.872 163.378 113.368 163.257C113.274 163.234 113.177 163.222 113.08 163.224L110.068 163.263C109.647 161.342 108.859 159.553 107.788 157.974L109.897 155.809C110.347 155.352 110.337 154.609 109.876 154.163L107.112 151.465C106.655 151.019 105.916 151.032 105.464 151.491L103.361 153.656C101.754 152.621 99.9505 151.883 98.0151 151.515L97.9763 148.5C97.9665 147.858 97.4375 147.342 96.7952 147.349L92.935 147.399C92.2927 147.408 91.7804 147.937 91.7881 148.58L91.8269 151.591C89.9021 152.014 88.1133 152.796 86.5343 153.869L84.3746 151.764C83.9161 151.318 83.1732 151.328 82.727 151.784L80.034 154.549C79.5843 155.01 79.5978 155.749 80.0547 156.195L82.2198 158.3C81.188 159.905 80.4485 161.714 80.0765 163.65L77.0652 163.688C76.4233 163.698 75.9052 164.227 75.9132 164.869L75.9641 168.73C75.9719 169.372 76.5029 169.884 77.1452 169.876L80.1599 169.837C80.5811 171.757 81.3651 173.547 82.438 175.126L81.044 176.555L80.3272 177.286C79.881 177.748 79.8911 178.487 80.3499 178.937L83.1163 181.63C83.5748 182.08 84.3143 182.067 84.7605 181.604L86.8693 179.445C88.4744 180.474 90.2796 181.212 92.2148 181.584L92.2536 184.595C92.2613 185.238 92.7923 185.753 93.4346 185.746L97.2949 185.697C97.9351 185.689 98.4495 185.158 98.4397 184.515L98.4009 181.501C100.326 181.083 102.111 180.299 103.69 179.226L105.849 181.331C106.312 181.783 107.051 181.773 107.501 181.311L110.194 178.548C110.646 178.09 110.632 177.35 110.169 176.9L108.004 174.792C109.036 173.185 109.772 171.381 110.144 169.45L113.16 169.411C113.801 169.403 114.318 168.872 114.311 168.23L114.261 164.369ZM95.2168 174.482C90.8348 174.538 87.2379 171.033 87.1812 166.651C87.1246 162.27 90.6304 158.672 95.0124 158.615C99.3931 158.558 102.991 162.064 103.048 166.446C103.104 170.828 99.5989 174.425 95.2168 174.482Z" fill="#57BD7D"/>
</g>
<defs>
<clipPath id="clip0_216_7763">
<rect width="230" height="230" fill="white"/>
</clipPath>
</defs>
</svg>
