<svg width="230" height="230" viewBox="0 0 230 230" fill="none" xmlns="http://www.w3.org/2000/svg">
<path d="M201.169 126.544C193.555 132.358 189.363 140.29 189.363 148.475C189.363 150.196 189.548 151.929 189.926 153.654C190.327 155.487 190.519 157.288 190.519 159.047C190.519 181.304 159.777 196.89 133.194 185.942C127.5 183.596 121.25 182.424 114.999 182.424C108.75 182.424 102.502 183.596 96.8061 185.942C90.8164 188.409 84.6173 189.528 78.6051 189.528C55.823 189.528 35.7397 173.45 40.0746 153.654C40.4518 151.928 40.6375 150.196 40.6375 148.475C40.6375 140.289 36.4449 132.358 28.8308 126.544C20.6888 120.327 16.9809 112.491 16.9809 104.78C16.9809 90.5119 29.6815 76.6708 50.5002 74.3009C56.8675 73.5756 62.8026 71.6467 67.8586 68.7694C72.9146 65.891 77.0911 62.0655 79.9388 57.5451C87.1102 46.163 101.057 40.4711 115.001 40.4711C128.946 40.4711 142.892 46.1627 150.062 57.5451C155.757 66.585 166.766 72.8505 179.5 74.3009C189.91 75.486 198.29 79.5392 204.067 85.0782C216.089 96.6072 216.843 114.575 201.169 126.544Z" fill="#EBF1FF"/>
<path d="M158.4 146.081C158.4 146.081 158.9 136.117 163.557 129.87C164.176 129.04 165.499 129.45 165.548 130.484C165.549 130.502 165.55 130.519 165.55 130.537C165.606 132.304 160.449 140.132 158.4 146.081Z" fill="#79A1FF"/>
<path d="M157.98 148.953C157.98 148.953 162.175 136.252 170.418 130.195C170.921 129.826 171.641 129.898 172.029 130.386C172.281 130.704 172.421 131.219 172.219 132.052C171.682 134.272 162.573 142.248 157.98 148.953Z" fill="#79A1FF"/>
<path d="M68.408 148.711C68.408 148.711 67.9089 138.747 63.2512 132.5C62.6322 131.67 61.3097 132.08 61.2602 133.114C61.2594 133.131 61.2588 133.149 61.2582 133.167C61.2021 134.934 66.3599 142.761 68.408 148.711Z" fill="#79A1FF"/>
<path d="M68.8286 151.583C68.8286 151.583 64.6331 138.882 56.3902 132.825C55.8877 132.456 55.1675 132.528 54.7797 133.016C54.5272 133.334 54.3881 133.849 54.5896 134.682C55.1267 136.902 64.2361 144.877 68.8286 151.583Z" fill="#79A1FF"/>
<path d="M157.972 57.0506L157.916 57.0216C151.969 53.9856 152.768 48.1057 152.776 48.0467L152.792 47.9398H152.9C156.681 47.9398 157.869 46.7213 157.881 46.709L157.973 46.6112L158.065 46.7096C158.076 46.7213 159.264 47.9398 163.045 47.9398H163.153L163.169 48.0467C163.177 48.1057 163.976 53.9856 158.029 57.0216L157.972 57.0506ZM153.012 48.1899C152.937 48.9863 152.687 54.0336 157.972 56.7692C163.259 54.0336 163.008 48.9863 162.933 48.1899C159.65 48.1695 158.314 47.2549 157.972 46.9649C157.631 47.2552 156.295 48.1695 153.012 48.1899Z" fill="#79A1FF"/>
<path d="M144.616 81.1495H144.366V67.1798H157.847V55.4314H158.098V67.4302H144.616V81.1495Z" fill="#79A1FF"/>
<path d="M166.261 60.1525H164.112V59.9018H166.011V58.0049H166.261V60.1525Z" fill="#79A1FF"/>
<path d="M151.809 60.1525H149.659V58.0049H149.91V59.9018H151.809V60.1525Z" fill="#79A1FF"/>
<path d="M149.911 45.7007H149.66V43.5514H151.808V43.8018H149.911V45.7007Z" fill="#79A1FF"/>
<path d="M166.261 45.6998H166.011V43.8026H164.112V43.5522H166.261V45.6998Z" fill="#79A1FF"/>
<path d="M166.262 48.9092H166.011V54.7955H166.262V48.9092Z" fill="#79A1FF"/>
<path d="M149.91 48.9092H149.659V54.7955H149.91V48.9092Z" fill="#79A1FF"/>
<path d="M157.972 55.5565C157.465 55.5565 157.053 55.1437 157.053 54.6365C157.053 54.1294 157.465 53.7168 157.972 53.7168C158.48 53.7168 158.892 54.1294 158.892 54.6365C158.892 55.1439 158.479 55.5565 157.972 55.5565ZM157.972 53.9672C157.603 53.9672 157.303 54.2676 157.303 54.6365C157.303 55.0057 157.604 55.3058 157.972 55.3058C158.342 55.3058 158.642 55.0057 158.642 54.6365C158.642 54.2676 158.342 53.9672 157.972 53.9672Z" fill="#79A1FF"/>
<path d="M178.945 88.7981H166.136V79.6542H178.945V88.7981ZM166.492 88.4428H178.59V80.0098H166.492V88.4428Z" fill="#5F8EFF"/>
<path d="M172.541 85.1926L166.201 79.969L166.427 79.6947L172.541 84.732L178.655 79.6947L178.88 79.969L172.541 85.1926Z" fill="#5F8EFF"/>
<path d="M174.294 83.6453L174.036 83.8898L178.634 88.7364L178.892 88.4918L174.294 83.6453Z" fill="#5F8EFF"/>
<path d="M170.785 83.6593L166.191 88.5092L166.449 88.7538L171.043 83.9038L170.785 83.6593Z" fill="#5F8EFF"/>
<path d="M48.1068 111.079H31.3495L31.3789 110.929C31.648 109.549 32.8661 108.547 34.2749 108.547C34.4781 108.547 34.6808 108.568 34.8789 108.61C35.752 106.951 37.448 105.924 39.3288 105.924C40.9316 105.924 42.4424 106.694 43.3898 107.987C43.7348 107.882 44.0938 107.829 44.4578 107.829C46.2811 107.829 47.8066 109.135 48.0846 110.934L48.1068 111.079ZM31.6583 110.828H47.8112C47.4961 109.251 46.0799 108.079 44.4578 108.079C44.0895 108.079 43.727 108.138 43.3806 108.253L43.292 108.282L43.2385 108.206C42.3424 106.934 40.881 106.175 39.3285 106.175C37.5104 106.175 35.8736 107.185 35.0574 108.81L35.0126 108.899L34.9157 108.875C34.707 108.824 34.4913 108.798 34.2749 108.798C33.0369 108.798 31.9599 109.643 31.6583 110.828Z" fill="#79A1FF"/>
<path d="M51.4515 123.478H40.858V109.93H41.1084V123.227H51.4515V123.478Z" fill="#79A1FF"/>
<path d="M40.9834 110.055C40.4757 110.055 40.0634 109.643 40.0634 109.135C40.0634 108.628 40.476 108.215 40.9834 108.215C41.4906 108.215 41.9031 108.628 41.9031 109.135C41.9031 109.642 41.4906 110.055 40.9834 110.055ZM40.9834 108.466C40.614 108.466 40.3138 108.766 40.3138 109.135C40.3138 109.504 40.6143 109.804 40.9834 109.804C41.3526 109.804 41.6527 109.504 41.6527 109.135C41.6527 108.766 41.3526 108.466 40.9834 108.466Z" fill="#79A1FF"/>
<path d="M96.0929 70.1911H86.7339V60.8318H96.0929V70.1911ZM87.105 69.82H95.7217V61.2033H87.105V69.82Z" fill="#5F8EFF"/>
<path d="M91.599 63.3828H91.2278V67.7453H91.599V63.3828Z" fill="#5F8EFF"/>
<path d="M93.5942 65.3784H89.2322V65.7495H93.5942V65.3784Z" fill="#5F8EFF"/>
<path d="M58.5563 88.1561L58.4137 87.7835C58.286 87.7668 58.1607 87.7381 58.0388 87.6975L57.7481 87.9704L56.9043 87.3698L57.067 87.0055C56.9885 86.9037 56.9204 86.7945 56.8626 86.6795L56.4636 86.6669L56.2919 85.6454L56.6645 85.5028C56.6809 85.3748 56.71 85.2495 56.7505 85.1279L56.4777 84.8372L57.0782 83.9931L57.4422 84.1558C57.5443 84.0776 57.6532 84.0092 57.7685 83.9517L57.7809 83.5529L58.8024 83.381L58.9453 83.7533C59.0726 83.77 59.1986 83.7987 59.3202 83.8393L59.6114 83.5664L60.4552 84.167L60.2925 84.5313C60.3707 84.6331 60.4388 84.7423 60.4966 84.8576L60.8957 84.87L61.0673 85.8915L60.6953 86.0341C60.678 86.1617 60.6493 86.2873 60.6087 86.4092L60.8822 86.6999L60.281 87.544L59.917 87.3813C59.8155 87.4595 59.7063 87.5279 59.5913 87.5854L59.5783 87.9842L58.5563 88.1561ZM57.9724 87.3689L58.0557 87.4008C58.2067 87.4589 58.3657 87.4951 58.5284 87.5089L58.6172 87.5164L58.7394 87.8358L59.3006 87.7415L59.3115 87.3997L59.3932 87.3632C59.5418 87.2968 59.6795 87.2105 59.8035 87.1061L59.8719 87.0487L60.1841 87.1881L60.5139 86.7243L60.2798 86.4751L60.3118 86.3917C60.3701 86.2411 60.4061 86.0821 60.4204 85.9194L60.4282 85.8305L60.747 85.7086L60.6527 85.1474L60.3109 85.1365L60.2744 85.0548C60.2083 84.9065 60.1217 84.7682 60.0174 84.6443L59.9599 84.5759L60.0993 84.2642L59.6361 83.9342L59.3866 84.1679L59.3032 84.136C59.1517 84.0779 58.993 84.0417 58.8311 84.0279L58.7423 84.0201L58.6198 83.701L58.0589 83.7953L58.048 84.1371L57.9663 84.1737C57.8177 84.2401 57.6794 84.3263 57.5552 84.4307L57.4874 84.4879L57.1751 84.3487L56.8451 84.8125L57.0791 85.0617L57.0469 85.1451C56.9894 85.2958 56.9526 85.4547 56.9388 85.6175L56.931 85.7063L56.6119 85.8285L56.7068 86.3897L57.0486 86.4009L57.0849 86.4823C57.151 86.6309 57.2378 86.7692 57.3422 86.8931L57.3994 86.9615L57.2605 87.2735L57.7237 87.6032L57.9724 87.3689ZM58.677 86.8948C58.445 86.8948 58.2193 86.8233 58.0267 86.6861C57.5207 86.3262 57.402 85.6212 57.7619 85.1155C58.1219 84.6095 58.8268 84.4908 59.3325 84.8507C59.5778 85.0252 59.7405 85.2846 59.7902 85.5813C59.84 85.878 59.7715 86.1764 59.597 86.4213C59.4225 86.6666 59.1635 86.829 58.8665 86.879C58.8035 86.8897 58.74 86.8948 58.677 86.8948ZM58.6811 84.9272C58.418 84.9272 58.1584 85.0502 57.9945 85.2805C57.864 85.4634 57.8131 85.6865 57.8505 85.9081C57.8878 86.1295 58.0092 86.3236 58.1923 86.4535C58.3752 86.5841 58.598 86.6349 58.8199 86.5978C59.041 86.5605 59.2354 86.4391 59.3653 86.256C59.4958 86.0732 59.547 85.8503 59.5096 85.6287C59.4723 85.4073 59.3509 85.2133 59.1678 85.083C59.0197 84.9778 58.8495 84.9272 58.6811 84.9272Z" fill="#5F8EFF"/>
<path d="M50.6426 89.3475L50.324 88.5161C49.9827 88.4778 49.6475 88.4011 49.3252 88.2875L48.6766 88.8964L46.9145 87.6426L47.2774 86.8302C47.0643 86.5625 46.8818 86.2713 46.734 85.9613L45.8442 85.9334L45.4848 83.8008L46.3163 83.4828C46.3545 83.1415 46.4315 82.8063 46.5451 82.4837L45.9362 81.8351L47.1897 80.0733L48.0024 80.4362C48.2698 80.2228 48.5613 80.0406 48.8713 79.8925L48.8992 79.0027L51.0315 78.6433L51.3501 79.4748C51.6911 79.5133 52.0257 79.59 52.3489 79.7039L52.9975 79.095L54.7593 80.3488L54.3964 81.161C54.6098 81.4286 54.792 81.7198 54.9404 82.0301L55.8299 82.058L56.1896 84.1906L55.3581 84.5086C55.3196 84.8501 55.2428 85.1851 55.129 85.5077L55.7382 86.1563L54.4841 87.9184L53.6722 87.5555C53.4049 87.7688 53.1133 87.9511 52.8034 88.0992L52.7755 88.989L50.6426 89.3475ZM49.2375 87.8482L49.3488 87.8908C49.7099 88.029 50.0891 88.1159 50.4761 88.1492L50.5948 88.1596L50.8864 88.9211L52.4049 88.6653L52.4305 87.8502L52.5392 87.8016C52.8943 87.6435 53.2243 87.4371 53.5199 87.1881L53.611 87.1116L54.3553 87.4437L55.248 86.189L54.6906 85.5948L54.7331 85.4835C54.8714 85.1227 54.9585 84.7432 54.9916 84.3562L55.0016 84.2375L55.7635 83.946L55.5073 82.4274L54.6923 82.4018L54.644 82.2931C54.4856 81.9381 54.2789 81.6083 54.0305 81.313L53.9537 81.2216L54.2858 80.4779L53.0314 79.5849L52.4371 80.1423L52.3262 80.0998C51.9651 79.9618 51.5858 79.8747 51.1989 79.8416L51.0798 79.8315L50.7886 79.07L49.27 79.3258L49.2439 80.1409L49.1352 80.1895C48.7807 80.3476 48.4504 80.554 48.1545 80.803L48.0634 80.8795L47.3193 80.5474L46.4267 81.8018L46.9841 82.3963L46.9413 82.5076C46.803 82.8681 46.7162 83.2476 46.6828 83.6349L46.6728 83.7536L45.9115 84.0451L46.1673 85.5637L46.9824 85.5893L47.0307 85.698C47.1891 86.0528 47.3955 86.3828 47.6445 86.6786L47.7207 86.7701L47.3886 87.5138L48.6433 88.4068L49.2375 87.8482ZM50.8337 86.4541C50.3404 86.4541 49.8427 86.3063 49.4109 85.9996C48.306 85.213 48.047 83.6746 48.8333 82.5694C49.6196 81.4646 51.158 81.2055 52.2632 81.9918C53.3683 82.7781 53.6277 84.3168 52.8414 85.4217C52.3621 86.0947 51.6034 86.4541 50.8337 86.4541ZM50.8401 81.9168C50.1895 81.9168 49.548 82.2207 49.1432 82.7896C48.821 83.2424 48.6945 83.7933 48.7867 84.341C48.8793 84.8884 49.1792 85.3676 49.6314 85.6896C50.5655 86.3546 51.8664 86.1353 52.5314 85.2012C52.8534 84.7489 52.9799 84.1978 52.8879 83.6501C52.7954 83.1024 52.4955 82.6235 52.043 82.3015C51.6776 82.0416 51.2569 81.9168 50.8401 81.9168Z" fill="#5F8EFF"/>
<path d="M71.4524 75.6369C68.4497 75.6369 66.0065 73.1938 66.0065 70.1911H66.2983C66.2983 73.0331 68.6104 75.3448 71.4524 75.3448C74.2943 75.3448 76.6064 73.0331 76.6064 70.1911C76.6064 67.3495 74.2943 65.0374 71.4524 65.0374V64.7456C74.455 64.7456 76.8982 67.1885 76.8982 70.1911C76.8979 73.1938 74.455 75.6369 71.4524 75.6369ZM71.4524 74.8799C68.8669 74.8799 66.7641 72.7766 66.7641 70.1911C66.7641 67.6059 68.8672 65.5026 71.4524 65.5026C74.0378 65.5026 76.1409 67.6059 76.1409 70.1911H75.8488C75.8488 67.7669 73.8766 65.7944 71.4521 65.7944C69.0276 65.7944 67.0553 67.7666 67.0553 70.1911C67.0553 72.6156 69.0273 74.5879 71.4521 74.5879V74.8799H71.4524Z" fill="#79A1FF"/>
<path d="M70.7851 71.9952L68.8209 70.031L69.0273 69.8245L70.7851 71.5826L73.8774 68.4903L74.0836 68.6967L70.7851 71.9952Z" fill="#79A1FF"/>
<path d="M38.2522 103.624L37.0127 102.384H31.0868V97.1183H38.2519V103.624H38.2522ZM31.3496 102.121H37.1214L37.9894 102.989V97.3808H31.3496V102.121Z" fill="#5F8EFF"/>
<path d="M185.057 113.647H175.361V113.474H184.883V107.844H185.057V113.647Z" fill="#79A1FF"/>
<path d="M183.392 101.78H178.756V97.144H183.392V101.78ZM178.911 101.625H183.238V97.2986H178.911V101.625Z" fill="#79A1FF"/>
<path d="M194.93 98.8439H184.32V97.7106H194.93V98.8439ZM184.474 98.6892H194.775V97.865H184.474V98.6892Z" fill="#79A1FF"/>
<path d="M194.93 104.114H178.757V102.981H194.93V104.114ZM178.911 103.959H194.776V103.135H178.911V103.959Z" fill="#79A1FF"/>
<path d="M189.058 106.29H178.757V105.157H189.058V106.29ZM178.911 106.136H188.904V105.311H178.911V106.136Z" fill="#79A1FF"/>
<path d="M191.505 101.006H184.32V99.8723H191.505V101.006ZM184.474 100.851H191.35V100.027H184.474V100.851Z" fill="#79A1FF"/>
<path d="M196.772 108.754H176.915V94.6795H196.772V108.754ZM177.07 108.6H196.617V94.8342H177.07V108.6Z" fill="#79A1FF"/>
<path d="M184.97 107.96C184.62 107.96 184.334 107.675 184.334 107.324C184.334 106.974 184.62 106.688 184.97 106.688C185.32 106.688 185.606 106.974 185.606 107.324C185.606 107.675 185.32 107.96 184.97 107.96ZM184.97 106.861C184.715 106.861 184.507 107.069 184.507 107.324C184.507 107.579 184.715 107.787 184.97 107.787C185.225 107.787 185.433 107.579 185.433 107.324C185.433 107.069 185.225 106.861 184.97 106.861Z" fill="#79A1FF"/>
<path d="M97.4317 82.7048C97.4228 83.4299 98.0076 84.0296 98.7307 84.0385L102.137 84.0822C102.558 86.2638 103.388 88.3004 104.554 90.1151L102.109 92.4968C101.586 93.0048 101.571 93.8397 102.081 94.3575L105.122 97.4774C105.63 97.9995 106.465 98.0108 106.987 97.501L109.426 95.1234C111.209 96.3352 113.225 97.2204 115.399 97.6922L115.355 101.097C115.344 101.822 115.925 102.422 116.648 102.43L121.007 102.486C121.733 102.495 122.332 101.912 122.341 101.187L122.385 97.7865C124.57 97.3665 126.609 96.5333 128.422 95.3701L130.803 97.8089C131.307 98.331 132.142 98.3466 132.66 97.8385L135.784 94.7974C136.302 94.2894 136.313 93.4545 135.81 92.9324L135 92.1064L133.426 90.4932C134.638 88.7101 135.523 86.6881 135.999 84.5204L139.403 84.5641C140.129 84.573 140.728 83.9943 140.737 83.2692L140.795 78.9098C140.803 78.1845 140.219 77.587 139.493 77.5761L136.093 77.5324C135.673 75.3468 134.838 73.3039 133.672 71.4915L136.117 69.1138C136.634 68.6099 136.649 67.7752 136.141 67.2552L133.1 64.1329C132.596 63.6168 131.757 63.6056 131.239 64.1093L128.8 66.487C127.017 65.2754 124.997 64.3919 122.823 63.9141L122.867 60.5136C122.876 59.7882 122.297 59.1908 121.572 59.1799L117.213 59.1244C116.488 59.1155 115.89 59.6982 115.879 60.4236L115.835 63.8282C113.65 64.2442 111.613 65.0773 109.799 66.2466L107.423 63.8014C106.913 63.2833 106.078 63.2681 105.562 63.7718L102.44 66.8193C101.92 67.323 101.909 68.1622 102.416 68.678L104.798 71.1232C103.589 72.9063 102.699 74.9262 102.223 77.096L98.8227 77.0523C98.7128 77.0497 98.6033 77.0635 98.4975 77.0897C97.9283 77.2257 97.4956 77.7299 97.489 78.3455L97.4317 82.7048ZM110.152 80.6909C110.216 75.7419 114.28 71.783 119.227 71.8468C124.176 71.9106 128.135 75.9745 128.071 80.9218C128.007 85.8705 123.945 89.8297 118.996 89.7658C114.047 89.702 110.088 85.6396 110.152 80.6909Z" fill="#5F8EFF"/>
<path d="M175.511 92.6066V176.172C175.511 177.716 174.258 178.968 172.714 178.968H63.321C61.7768 178.968 60.5239 177.716 60.5239 176.172V92.6066C60.5239 91.061 61.7768 89.8095 63.321 89.8095H172.714C174.259 89.8093 175.511 91.0607 175.511 92.6066Z" fill="#1C75BC"/>
<path d="M63.3212 177.034C62.8451 177.034 62.4579 176.647 62.4579 176.172V102.896C62.4579 102.42 62.8451 102.033 63.3212 102.033H172.714C173.191 102.033 173.578 102.42 173.578 102.896V176.172C173.578 176.647 173.191 177.034 172.714 177.034H63.3212Z" fill="#E7E8E8"/>
<path d="M97.8173 104.934H65.3585V174.133H97.8173V104.934Z" fill="#D2D5D8"/>
<path d="M72.5028 96.5215C72.5028 97.3047 72.1857 98.0134 71.6722 98.5268C71.1588 99.0403 70.4501 99.3574 69.6669 99.3574C68.1006 99.3574 66.8296 98.0878 66.8296 96.5215C66.8296 95.7384 67.1479 95.0297 67.6616 94.5162C68.1754 94.0028 68.8838 93.6856 69.6669 93.6856C70.4501 93.6856 71.1588 94.0028 71.6722 94.5162C72.1857 95.0297 72.5028 95.7384 72.5028 96.5215Z" fill="#18669B"/>
<path d="M80.8722 96.5215C80.8722 97.3047 80.5551 98.0134 80.0416 98.5268C79.5281 99.0403 78.8195 99.3574 78.0363 99.3574C76.47 99.3574 75.199 98.0878 75.199 96.5215C75.199 95.7384 75.5172 95.0297 76.031 94.5162C76.5445 94.0028 77.2532 93.6856 78.0363 93.6856C78.8195 93.6856 79.5281 94.0028 80.0416 94.5162C80.5551 95.0297 80.8722 95.7384 80.8722 96.5215Z" fill="#18669B"/>
<path d="M89.2417 96.5215C89.2417 97.3047 88.9245 98.0134 88.4111 98.5268C87.8976 99.0403 87.1889 99.3574 86.4058 99.3574C84.8395 99.3574 83.5684 98.0878 83.5684 96.5215C83.5684 95.7384 83.8867 95.0297 84.4004 94.5162C84.9139 94.0028 85.6226 93.6856 86.4058 93.6856C87.1889 93.6856 87.8976 94.0028 88.4111 94.5162C88.9245 95.0297 89.2417 95.7384 89.2417 96.5215Z" fill="#18669B"/>
<path d="M71.9025 95.9212C71.9025 96.7044 71.5854 97.4131 71.072 97.9265C70.5585 98.44 69.8498 98.7571 69.0666 98.7571C67.5003 98.7571 66.2293 97.4875 66.2293 95.9212C66.2293 95.1381 66.5476 94.4294 67.0613 93.9159C67.5751 93.4024 68.2835 93.0853 69.0666 93.0853C69.8498 93.0853 70.5585 93.4024 71.072 93.9159C71.5854 94.4294 71.9025 95.1381 71.9025 95.9212Z" fill="#E7E8E8"/>
<path d="M80.2719 95.9212C80.2719 96.7044 79.9548 97.4131 79.4413 97.9265C78.9279 98.44 78.2192 98.7571 77.436 98.7571C75.8697 98.7571 74.5987 97.4875 74.5987 95.9212C74.5987 95.1381 74.917 94.4294 75.4307 93.9159C75.9445 93.4024 76.6529 93.0853 77.436 93.0853C78.2192 93.0853 78.9279 93.4024 79.4413 93.9159C79.9548 94.4294 80.2719 95.1381 80.2719 95.9212Z" fill="#E7E8E8"/>
<path d="M88.6414 95.9212C88.6414 96.7044 88.3243 97.4131 87.8108 97.9265C87.2973 98.44 86.5886 98.7571 85.8055 98.7571C84.2392 98.7571 82.9681 97.4875 82.9681 95.9212C82.9681 95.1381 83.2864 94.4294 83.8002 93.9159C84.3139 93.4024 85.0223 93.0853 85.8055 93.0853C86.5886 93.0853 87.2973 93.4024 87.8108 93.9159C88.3243 94.4294 88.6414 95.1381 88.6414 95.9212Z" fill="#E7E8E8"/>
<path d="M169.564 98.6162C169.403 98.777 169.193 98.8566 168.982 98.8566C168.769 98.8566 168.559 98.777 168.398 98.6148L166.871 97.0876L165.341 98.6162C165.019 98.9377 164.498 98.9377 164.176 98.6162C163.854 98.2937 163.854 97.7716 164.175 97.4501L165.705 95.9215L164.175 94.3917C163.853 94.0703 163.853 93.5485 164.175 93.2271C164.497 92.9045 165.019 92.9045 165.341 93.2259L166.871 94.7557L168.398 93.2271C168.719 92.9045 169.243 92.9045 169.565 93.2271C169.726 93.3878 169.805 93.5985 169.805 93.8095C169.805 94.0217 169.726 94.2324 169.564 94.3932L168.036 95.9218L169.564 97.449C169.887 97.7704 169.887 98.2937 169.564 98.6162Z" fill="#18669B"/>
<path d="M68.9818 184.699H71.8741L66.6379 156.108H51.7836L46.5474 184.699H49.4396L52.0889 170.506H66.3325L68.9818 184.699ZM52.6383 167.564L54.2276 159.05H64.1944L65.7837 167.564H52.6383Z" fill="#353945"/>
<path d="M182.305 184.699H184.473L180.548 163.269H165.571L161.646 184.699H163.814L165.8 174.061H180.319L182.305 184.699ZM166.211 171.855L167.402 165.474H178.716L179.907 171.855H166.211Z" fill="#A46F41"/>
<path d="M66.5496 156.105H61.0333C60.5454 156.105 60.147 155.706 60.147 155.218V150.911H63.2402V153.362C63.2402 153.482 63.3397 153.582 63.4659 153.582H64.0374C65.422 153.582 66.5496 154.71 66.5496 156.105Z" fill="#EAC9AF"/>
<path d="M64.0374 153.582H63.4656C63.3399 153.582 63.2402 153.482 63.2402 153.362V153.245H60.147V155.218C60.147 155.706 60.5454 156.104 61.0333 156.104H66.5493C66.5493 154.71 65.422 153.582 64.0374 153.582Z" fill="#13375B"/>
<path d="M66.551 156.108H61.0333C60.544 156.108 60.1487 155.705 60.1487 155.216V154.655C60.1487 155.144 60.544 155.547 61.0718 155.586H66.5251C66.5297 155.727 66.551 155.914 66.551 156.108Z" fill="white"/>
<path d="M59.2328 156.105H53.7165C53.2286 156.105 52.8301 155.706 52.8301 155.218V150.911H55.9234V153.362C55.9234 153.482 56.0228 153.582 56.149 153.582H56.7206C58.1052 153.582 59.2328 154.71 59.2328 156.105Z" fill="#EAC9AF"/>
<path d="M56.7206 153.582H56.1488C56.0231 153.582 55.9234 153.482 55.9234 153.362V153.245H52.8301V155.218C52.8301 155.706 53.2286 156.104 53.7165 156.104H59.2325C59.2325 154.71 58.1052 153.582 56.7206 153.582Z" fill="#13375B"/>
<path d="M59.2727 156.146H53.755C53.2274 156.108 52.8318 155.705 52.8318 155.216V154.655C52.8318 155.144 53.2272 155.547 53.7165 155.547H59.1698C59.2129 155.727 59.2342 155.914 59.2727 156.146Z" fill="white"/>
<path d="M68.7841 112.661C68.5017 113.245 67.9877 113.473 67.8172 114.577C67.6467 115.68 67.181 121.582 65.9784 122.055C64.9287 122.468 57.9534 118.887 57.9534 118.887L59.9363 116.793C59.9363 116.793 62.0606 117.961 64.5371 119.078C65.2171 117.893 66.328 113.995 66.3875 113.81C66.4473 113.624 65.0874 111.283 65.3916 111.223C65.6957 111.164 66.0905 112.473 66.4122 112.341C66.4366 112.331 66.4642 112.304 66.4938 112.263C67.1505 111.36 68.061 110.673 69.1443 110.406C69.7184 110.264 70.1882 110.17 70.1945 110.253C70.2078 110.434 69.0284 112.155 68.7841 112.661Z" fill="#EAC9AF"/>
<path d="M63.764 151.691C63.802 152.062 63.5122 152.384 63.1393 152.384H59.9509C59.6772 152.384 59.434 152.206 59.3526 151.946L54.3544 136.076L57.6259 131.075L59.2347 130.178C59.3032 130.344 59.5958 131.293 59.5958 131.293C59.5958 131.293 60.7884 135.189 61.3415 137.083C61.3413 137.083 63.2718 146.936 63.764 151.691Z" fill="#2751B5"/>
<path d="M59.2344 130.178L57.2659 138.104L56.5262 151.79C56.5087 152.123 56.2335 152.384 55.9 152.384H52.7479C52.4319 152.384 52.1654 152.149 52.1263 151.836C51.6559 148.134 50.4171 139.601 50.4171 139.601C50.0618 137.869 50.5772 135.176 51.5266 133.279C52.0288 132.277 52.7292 131.635 53.134 130.817C53.7993 129.476 53.6334 128.3 53.6334 128.3L59.2344 130.178Z" fill="#17306B"/>
<path d="M59.829 110.81C59.5717 109.594 59.306 108.375 58.0985 107.499C57.1213 106.791 56.0711 106.589 54.9579 106.992C51.8034 108.136 53.5003 110.639 49.5857 113.307C48.3693 114.137 47.9078 114.426 47.0347 115.53C45.8128 117.077 45.1449 119.152 45.7593 120.86C47.0295 124.392 50.9651 125.413 53.0239 124.664C56.856 123.27 60.0484 118.41 60.2605 117.084C60.4877 115.664 59.9946 111.592 59.829 110.81Z" fill="#546B7A"/>
<path d="M45.5736 120.115C45.7306 118.961 46.2757 117.797 47.0344 116.836C47.9076 115.731 48.3693 115.442 49.5857 114.613C53.5 111.944 51.8032 109.441 54.9576 108.298C56.0708 107.894 57.1211 108.096 58.0983 108.804C59.3055 109.68 59.5714 110.9 59.829 112.115C59.9475 112.674 60.2333 114.916 60.3031 116.668C60.4063 114.996 59.9803 111.525 59.829 110.81C59.5714 109.595 59.3058 108.375 58.0983 107.499C57.1211 106.791 56.0708 106.589 54.9576 106.993C51.8032 108.137 53.4997 110.639 49.5857 113.308C48.3693 114.137 47.9076 114.426 47.0344 115.531C45.9856 116.858 45.3454 118.575 45.5736 120.115Z" fill="#353945"/>
<path d="M47.8147 122.585C47.8147 122.585 49.8416 123.499 50.5695 123.793C50.8829 122.901 52.1281 121.128 51.7836 122.137C51.0735 124.217 52.2425 125.397 52.8917 126.803C53.2924 127.671 53.3856 128.953 53.2076 129.914C53.2076 129.914 55.3193 130.349 56.9325 130.42C56.9368 130.42 56.9417 130.42 56.946 130.419C57.7257 130.399 58.5238 130.33 59.2348 130.177C59.2348 130.177 59.5507 123.491 59.7198 123.212C59.9069 122.903 60.697 121.905 60.0248 120.412C59.9061 120.148 59.9377 120.117 60.1208 120.202C61.0089 120.612 62.6172 121.228 62.6172 121.228L63.532 118.334C60.0682 116.364 59.1065 115.926 57.6828 115.869C56.9811 115.841 56.1666 115.906 54.8849 115.925C54.7182 115.928 54.5574 115.928 54.401 115.928C51.6413 115.929 50.3418 115.764 47.8147 122.585Z" fill="#B1B5C4"/>
<path d="M54.4027 117.537C54.6186 118.907 55.3765 119.371 55.9742 119.518C56.1039 119.551 56.2309 119.567 56.3508 119.567C56.6883 119.567 56.9865 119.44 57.213 119.201C57.7768 118.606 57.7656 117.493 57.7015 116.309C57.6923 116.14 57.6837 115.979 57.6828 115.87C56.981 115.842 56.1665 115.906 54.8849 115.925C54.7181 115.928 54.5574 115.929 54.401 115.929C54.3501 116.318 54.3061 116.925 54.4027 117.537Z" fill="#EAC9AF"/>
<path d="M55.3711 112.949C55.3711 112.949 55.1241 114.943 54.9786 115.635C54.8262 116.36 54.5971 118.641 56.0993 119.012C57.6015 119.382 57.1372 116.529 57.1622 115.793C57.1869 115.056 57.6127 112.488 57.6127 112.488L55.3711 112.949Z" fill="#EAC9AF"/>
<path d="M55.1407 114.74C55.156 114.75 55.1704 114.759 55.1859 114.768C56.0162 115.244 56.7387 115.169 57.2812 114.799C57.3781 114.161 57.464 113.643 57.464 113.643L55.2227 114.104C55.2227 114.104 55.1896 114.37 55.1407 114.74Z" fill="#EEAF56"/>
<path d="M54.0681 111.617C54.0851 112.61 54.4537 113.723 55.5424 114.347C57.4109 115.419 58.7371 113.702 58.6805 112.097C58.6261 110.55 58.209 108.522 56.0746 108.735C55.957 109.034 55.016 111.348 54.0943 111.609C54.0857 111.612 54.0765 111.614 54.0681 111.617Z" fill="#EAC9AF"/>
<path d="M59.0936 111.407C59.1143 111.825 58.9358 112.173 58.6948 112.185C58.4539 112.197 58.2417 111.869 58.2207 111.451C58.2 111.034 58.3786 110.686 58.6195 110.674C58.8607 110.662 59.0729 110.99 59.0936 111.407Z" fill="#EAC9AF"/>
<path d="M54.5172 112.123C54.6693 112.534 54.5695 112.95 54.2944 113.054C54.0192 113.158 53.6731 112.909 53.521 112.498C53.3689 112.088 53.4686 111.671 53.7438 111.568C54.0189 111.464 54.3651 111.712 54.5172 112.123Z" fill="#EAC9AF"/>
<path d="M56.0731 131.74C56.1096 131.745 56.2743 131.723 56.4092 131.727C56.5955 131.73 56.7585 131.758 56.7585 131.758C56.7585 131.758 56.8315 131.695 56.9715 131.63C57.0299 131.604 57.1245 131.594 57.1894 131.564C57.2559 131.532 57.3125 131.475 57.3757 131.447C57.5405 131.376 57.6917 131.359 57.7417 131.446C57.7834 131.517 56.8666 132.078 56.8666 132.078C56.0182 132.083 55.1298 132.515 53.1633 131.233C52.0403 130.742 46.587 128.048 46.4772 127.461C46.4157 127.132 47.2532 124.577 47.9371 122.641C48.4863 122.88 49.5868 123.382 50.2141 123.645C49.6386 124.864 48.9578 126.48 49.0293 126.678C49.0477 126.729 49.1159 126.822 52.8025 129.236C52.8956 129.296 52.9905 129.359 53.0871 129.423C53.3467 129.592 53.6245 129.774 53.9189 129.965L54.9702 129.855C54.9702 129.855 56.6354 129.97 56.6855 130.16C56.707 130.246 56.569 130.289 56.3994 130.314H56.3945C56.3695 130.318 56.3445 130.321 56.3198 130.324C56.318 130.324 56.3163 130.324 56.3163 130.324C56.1335 130.346 55.9403 130.349 55.8937 130.366C55.8405 130.384 55.7341 130.426 55.6424 130.489C56.6806 130.913 56.6007 130.762 56.9451 130.74C57.0316 130.734 57.123 130.759 57.2047 130.752C57.3444 130.74 57.456 130.657 57.5641 130.651C57.7222 130.642 57.8501 130.716 57.8786 130.746C57.9151 130.782 57.847 130.836 57.7139 130.895C56.912 131.243 56.2482 131.11 56.0351 131.162C55.892 131.197 56.1533 131.25 56.5607 131.206C56.6622 131.196 56.7953 131.233 56.9301 131.202C57.0201 131.182 57.1015 131.123 57.1897 131.102C57.2711 131.082 57.3545 131.083 57.4226 131.07C57.5126 131.053 57.6371 130.985 57.7087 130.977C57.9749 130.947 58.1046 130.994 58.1345 131.018C58.196 131.073 56.9868 131.537 56.9868 131.537C56.9868 131.537 56.1533 131.657 55.967 131.657C55.9667 131.657 55.8552 131.707 56.0731 131.74Z" fill="#EAC9AF"/>
<path d="M71.2945 110.207C71.7801 110.207 72.1737 109.814 72.1737 109.328C72.1737 108.843 71.7801 108.449 71.2945 108.449C70.809 108.449 70.4153 108.843 70.4153 109.328C70.4153 109.814 70.809 110.207 71.2945 110.207Z" fill="white"/>
<path d="M92.7604 109.328C92.7604 109.814 92.3668 110.207 91.8812 110.207H75.5371C75.0516 110.207 74.658 109.814 74.658 109.328C74.658 108.843 75.0516 108.449 75.5371 108.449H91.8812C92.3668 108.449 92.7604 108.842 92.7604 109.328Z" fill="white"/>
<path d="M71.2945 113.776C71.7801 113.776 72.1737 113.382 72.1737 112.897C72.1737 112.411 71.7801 112.017 71.2945 112.017C70.809 112.017 70.4153 112.411 70.4153 112.897C70.4153 113.382 70.809 113.776 71.2945 113.776Z" fill="white"/>
<path d="M92.7604 112.896C92.7604 113.382 92.3668 113.776 91.8812 113.776H75.5371C75.0516 113.776 74.658 113.382 74.658 112.896C74.658 112.411 75.0516 112.017 75.5371 112.017H91.8812C92.3668 112.017 92.7604 112.411 92.7604 112.896Z" fill="white"/>
<path d="M71.2945 117.344C71.7801 117.344 72.1737 116.95 72.1737 116.465C72.1737 115.979 71.7801 115.586 71.2945 115.586C70.809 115.586 70.4153 115.979 70.4153 116.465C70.4153 116.95 70.809 117.344 71.2945 117.344Z" fill="white"/>
<path d="M92.7604 116.465C92.7604 116.95 92.3668 117.344 91.8812 117.344H75.5371C75.0516 117.344 74.658 116.95 74.658 116.465C74.658 115.979 75.0516 115.585 75.5371 115.585H91.8812C92.3668 115.585 92.7604 115.979 92.7604 116.465Z" fill="white"/>
<path d="M71.2945 120.912C71.7801 120.912 72.1737 120.519 72.1737 120.033C72.1737 119.547 71.7801 119.154 71.2945 119.154C70.809 119.154 70.4153 119.547 70.4153 120.033C70.4153 120.519 70.809 120.912 71.2945 120.912Z" fill="white"/>
<path d="M92.7604 120.033C92.7604 120.519 92.3668 120.912 91.8812 120.912H75.5371C75.0516 120.912 74.658 120.519 74.658 120.033C74.658 119.547 75.0516 119.154 75.5371 119.154H91.8812C92.3668 119.154 92.7604 119.547 92.7604 120.033Z" fill="white"/>
<path d="M136.56 153.38C137.046 153.38 137.439 152.986 137.439 152.501C137.439 152.015 137.046 151.621 136.56 151.621C136.075 151.621 135.681 152.015 135.681 152.501C135.681 152.986 136.075 153.38 136.56 153.38Z" fill="white"/>
<path d="M164.656 152.5C164.656 152.986 164.263 153.38 163.777 153.38H140.803C140.318 153.38 139.924 152.986 139.924 152.5C139.924 152.015 140.318 151.621 140.803 151.621H163.777C164.263 151.621 164.656 152.015 164.656 152.5Z" fill="white"/>
<path d="M136.56 156.948C137.046 156.948 137.439 156.554 137.439 156.069C137.439 155.583 137.046 155.19 136.56 155.19C136.075 155.19 135.681 155.583 135.681 156.069C135.681 156.554 136.075 156.948 136.56 156.948Z" fill="white"/>
<path d="M164.656 156.069C164.656 156.554 164.263 156.948 163.777 156.948H140.803C140.318 156.948 139.924 156.554 139.924 156.069C139.924 155.583 140.318 155.19 140.803 155.19H163.777C164.263 155.19 164.656 155.583 164.656 156.069Z" fill="white"/>
<path d="M136.56 160.516C137.046 160.516 137.439 160.123 137.439 159.637C137.439 159.152 137.046 158.758 136.56 158.758C136.075 158.758 135.681 159.152 135.681 159.637C135.681 160.123 136.075 160.516 136.56 160.516Z" fill="white"/>
<path d="M164.656 159.637C164.656 160.123 164.263 160.516 163.777 160.516H140.803C140.318 160.516 139.924 160.123 139.924 159.637C139.924 159.151 140.318 158.758 140.803 158.758H163.777C164.263 158.758 164.656 159.151 164.656 159.637Z" fill="white"/>
<path d="M136.56 164.085C137.046 164.085 137.439 163.691 137.439 163.205C137.439 162.72 137.046 162.326 136.56 162.326C136.075 162.326 135.681 162.72 135.681 163.205C135.681 163.691 136.075 164.085 136.56 164.085Z" fill="white"/>
<path d="M164.656 163.205C164.656 163.691 164.263 164.084 163.777 164.084H140.803C140.318 164.084 139.924 163.691 139.924 163.205C139.924 162.72 140.318 162.326 140.803 162.326H163.777C164.263 162.326 164.656 162.72 164.656 163.205Z" fill="white"/>
<path d="M122.068 132.936C122.065 133.25 122.318 133.511 122.632 133.515L124.11 133.534C124.292 134.48 124.653 135.364 125.158 136.151L124.098 137.184C123.871 137.405 123.864 137.767 124.086 137.992L125.405 139.345C125.625 139.572 125.988 139.577 126.214 139.356L127.272 138.324C128.046 138.85 128.921 139.234 129.864 139.439L129.845 140.916C129.84 141.23 130.092 141.491 130.406 141.495L132.297 141.519C132.612 141.522 132.872 141.27 132.876 140.955L132.895 139.48C133.843 139.297 134.728 138.936 135.515 138.431L136.548 139.49C136.766 139.716 137.129 139.723 137.353 139.502L138.709 138.183C138.934 137.963 138.939 137.6 138.72 137.374L138.369 137.016L137.686 136.316C138.212 135.542 138.596 134.665 138.802 133.724L140.28 133.743C140.594 133.747 140.854 133.496 140.858 133.181L140.883 131.29C140.887 130.976 140.633 130.716 140.319 130.711L138.843 130.692C138.661 129.744 138.299 128.858 137.793 128.071L138.854 127.04C139.078 126.821 139.084 126.459 138.864 126.233L137.544 124.878C137.326 124.655 136.962 124.65 136.737 124.868L135.679 125.9C134.905 125.374 134.029 124.991 133.085 124.784L133.104 123.308C133.108 122.994 132.857 122.734 132.543 122.729L130.651 122.705C130.337 122.702 130.077 122.954 130.072 123.269L130.053 124.746C129.105 124.927 128.222 125.288 127.434 125.796L126.403 124.735C126.182 124.51 125.82 124.503 125.596 124.722L124.241 126.044C124.016 126.263 124.011 126.627 124.231 126.85L125.265 127.911C124.74 128.685 124.354 129.561 124.147 130.503L122.672 130.484C122.624 130.483 122.577 130.489 122.531 130.5C122.284 130.559 122.096 130.778 122.093 131.045L122.068 132.936ZM127.588 132.062C127.615 129.915 129.378 128.197 131.525 128.225C133.672 128.253 135.39 130.016 135.362 132.162C135.335 134.31 133.572 136.027 131.425 136C129.278 135.972 127.56 134.209 127.588 132.062Z" fill="#B1B5C4"/>
<path d="M126.208 132.044C126.245 129.135 128.634 126.807 131.543 126.845C134.452 126.883 136.78 129.272 136.742 132.18C136.704 135.09 134.317 137.417 131.407 137.38C128.498 137.342 126.17 134.954 126.208 132.044Z" fill="white"/>
<path d="M130.892 129.863L130.345 130.082L132.061 134.363L132.608 134.143L130.892 129.863Z" fill="#EB5757"/>
<path d="M132.597 133.39L133.013 133.806L134.708 132.112L133.013 130.419L132.597 130.835L133.875 132.112L132.597 133.39Z" fill="#EB5757"/>
<path d="M128.242 132.112L129.937 133.806L130.353 133.39L129.076 132.112L130.353 130.835L129.937 130.419L128.242 132.112Z" fill="#EB5757"/>
<path d="M97.0999 155.172C97.093 155.723 97.5369 156.178 98.0861 156.185L100.672 156.218C100.991 157.873 101.622 159.42 102.506 160.797L100.65 162.605C100.254 162.99 100.242 163.624 100.629 164.017L102.938 166.385C103.323 166.782 103.957 166.79 104.353 166.403L106.204 164.599C107.557 165.518 109.088 166.191 110.738 166.548L110.705 169.133C110.696 169.683 111.137 170.138 111.686 170.145L114.995 170.187C115.546 170.194 116.001 169.752 116.007 169.201L116.04 166.62C117.699 166.301 119.247 165.669 120.623 164.786L122.43 166.637C122.813 167.033 123.446 167.045 123.84 166.659L126.211 164.351C126.604 163.966 126.613 163.332 126.23 162.935L125.616 162.309L124.421 161.084C125.341 159.731 126.013 158.196 126.374 156.551L128.958 156.584C129.509 156.591 129.964 156.151 129.971 155.601L130.014 152.292C130.021 151.741 129.577 151.288 129.027 151.28L126.446 151.247C126.127 149.588 125.493 148.037 124.609 146.661L126.464 144.857C126.856 144.474 126.868 143.841 126.482 143.446L124.174 141.076C123.791 140.684 123.155 140.676 122.761 141.058L120.91 142.863C119.557 141.943 118.024 141.273 116.373 140.91L116.406 138.329C116.413 137.778 115.974 137.325 115.423 137.317L112.114 137.274C111.564 137.268 111.11 137.71 111.102 138.26L111.069 140.845C109.41 141.16 107.864 141.793 106.487 142.68L104.684 140.825C104.297 140.431 103.663 140.42 103.271 140.802L100.901 143.115C100.507 143.498 100.498 144.134 100.883 144.526L102.691 146.382C101.773 147.735 101.098 149.268 100.737 150.915L98.1556 150.882C98.0723 150.88 97.9892 150.891 97.9087 150.911C97.4766 151.014 97.1482 151.397 97.1433 151.864L97.0999 155.172ZM106.755 153.644C106.804 149.887 109.889 146.882 113.644 146.931C117.4 146.979 120.405 150.064 120.356 153.819C120.308 157.576 117.225 160.581 113.468 160.532C109.712 160.483 106.707 157.4 106.755 153.644Z" fill="#EB5757"/>
<path d="M142.282 128.841C142.282 128.841 145.287 141.261 133.422 140.553C132.305 140.487 131.187 140.796 130.318 141.503C129.667 142.036 129.177 142.758 129.503 143.644C130.248 145.667 131.952 145.773 132.804 145.986C133.656 146.199 142.783 147.477 148.87 140.875H165.57V127.132H157.526C157.526 127.132 158.448 114.756 154.87 111.52C152.8 109.648 151.76 111.65 151.89 113.269C152.005 114.717 153.818 116.082 153.86 120.822C153.865 121.284 153.899 121.744 153.939 122.204C153.956 122.393 153.185 128.947 153.639 122.728C153.639 122.723 153.639 122.721 153.641 122.717C153.679 122.168 153.603 121.618 153.422 121.096C151.999 116.987 148.101 105.452 144.764 104.975C144.31 104.911 140.877 105.041 143.337 108.798C145.799 112.555 148.957 120.589 148.87 122.21C148.87 122.21 139.322 102.125 134.202 105.494C134.074 105.818 131.869 106.336 133.684 108.798C135.499 111.26 141.132 115.662 143.594 122.917C143.422 122.674 136.242 112.655 128.962 118.638C127.955 119.467 127.859 120.981 128.736 121.948C129.186 122.444 129.81 122.704 130.442 122.704C130.845 122.704 131.252 122.598 131.618 122.38C133.707 121.142 137.828 120.379 142.282 128.841Z" fill="#EAC9AF"/>
<path d="M177.842 126.354H159.951V141.653H177.842V126.354Z" fill="white"/>
<path d="M179.562 125.595H161.671V142.412H179.562V125.595Z" fill="#353945"/>
<path d="M164.359 140.972C165.112 140.972 165.722 140.362 165.722 139.609C165.722 138.856 165.112 138.246 164.359 138.246C163.606 138.246 162.996 138.856 162.996 139.609C162.996 140.362 163.606 140.972 164.359 140.972Z" fill="white"/>
<path d="M177.915 155.94C177.884 155.958 176.073 159.027 176.073 159.027C176.176 157.915 171.034 152.035 168.353 150.276C167.719 149.345 167.483 147.722 167.453 147.501C167.567 148.836 167.794 149.586 167.999 150.01C166.778 148.884 166.596 146.186 166.918 143.802C166.496 142.065 167.106 141.257 167.658 140.826C167.658 140.824 167.658 140.824 167.661 140.824C167.923 140.183 168.222 139.722 168.528 139.547C169.085 139.23 169.754 139.195 170.222 139.224C170.101 139.099 169.863 139.053 169.863 139.053C170.154 139.012 170.801 139.298 170.801 139.298C174.83 137.747 175.464 143.679 175.378 145.058C175.295 146.437 175.284 148.023 177.297 149.26C181.254 151.692 177.915 155.94 177.915 155.94Z" fill="#693518"/>
<path d="M158.611 183.023H160.663V180.681H158.611V183.023Z" fill="#EAC9AF"/>
<path d="M160.663 182.497H158.611V183.023H160.663V182.497Z" fill="white"/>
<path d="M156.753 184.692V184.699H160.012C160.455 184.699 160.813 184.34 160.813 183.897V183.131C160.813 183.072 160.766 183.024 160.707 183.024H158.421C157.5 183.024 156.753 183.771 156.753 184.692Z" fill="#17306B"/>
<path d="M158.38 181.491H160.844L161.186 163.782H166.251C170.357 163.576 170.699 160.907 170.699 160.633L170.357 159.743C170.357 159.743 161.254 159.606 159.749 159.743C158.243 159.88 157.216 162.139 157.216 162.139C155.779 164.603 158.38 181.491 158.38 181.491Z" fill="#777E91"/>
<path d="M163.726 183.023H165.779V180.681H163.726V183.023Z" fill="#EAC9AF"/>
<path d="M165.779 182.497H163.726V183.023H165.779V182.497Z" fill="white"/>
<path d="M161.868 184.692V184.699H165.127C165.57 184.699 165.929 184.34 165.929 183.897V183.131C165.929 183.072 165.881 183.024 165.822 183.024H163.537C162.616 183.024 161.868 183.771 161.868 184.692Z" fill="#17306B"/>
<path d="M163.495 181.491H165.959L166.301 163.782H171.366C175.472 163.576 175.815 160.907 175.815 160.633L175.472 159.743C175.472 159.743 166.37 159.606 164.864 159.743C163.358 159.88 162.331 162.139 162.331 162.139C160.894 164.603 163.495 181.491 163.495 181.491Z" fill="#B1B5C4"/>
<path d="M160.899 157.556C160.899 157.571 163.833 160.303 163.833 160.303L167.517 160.097L168.405 157.556C168.405 158.119 168.405 159.62 168.405 159.62C168.405 159.62 175.295 163.098 176.388 159.62C177.478 156.138 178.433 149.248 171.611 147.815H167.382C167.382 147.815 164.721 147.953 163.218 151.842C161.717 155.731 160.899 157.541 160.899 157.556Z" fill="#F7A491"/>
<path d="M168.856 157.455C168.856 157.455 174.447 161.066 176.182 157.14C176.182 157.14 177.9 154.128 176.351 151.39L172.897 151.848V155.64L168.856 155.804V157.455Z" fill="#F47458"/>
<path d="M168.856 157.304C168.856 157.304 174.696 161.23 176.431 157.304C176.431 157.304 177.981 154.112 176.431 151.374L172.897 151.848L173.146 155.804H168.856V157.304Z" fill="#F7A491"/>
<path d="M165.204 157.778C165.327 157.852 166.017 157.901 166.189 157.778C166.362 157.655 168.144 157.104 168.856 157.304V156.075C168.856 156.075 165.746 154.296 164.955 156.272C164.905 156.395 165.08 157.704 165.204 157.778Z" fill="#EAC9AF"/>
<path d="M168.656 147.016C168.656 147.016 168.724 147.954 168.724 148.84C168.724 149.706 169.423 150.405 170.289 150.405H170.303C171.192 150.405 171.902 149.662 171.865 148.772C171.824 147.763 171.807 147.281 171.811 146.391L171.634 146.429L168.656 147.016Z" fill="#EAC9AF"/>
<path d="M168.655 147.017C168.655 147.017 168.723 147.955 168.725 148.838C170.392 148.792 171.274 147.27 171.635 146.427L168.655 147.017Z" fill="#EAC9AF"/>
<path d="M172.061 144.641C172.053 144.903 172.046 145.176 172.046 145.463C172.044 147.919 168.098 147.853 168.098 147.853C167.63 147.818 167.285 146.942 167.066 145.919C166.942 145.338 166.959 144.729 167.154 144.167C167.298 143.75 167.381 143.064 167.508 142.655C167.656 142.183 168.152 141.7 168.388 141.495C168.731 142.273 169.68 144.126 170.982 144.462C171.401 144.569 171.76 144.621 172.061 144.641Z" fill="#EAC9AF"/>
<path d="M157.114 159.765C157.114 159.968 157.195 160.15 157.329 160.284C157.461 160.418 157.642 160.499 157.846 160.499H170.155C170.559 160.499 170.889 160.169 170.889 159.765C170.889 159.562 170.805 159.38 170.673 159.249C170.54 159.115 170.356 159.033 170.155 159.033H157.846C157.442 159.034 157.114 159.361 157.114 159.765Z" fill="#353945"/>
<path d="M155.27 153.044L157.709 159.034H168.534L165.794 152.307C165.646 151.94 165.287 151.699 164.893 151.699H156.173C155.481 151.7 155.01 152.4 155.27 153.044Z" fill="#546B7A"/>
<path d="M163.219 157.153C163.595 156.911 163.503 156.094 163.012 155.328C162.521 154.562 161.818 154.136 161.441 154.377C161.064 154.619 161.157 155.435 161.648 156.202C162.139 156.968 162.842 157.394 163.219 157.153Z" fill="#353945"/>
</svg>
